<svg width="324" height="404" viewBox="0 0 324 404" fill="none" xmlns="http://www.w3.org/2000/svg">
<path d="M0.0014392 69.5715C0.0014392 56.1718 10.8209 45.3086 24.1665 45.3086H229.671C241.008 45.3086 250.357 54.2287 250.933 65.5986L266.102 364.747C266.553 373.644 259.579 381.147 250.707 381.309L15.1731 385.607C6.83816 385.758 0 379.017 0 370.647V69.5715H0.0014392Z" fill="#4B4EF7"/>
<path d="M49.5981 380.522H49.5909L23.2361 380.18C14.4238 380.064 7.25354 372.773 7.25354 363.925V323.973C7.25354 323.661 7.50516 323.408 7.81572 323.408C8.12629 323.408 8.37789 323.661 8.37789 323.973V363.925C8.37789 372.158 15.0493 378.943 23.249 379.051L49.6039 379.393C49.9144 379.397 50.1632 379.653 50.1589 379.965C50.1546 380.274 49.9044 380.522 49.5967 380.522H49.5981Z" fill="#BDD0FB"/>
<path d="M7.81717 312.162C7.50661 312.162 7.255 311.909 7.255 311.597V305.127C7.255 304.815 7.50661 304.562 7.81717 304.562C8.12774 304.562 8.37936 304.815 8.37936 305.127V311.597C8.37936 311.909 8.12774 312.162 7.81717 312.162Z" fill="#BDD0FB"/>
<path d="M16.8366 49.9125C16.8107 45.6249 20.5662 42.3075 24.7976 42.8835C52.8606 46.7048 149.364 58.5222 229.152 52.3724C232.791 52.0924 235.948 54.8598 236.142 58.5193L252.047 359.001C252.266 363.121 249.132 366.645 245.029 366.888C211.473 368.881 73.2744 376.589 23.981 371.406C20.9803 371.09 18.7043 368.555 18.6856 365.526L16.8366 49.9125Z" fill="#7D97F4"/>
<path opacity="0.6" d="M20.1422 57.4427C20.1178 53.3169 23.7324 50.1236 27.8042 50.6779C54.8104 54.3548 147.679 65.7276 224.463 59.8102C227.964 59.5403 231.004 62.2038 231.191 65.7247L246.498 354.891C246.708 358.857 243.692 362.247 239.744 362.482C207.451 364.401 74.4565 371.818 27.0192 366.83C24.1321 366.527 21.9409 364.086 21.9236 361.171L20.1437 57.4427H20.1422Z" fill="white"/>
<g opacity="0.6">
<path d="M215.024 104.539C215.386 104.539 215.675 104.242 215.664 103.877L215.582 101.042C215.572 100.678 215.266 100.375 214.903 100.367L137.291 98.9787C136.929 98.9714 136.73 99.2486 136.851 99.5922L138.367 103.914C138.487 104.258 138.883 104.539 139.245 104.539H215.024Z" fill="white"/>
</g>
<g opacity="0.79">
<path d="M215.99 84.1693C216.353 84.1693 216.645 83.8719 216.636 83.5067L216.538 78.8524C216.531 78.4887 216.228 78.1826 215.865 78.1739L135.84 76.176C135.478 76.1673 135.254 76.4488 135.343 76.8025L137.034 83.5269C137.123 83.8806 137.492 84.1693 137.855 84.1693H215.99Z" fill="white"/>
</g>
<g opacity="0.6">
<path d="M137.291 110.535C136.929 110.528 136.73 110.805 136.851 111.149L138.367 115.471C138.487 115.815 138.883 116.096 139.245 116.096H215.024C215.386 116.096 215.675 115.799 215.664 115.433L215.582 112.598C215.572 112.234 215.266 111.931 214.903 111.924L137.291 110.535Z" fill="white"/>
</g>
<g opacity="0.6">
<path d="M137.291 122.26C136.929 122.253 136.73 122.53 136.851 122.873L138.367 127.196C138.487 127.539 138.883 127.821 139.245 127.821H215.024C215.386 127.821 215.675 127.523 215.664 127.158L215.582 124.323C215.572 123.959 215.266 123.656 214.903 123.649L137.291 122.26Z" fill="white"/>
</g>
<path d="M79.0142 146.663C100.805 146.663 118.47 128.927 118.47 107.047C118.47 85.1682 100.805 67.4316 79.0142 67.4316C57.2232 67.4316 39.5581 85.1682 39.5581 107.047C39.5581 128.927 57.2232 146.663 79.0142 146.663Z" fill="white"/>
<mask id="mask0_312_1132" style="mask-type:luminance" maskUnits="userSpaceOnUse" x="39" y="67" width="80" height="80">
<path d="M79.0142 146.663C100.805 146.663 118.47 128.927 118.47 107.047C118.47 85.1682 100.805 67.4316 79.0142 67.4316C57.2232 67.4316 39.5581 85.1682 39.5581 107.047C39.5581 128.927 57.2232 146.663 79.0142 146.663Z" fill="white"/>
</mask>
<g mask="url(#mask0_312_1132)">
<path d="M70.2667 99.178C67.8498 99.178 65.3437 99.4869 64.3976 96.565C62.6162 91.0605 65.6082 82.8305 70.5154 79.8335C72.156 78.8316 74.0697 78.3928 75.9532 78.0131C78.1688 77.567 80.0825 77.4559 82.0796 78.5343C83.9229 79.5289 85.7115 77.9294 87.6209 79.207C89.2442 80.2926 90.4893 82.0018 91.3563 83.7299C92.4893 85.9862 93.0774 88.4736 93.572 90.9508C93.6841 91.5124 93.7905 92.0927 93.6669 92.6514C93.5619 93.1191 93.3017 93.5349 93.0428 93.9377C91.0616 97.0184 88.4247 99.1766 84.6116 99.178H70.2681H70.2667Z" fill="url(#paint0_linear_312_1132)"/>
<path d="M69.7807 89.4883C69.7807 89.4883 70.2178 90.4079 67.3724 91.8428C65.7851 92.644 62.6981 93.8264 62.2912 97.2838C62.0813 99.0681 61.3868 103.474 59.696 103.747C55.4847 104.425 49.7996 107.064 49.2691 112.196C48.6609 118.086 50.3474 121.177 53.3337 121.947C55.5264 122.512 56.0828 123.104 55.6385 125.431C55.2129 127.663 56.8995 135.674 60.5788 137.715C68.8246 142.289 76.0064 121.451 76.0064 121.451L77.6943 94.5482L69.7821 89.4883H69.7807Z" fill="url(#paint1_linear_312_1132)"/>
<path d="M88.6505 87.1343C88.6505 87.1343 88.2062 88.1073 91.1034 89.6288C92.7195 90.4777 95.8611 91.7307 96.2766 95.3932C96.4908 97.2843 96.9912 99.9406 98.7137 100.229C103.001 100.948 107.97 105.143 109.028 113.287C109.835 119.503 108.074 126.17 105.034 126.985C102.801 127.584 102.97 126.396 103.421 128.862C103.854 131.227 102.837 130.314 99.0918 132.477C90.6979 137.322 82.3156 120.997 82.3156 120.997L80.5974 92.4944L88.6534 87.1328L88.6505 87.1343Z" fill="url(#paint2_linear_312_1132)"/>
<path d="M77.4285 117.007C77.4285 117.007 83.8008 115.358 85.1538 117.396C85.831 120.786 86.1789 124.152 86.1789 124.152L78.8375 125.537L73.9821 124.415L72.8275 123.742L72.3488 118.941C72.3488 118.941 74.8318 117.494 77.4299 117.008L77.4285 117.007Z" fill="url(#paint3_linear_312_1132)"/>
<path d="M69.785 99.906C69.785 99.906 68.7599 96.8195 67.2243 97.8488C65.6873 98.8781 69.5305 105.442 69.5305 105.442L69.785 99.906Z" fill="url(#paint4_linear_312_1132)"/>
<path d="M85.1536 99.9076C85.1536 99.9076 85.1536 95.2779 87.7143 97.8505C90.275 100.422 85.1536 104.023 85.1536 104.023V99.9091V99.9076Z" fill="url(#paint5_linear_312_1132)"/>
<path d="M109.28 141.947C107.135 131.553 104.056 123.43 103.083 122.959L97.267 137.405C97.267 137.405 96.0923 141.71 96.1872 147.056H105.132C107.813 147.056 109.823 144.584 109.28 141.947Z" fill="#0F97C7"/>
<path d="M64.5112 147.053C64.7786 142.41 64.6622 139.486 64.6622 139.486L56.4653 126.125C56.4653 126.125 55.4401 130.221 54.4164 141.022C54.369 141.524 54.3229 142.034 54.2798 142.552C54.0771 144.974 55.985 147.052 58.4049 147.052H64.5097L64.5112 147.053Z" fill="#0F97C7"/>
<path d="M75.8584 147.084H84.7828L87.2026 121.542C87.2026 121.542 85.1537 121.012 84.1286 117.412C83.1034 113.811 82.5916 106.604 82.5916 106.604L73.371 108.656C73.371 108.656 74.3961 118.459 72.3458 123.087L75.8569 147.084H75.8584Z" fill="url(#paint6_linear_312_1132)"/>
<path d="M89.5994 147.085L90.8834 130.961C81.5348 136.577 71.9217 136.304 62.172 133.326L64.9398 147.083H89.6009L89.5994 147.085Z" fill="url(#paint7_linear_312_1132)"/>
<path d="M78.0481 147.055C75.2775 133.64 72.3473 118.955 72.3473 118.955L70.8103 122.033L56.4668 126.16C57.1684 129.452 59.3136 138.507 61.4689 147.055H78.0481Z" fill="#0F97C7"/>
<path d="M98.5453 147.056C99.3088 142.946 99.9831 139.738 99.9831 139.738L103.084 122.959C102.108 121.979 86.7942 119.871 86.7942 119.871L85.1551 117.414C85.1551 117.414 83.1105 132.34 81.3622 147.056H98.5467H98.5453Z" fill="#0F97C7"/>
<path d="M68.7612 92.7061C68.7612 92.7061 68.2494 105.05 69.7864 107.108C71.3234 109.165 73.3723 113.794 76.9581 114.308C80.544 114.822 86.1787 104.535 86.1787 104.021C86.1787 103.507 85.6669 90.1335 85.6669 90.1335C85.6669 90.1335 74.9093 81.3895 68.7612 92.7046V92.7061Z" fill="url(#paint8_linear_312_1132)"/>
<path d="M66.7125 90.6497C66.7125 90.6497 64.6636 96.8226 70.8102 94.764L76.9568 92.7069C76.9568 92.7069 83.1048 89.1065 84.1285 90.6497C85.1537 92.193 86.1774 95.9926 86.1774 95.9926C86.1774 95.9926 88.2262 90.6497 86.1774 87.5633C84.1285 84.4768 71.3221 81.9057 66.711 90.6497H66.7125Z" fill="url(#paint9_linear_312_1132)"/>
</g>
<g opacity="0.6">
<path d="M217.875 168.784C218.238 168.784 218.522 168.486 218.508 168.121L218.321 163.519C218.307 163.155 217.998 162.853 217.634 162.849L62.2079 160.854C61.8456 160.85 61.6788 161.114 61.8384 161.44L65.1382 168.189C65.2978 168.517 65.7262 168.784 66.0886 168.784H217.873H217.875Z" fill="white"/>
</g>
<g opacity="0.6">
<path d="M62.2094 178.774C61.8471 178.77 61.6803 179.032 61.8399 179.36L65.1396 186.109C65.2992 186.437 65.7277 186.704 66.09 186.704H217.874C218.236 186.704 218.521 186.406 218.507 186.041L218.32 181.439C218.305 181.075 217.996 180.773 217.633 180.769L62.2065 178.774H62.2094Z" fill="white"/>
</g>
<g opacity="0.6">
<path d="M63.1769 196.885C62.8145 196.879 62.6348 197.149 62.7786 197.484L65.6643 204.205C65.8081 204.54 66.2221 204.813 66.5845 204.813H199.687C200.049 204.813 200.337 204.516 200.323 204.15L200.159 199.548C200.146 199.184 199.838 198.881 199.476 198.877L63.1769 196.883V196.885Z" fill="white"/>
</g>
<path d="M46.6461 166.658C47.5219 162.933 45.2239 159.2 41.5135 158.32C37.8031 157.441 34.0853 159.748 33.2096 163.474C32.3338 167.199 34.6318 170.932 38.3422 171.811C42.0526 172.691 45.7704 170.383 46.6461 166.658Z" fill="#0F97C7"/>
<g opacity="0.6">
<path d="M219.808 236.697C220.17 236.697 220.455 236.4 220.441 236.036L220.254 231.434C220.239 231.07 219.93 230.768 219.566 230.764L64.1404 228.769C63.7781 228.764 63.6113 229.028 63.7709 229.355L67.0707 236.104C67.2303 236.431 67.6587 236.698 68.0211 236.698H219.805L219.808 236.697Z" fill="white"/>
</g>
<g opacity="0.6">
<path d="M64.1432 247.659C63.7809 247.653 63.5983 247.924 63.7378 248.259L66.5357 254.975C66.6752 255.311 67.0878 255.586 67.4502 255.586H196.618C196.98 255.586 197.268 255.288 197.255 254.923L197.095 250.321C197.082 249.957 196.776 249.654 196.412 249.649L64.1418 247.657L64.1432 247.659Z" fill="white"/>
</g>
<g opacity="0.6">
<path d="M64.7874 266.417C64.4251 266.413 64.2583 266.677 64.4164 267.005L67.6946 273.752C67.8542 274.08 68.2812 274.347 68.6436 274.347H219.486C219.848 274.347 220.134 274.049 220.118 273.684L219.933 269.082C219.919 268.718 219.61 268.416 219.247 268.412L64.7874 266.417Z" fill="white"/>
</g>
<path d="M44.3032 237.972C46.999 235.265 46.999 230.877 44.3032 228.17C41.6075 225.464 37.2368 225.464 34.5411 228.17C31.8454 230.877 31.8454 235.265 34.5411 237.972C37.2368 240.679 41.6075 240.679 44.3032 237.972Z" fill="#7D97F4"/>
<g opacity="0.6">
<path d="M219.003 310.919C219.365 310.919 219.65 310.622 219.635 310.256L219.448 305.654C219.434 305.29 219.125 304.989 218.761 304.984L63.3351 302.989C62.9728 302.985 62.806 303.249 62.9656 303.575L66.2654 310.324C66.425 310.652 66.8534 310.919 67.2158 310.919H219H219.003Z" fill="white"/>
</g>
<g opacity="0.6">
<path d="M63.3381 320.913C62.9758 320.907 62.7917 321.178 62.9312 321.515L65.6989 328.229C65.8384 328.565 66.2482 328.841 66.6105 328.841H194.363C194.726 328.841 195.013 328.544 195 328.178L194.843 323.576C194.831 323.212 194.524 322.909 194.16 322.903L63.3381 320.911V320.913Z" fill="white"/>
</g>
<g opacity="0.6">
<path d="M64.3043 339.995C63.9419 339.988 63.7392 340.265 63.8557 340.61L66.1073 347.294C66.2237 347.639 66.6163 347.922 66.9786 347.922H171.171C171.534 347.922 171.823 347.625 171.813 347.26L171.685 342.657C171.675 342.293 171.37 341.989 171.006 341.983L64.3028 339.995H64.3043Z" fill="white"/>
</g>
<path d="M43.4502 312.156C46.1459 309.449 46.1459 305.061 43.4502 302.354C40.7545 299.647 36.3838 299.647 33.6881 302.354C30.9923 305.061 30.9923 309.449 33.6881 312.156C36.3838 314.862 40.7545 314.862 43.4502 312.156Z" fill="url(#paint10_linear_312_1132)"/>
<path d="M139.665 4.51974C132.241 -0.665732 125.787 -0.563231 121.244 0.783664C117.099 2.01218 114.413 6.02977 114.807 10.3505L116.766 31.8243L140.083 33.9017C140.083 33.9017 154.222 14.6886 139.665 4.51974ZM129.41 21.8446C126.2 21.8446 123.596 19.2317 123.596 16.0066C123.596 12.7816 126.198 10.1686 129.41 10.1686C132.622 10.1686 135.225 12.7816 135.225 16.0066C135.225 19.2317 132.622 21.8446 129.41 21.8446Z" fill="url(#paint11_linear_312_1132)"/>
<path d="M119.094 22.7919C118.807 22.7919 118.561 22.5725 118.535 22.278L118.223 18.8581C118.194 18.5477 118.423 18.2734 118.732 18.2445C119.048 18.2142 119.316 18.4452 119.343 18.7556L119.655 22.1755C119.684 22.4859 119.455 22.7602 119.146 22.789C119.129 22.7905 119.111 22.7919 119.094 22.7919ZM118.483 16.0906C118.196 16.0906 117.95 15.8712 117.924 15.5767L117.687 12.9811C117.311 8.86533 119.891 5.03252 123.82 3.86752C126.604 3.04322 129.471 2.92484 132.342 3.51673C132.647 3.5788 132.842 3.87763 132.781 4.18368C132.719 4.48828 132.423 4.68461 132.116 4.62398C129.426 4.07108 126.743 4.18079 124.139 4.95168C120.723 5.96366 118.482 9.29842 118.808 12.8786L119.045 15.4742C119.074 15.7846 118.845 16.0589 118.536 16.0877C118.519 16.0892 118.502 16.0892 118.485 16.0892L118.483 16.0906Z" fill="#BDD0FB"/>
<path d="M84.9423 45.7034V34.9066C84.9423 31.1792 88.0192 28.1952 91.7287 28.3223L165.866 30.8731C169.156 30.9858 171.821 33.5944 172.018 36.893L172.638 47.2669L84.9423 45.7034Z" fill="url(#paint12_linear_312_1132)"/>
<path d="M112.585 32.3906H109.398C109.087 32.3906 108.835 32.138 108.835 31.8262C108.835 31.5143 109.087 31.2617 109.398 31.2617H112.585C112.896 31.2617 113.147 31.5143 113.147 31.8262C113.147 32.138 112.896 32.3906 112.585 32.3906Z" fill="#BDD0FB"/>
<path d="M88.9551 42.3146C88.6446 42.3146 88.3929 42.0619 88.3929 41.7501V37.3832C88.3929 34.008 91.1276 31.2637 94.4878 31.2637H106.209C106.519 31.2637 106.771 31.5163 106.771 31.8281C106.771 32.14 106.519 32.3926 106.209 32.3926H94.4878C91.7473 32.3926 89.5173 34.6316 89.5173 37.3832V41.7501C89.5173 42.0619 89.2657 42.3146 88.9551 42.3146Z" fill="#BDD0FB"/>
<path d="M54.734 48.4291C54.9123 44.6901 57.9835 41.7509 61.7117 41.7509L191.355 41.748C196.016 41.748 200.002 45.116 200.797 49.7284L200.906 50.365C201.778 55.4162 197.904 60.0372 192.797 60.0372H59.7908C56.7355 60.0372 54.2998 57.4719 54.4465 54.4071L54.7326 48.4306L54.734 48.4291Z" fill="url(#paint13_linear_312_1132)"/>
<g opacity="0.3">
<path d="M245.622 45.5211C245.446 44.8181 245.825 44.0818 246.518 43.8292C248.032 43.2748 249.593 42.7782 251.156 42.3524C251.916 42.1459 252.7 42.5963 252.907 43.36C252.91 43.3687 252.911 43.3788 252.914 43.3874C253.103 44.1424 252.655 44.9133 251.904 45.1183C250.418 45.5225 248.934 45.9946 247.497 46.5215C246.756 46.7929 245.937 46.4104 245.666 45.6669C245.649 45.6193 245.635 45.5702 245.622 45.5225V45.5211ZM257.704 42.579C257.691 42.5241 257.679 42.4693 257.672 42.4115C257.571 41.6262 258.123 40.9087 258.906 40.8077C260.512 40.6012 262.142 40.4612 263.751 40.3919C264.539 40.3587 265.202 40.9694 265.238 41.7619C265.271 42.553 264.66 43.22 263.873 43.2546C262.343 43.3196 260.795 43.4538 259.268 43.6502C258.543 43.744 257.876 43.2734 257.702 42.579H257.704ZM270.129 42.3798C270.09 42.2253 270.077 42.0607 270.093 41.8933C270.169 41.1065 270.867 40.5291 271.652 40.6056C273.259 40.7615 274.881 40.991 276.47 41.2855C277.245 41.4299 277.757 42.1777 277.614 42.9543C277.47 43.7324 276.726 44.2464 275.952 44.1035C274.442 43.8234 272.904 43.6054 271.377 43.4567C270.76 43.3961 270.273 42.95 270.13 42.3783L270.129 42.3798ZM282.29 44.9768C282.227 44.7213 282.232 44.4442 282.322 44.1756C282.572 43.425 283.38 43.0193 284.127 43.2705C285.66 43.7844 287.19 44.372 288.674 45.0158C289.397 45.3305 289.729 46.1722 289.417 46.8997C289.105 47.6259 288.264 47.9608 287.541 47.6461C286.132 47.0354 284.68 46.4768 283.222 45.9888C282.741 45.8271 282.404 45.4359 282.29 44.9768ZM293.568 50.2316C293.479 49.8736 293.526 49.4795 293.733 49.1388C294.143 48.4617 295.02 48.2481 295.693 48.6581C297.071 49.4997 298.432 50.4106 299.739 51.3692C300.376 51.8355 300.515 52.732 300.051 53.3715C299.587 54.011 298.694 54.151 298.057 53.6833C296.815 52.7724 295.521 51.9062 294.211 51.1065C293.877 50.9029 293.656 50.5824 293.568 50.2302V50.2316ZM303.407 57.8597C303.29 57.3948 303.41 56.8838 303.765 56.5142C304.313 55.9455 305.216 55.931 305.782 56.481C306.942 57.6085 308.07 58.8009 309.131 60.0237C309.648 60.6213 309.587 61.525 308.991 62.0447C308.397 62.5645 307.496 62.5024 306.978 61.9062C305.969 60.744 304.899 59.6108 303.797 58.5396C303.598 58.3462 303.467 58.1094 303.405 57.8597H303.407ZM319.405 107.96C319.358 107.768 319.349 107.563 319.387 107.356C319.663 105.841 319.877 104.295 320.022 102.759C320.097 101.971 320.793 101.393 321.578 101.469C322.363 101.544 322.938 102.242 322.863 103.03C322.709 104.649 322.485 106.277 322.195 107.872C322.052 108.651 321.309 109.166 320.534 109.023C319.966 108.919 319.538 108.489 319.407 107.96H319.405ZM311.312 67.4814C311.168 66.9054 311.394 66.276 311.917 65.9324C312.577 65.5008 313.461 65.6884 313.891 66.3511C314.773 67.7095 315.607 69.1243 316.369 70.5534C316.737 71.2521 316.479 72.1197 315.785 72.4936C315.09 72.8675 314.225 72.6048 313.853 71.9061C313.129 70.5477 312.337 69.2051 311.5 67.9159C311.411 67.7788 311.348 67.6315 311.31 67.4814H311.312ZM320.251 95.5078C320.228 95.4154 320.213 95.3201 320.209 95.222C320.14 93.6831 320.005 92.1269 319.806 90.5966C319.704 89.8113 320.256 89.0924 321.037 88.9913C321.818 88.8888 322.538 89.4417 322.636 90.2271C322.844 91.8367 322.987 93.4752 323.06 95.0935C323.095 95.8846 322.485 96.5544 321.699 96.5891C321.01 96.6208 320.412 96.1545 320.251 95.5078ZM316.879 78.6348C316.704 77.9332 317.08 77.1984 317.772 76.9429C318.512 76.67 319.332 77.0512 319.604 77.7946C320.16 79.3162 320.658 80.8811 321.083 82.4474C321.086 82.4575 321.089 82.4676 321.092 82.4763C321.28 83.2298 320.833 84.0007 320.084 84.2057C319.323 84.4136 318.538 83.9646 318.331 83.201C317.927 81.7126 317.454 80.2257 316.925 78.7806C316.908 78.7315 316.892 78.6824 316.88 78.6334L316.879 78.6348Z" fill="#91B3FA"/>
<path d="M316.718 117.649C316.65 117.375 316.66 117.079 316.768 116.795C317.03 116.105 317.28 115.396 317.514 114.691C317.763 113.941 318.571 113.535 319.319 113.785C320.067 114.034 320.472 114.846 320.222 115.596C319.976 116.338 319.713 117.082 319.438 117.809C319.159 118.549 318.335 118.922 317.598 118.641C317.143 118.468 316.829 118.088 316.719 117.648L316.718 117.649Z" fill="#91B3FA"/>
</g>
<g opacity="0.3">
<path d="M286.638 149.209C286.471 148.537 286.808 147.826 287.462 147.544C288.138 147.254 288.821 146.944 289.488 146.625C290.199 146.284 291.051 146.586 291.39 147.3C291.731 148.018 291.427 148.869 290.717 149.21C290.014 149.546 289.296 149.873 288.583 150.179C287.859 150.491 287.02 150.153 286.71 149.425C286.68 149.354 286.655 149.281 286.638 149.209Z" fill="#91B3FA"/>
<path d="M210.839 111.531C210.679 110.892 210.529 110.247 210.391 109.597C210.226 108.823 210.716 108.061 211.487 107.895C212.258 107.729 213.02 108.224 213.182 108.995C213.503 110.495 213.884 111.978 214.32 113.418C214.547 114.176 214.123 114.976 213.368 115.205C212.613 115.435 211.816 115.008 211.588 114.25C211.319 113.358 211.066 112.444 210.839 111.531ZM209.315 102.11C209.296 102.032 209.281 101.952 209.276 101.869C209.155 100.276 209.099 98.6587 209.112 97.0635C209.118 96.2724 209.762 95.6358 210.55 95.6416C211.338 95.6473 211.974 96.2955 211.966 97.0852C211.954 98.5995 212.006 100.136 212.121 101.65C212.181 102.438 211.592 103.127 210.807 103.187C210.104 103.241 209.48 102.773 209.315 102.109V102.11ZM214.259 121.296C214.095 120.641 214.413 119.941 215.047 119.647C215.763 119.317 216.61 119.632 216.941 120.351C217.57 121.726 218.269 123.092 219.015 124.413C219.404 125.101 219.163 125.976 218.479 126.366C217.793 126.756 216.922 126.515 216.534 125.828C215.747 124.437 215.013 122.998 214.35 121.55C214.312 121.468 214.282 121.383 214.262 121.298L214.259 121.296ZM209.733 89.831C209.688 89.6549 209.678 89.4672 209.706 89.2752C209.936 87.6944 210.236 86.105 210.598 84.5517C210.778 83.7808 211.546 83.303 212.312 83.4834C213.08 83.6639 213.556 84.4333 213.376 85.2042C213.033 86.6796 212.747 88.1896 212.528 89.6895C212.414 90.472 211.69 91.0148 210.909 90.8993C210.32 90.8127 209.867 90.3753 209.731 89.8296L209.733 89.831ZM220.571 131.809C220.437 131.271 220.621 130.681 221.089 130.322C221.714 129.841 222.61 129.961 223.09 130.589C224.006 131.79 224.987 132.969 226.003 134.094C226.534 134.68 226.49 135.585 225.907 136.118C225.323 136.649 224.421 136.606 223.891 136.021C222.82 134.837 221.789 133.597 220.824 132.331C220.702 132.171 220.619 131.993 220.572 131.809H220.571ZM229.028 140.677C228.92 140.246 229.014 139.773 229.317 139.408C229.823 138.801 230.723 138.721 231.327 139.229C232.486 140.203 233.7 141.14 234.933 142.012C235.579 142.467 235.733 143.36 235.278 144.009C234.824 144.655 233.934 144.81 233.29 144.355C231.991 143.437 230.715 142.451 229.495 141.426C229.255 141.224 229.099 140.96 229.028 140.677ZM239.209 147.483C239.127 147.157 239.16 146.8 239.327 146.477C239.689 145.774 240.551 145.5 241.251 145.864C242.594 146.562 243.981 147.21 245.375 147.792C246.102 148.095 246.447 148.934 246.144 149.666C245.84 150.397 245.006 150.743 244.277 150.438C242.812 149.826 241.352 149.143 239.938 148.409C239.56 148.212 239.306 147.869 239.209 147.483ZM250.625 151.898C250.569 151.671 250.566 151.429 250.63 151.186C250.83 150.421 251.61 149.963 252.372 150.166C253.835 150.552 255.33 150.88 256.816 151.14C257.593 151.276 258.112 152.019 257.977 152.797C257.842 153.577 257.103 154.099 256.326 153.962C254.76 153.688 253.186 153.343 251.646 152.936C251.124 152.797 250.748 152.387 250.624 151.896L250.625 151.898ZM262.733 153.689C262.701 153.562 262.687 153.428 262.691 153.291C262.719 152.5 263.38 151.882 264.167 151.909C265.673 151.963 267.203 151.951 268.713 151.876C269.501 151.837 270.169 152.449 270.208 153.236C270.247 154.026 269.64 154.699 268.854 154.738C267.265 154.817 265.655 154.828 264.067 154.772C263.417 154.749 262.883 154.293 262.733 153.689ZM274.928 152.767C274.921 152.738 274.916 152.709 274.91 152.68C274.765 151.902 275.276 151.154 276.051 151.009C277.146 150.804 278.245 150.563 279.322 150.291C279.712 150.193 280.1 150.09 280.486 149.985C281.246 149.776 282.031 150.226 282.238 150.988C282.464 151.756 281.998 152.539 281.239 152.748C280.833 152.859 280.425 152.968 280.015 153.07C278.882 153.355 277.725 153.609 276.575 153.824C275.83 153.964 275.111 153.493 274.93 152.764L274.928 152.767Z" fill="#91B3FA"/>
<path d="M212.849 77.9151C212.78 77.6394 212.791 77.3391 212.9 77.0533C213.178 76.3286 213.476 75.5981 213.786 74.8777C214.1 74.1516 214.939 73.8181 215.662 74.1314C216.386 74.4461 216.719 75.2891 216.406 76.0153C216.111 76.6981 215.828 77.3939 215.565 78.0811C215.283 78.8188 214.456 79.1884 213.721 78.904C213.27 78.7293 212.958 78.3511 212.849 77.9137V77.9151Z" fill="#91B3FA"/>
</g>
<path d="M229.372 75.7556C229.202 75.9851 229.195 76.2969 229.355 76.5323L233.922 83.2696C232.408 86.7588 231.438 90.5166 231.103 94.4187L223.894 98.1548C223.641 98.2861 223.498 98.5633 223.54 98.8463L224.942 108.52C224.984 108.803 225.198 109.028 225.477 109.082L233.447 110.6C234.874 114.245 236.87 117.569 239.311 120.48L236.844 128.246C236.758 128.518 236.853 128.814 237.081 128.986L244.886 134.831C245.114 135.002 245.425 135.009 245.659 134.849L252.369 130.262C255.845 131.782 259.587 132.757 263.474 133.092L267.195 140.33C267.325 140.584 267.602 140.727 267.883 140.685L277.519 139.278C277.801 139.237 278.026 139.021 278.079 138.739L279.591 130.737C283.222 129.304 286.532 127.3 289.432 124.849L297.165 127.326C297.436 127.413 297.732 127.317 297.903 127.088L303.725 119.252C303.894 119.022 303.902 118.71 303.742 118.475L299.174 111.738C300.688 108.249 301.659 104.491 301.994 100.589L309.203 96.8526C309.456 96.7212 309.598 96.4441 309.556 96.1611L308.155 86.4874C308.114 86.2045 307.899 85.9793 307.62 85.9259L299.65 84.4072C298.222 80.7621 296.227 77.4388 293.785 74.5271L296.252 66.7633C296.339 66.4904 296.244 66.1931 296.017 66.0227L288.212 60.1775C287.984 60.0072 287.673 59.9999 287.439 60.1602L280.729 64.7466C277.253 63.2264 273.511 62.252 269.624 61.9171L265.903 54.6788C265.773 54.4247 265.497 54.2818 265.215 54.3236L255.58 55.7312C255.298 55.773 255.074 55.9881 255.021 56.2682L253.508 64.2702C249.878 65.7037 246.568 67.7074 243.668 70.1587L235.935 67.6814C235.664 67.5948 235.369 67.6901 235.198 67.9182L229.376 75.7541L229.372 75.7556Z" fill="#91B3FA"/>
<path d="M257.052 99.8859C255.893 95.2389 258.274 90.3046 262.812 88.4221C267.8 86.3534 273.534 88.7455 275.594 93.7534C276.593 96.1801 276.589 98.8508 275.587 101.275C274.585 103.698 272.701 105.585 270.284 106.587C265.297 108.656 259.563 106.264 257.502 101.256C257.317 100.804 257.167 100.346 257.052 99.8859ZM273.833 95.6893C273.744 95.3298 273.627 94.9761 273.485 94.6282C271.905 90.7882 267.508 88.9548 263.685 90.5413C259.86 92.1279 258.033 96.541 259.614 100.381C261.195 104.221 265.591 106.054 269.414 104.468C271.268 103.7 272.711 102.253 273.479 100.394C274.105 98.884 274.222 97.2469 273.833 95.6893Z" fill="url(#paint14_linear_312_1132)"/>
<path d="M243.389 103.528C243.19 102.73 243.029 101.917 242.91 101.093C242.873 100.833 242.84 100.573 242.809 100.312C242.666 99.0255 242.622 97.7291 242.683 96.4443C242.683 96.4269 242.684 96.4096 242.686 96.3923C242.689 96.3432 242.691 96.2927 242.694 96.2436C242.7 96.1469 242.706 96.0501 242.712 95.9534C242.729 95.6993 242.909 95.4958 243.142 95.4366C243.198 95.4222 243.258 95.4164 243.32 95.4207C243.635 95.4424 243.87 95.7167 243.85 96.0314C243.74 97.6569 243.804 99.3041 244.04 100.928C245.208 108.999 250.44 115.488 257.348 118.612C261.192 120.351 265.552 121.046 270.024 120.392C270.808 120.278 271.581 120.125 272.339 119.933C277.44 118.65 281.91 115.669 285.098 111.378C288.76 106.451 290.291 100.387 289.41 94.3034C287.588 81.7396 275.933 73.0129 263.426 74.8391C262.655 74.9517 261.892 75.1033 261.141 75.2924C257.888 76.1109 254.847 77.6354 252.246 79.7676C252.178 79.8224 252.103 79.86 252.024 79.8787C251.817 79.9307 251.587 79.8629 251.443 79.6853C251.245 79.4399 251.279 79.079 251.525 78.8783C254.257 76.6407 257.448 75.0383 260.865 74.1793C261.653 73.9801 262.454 73.8213 263.263 73.7029C276.396 71.7844 288.632 80.9557 290.543 94.1359C291.469 100.522 289.86 106.889 286.017 112.063C282.671 116.567 277.978 119.697 272.622 121.044C271.826 121.244 271.015 121.404 270.192 121.524C263.83 122.452 257.489 120.84 252.338 116.98C247.852 113.619 244.735 108.906 243.392 103.527L243.389 103.528Z" fill="url(#paint15_linear_312_1132)"/>
<g opacity="0.3">
<path d="M197.313 7.26478C197.221 6.89377 197.377 6.491 197.723 6.28745C198.369 5.90634 199.034 5.5411 199.701 5.20041C200.136 4.97809 200.665 5.15132 200.886 5.5873C201.109 6.02327 200.934 6.55596 200.501 6.77684C199.865 7.10165 199.231 7.451 198.615 7.81335C198.195 8.06021 197.655 7.92018 197.408 7.49865C197.365 7.42358 197.333 7.34562 197.313 7.26478Z" fill="#91B3FA"/>
<path d="M203.451 4.37239C203.343 3.93786 203.578 3.48168 204.006 3.32577C205.218 2.88546 206.466 2.50291 207.714 2.18964C207.977 2.12323 208.242 2.05972 208.508 1.99909C208.982 1.89082 209.444 2.21852 209.563 2.66459C209.671 3.14099 209.375 3.61594 208.901 3.72421C208.646 3.78195 208.393 3.84259 208.141 3.90611C206.949 4.20638 205.76 4.57017 204.604 4.99026C204.146 5.15628 203.641 4.91952 203.476 4.45901C203.466 4.43014 203.457 4.40126 203.45 4.37239H203.451ZM212.373 2.32967C212.363 2.28925 212.354 2.24739 212.35 2.20408C212.301 1.71758 212.653 1.28305 213.136 1.23252C214.691 1.07228 216.268 1.00732 217.823 1.03908C218.311 1.04918 218.696 1.45628 218.686 1.94134C218.676 2.43073 218.274 2.81762 217.788 2.80751C216.302 2.77719 214.798 2.83927 213.316 2.99229C212.875 3.03704 212.476 2.74832 212.371 2.32823L212.373 2.32967ZM221.522 2.52023C221.494 2.41196 221.487 2.29503 221.504 2.17809C221.575 1.69448 222.022 1.35956 222.504 1.4303C224.046 1.65695 225.592 1.98321 227.097 2.40041C227.567 2.53034 227.842 3.01683 227.713 3.4889C227.583 3.95952 227.097 4.23669 226.629 4.10677C225.194 3.70977 223.72 3.39795 222.248 3.18285C221.884 3.12944 221.605 2.85948 221.52 2.52168L221.522 2.52023ZM230.344 4.96283C230.299 4.78527 230.309 4.59182 230.384 4.40993C230.571 3.95807 231.087 3.74297 231.536 3.93064C232.979 4.53119 234.397 5.22702 235.753 5.99935C236.176 6.24043 236.324 6.78179 236.084 7.20621C235.843 7.63064 235.306 7.78078 234.882 7.53969C233.59 6.80345 232.237 6.13938 230.861 5.56771C230.593 5.45655 230.409 5.22701 230.344 4.96427V4.96283ZM238.305 9.49579C238.243 9.24749 238.289 8.97464 238.452 8.75233C238.742 8.35966 239.293 8.27883 239.684 8.56899C240.936 9.50301 242.144 10.5236 243.271 11.602C243.625 11.9384 243.638 12.4985 243.301 12.8536C242.965 13.2073 242.407 13.2218 242.055 12.884C240.978 11.8547 239.826 10.8817 238.631 9.99095C238.462 9.86391 238.35 9.68779 238.302 9.49579H238.305ZM244.927 15.8304C244.847 15.5085 244.952 15.1548 245.224 14.931C245.6 14.6206 246.155 14.6769 246.463 15.0537C247.452 16.2649 248.375 17.5497 249.205 18.8735C249.464 19.2893 249.34 19.8335 248.929 20.0948C248.518 20.3561 247.973 20.232 247.714 19.8177C246.922 18.5559 246.042 17.3317 245.1 16.1769C245.014 16.0729 244.958 15.9545 244.926 15.8304H244.927ZM249.806 23.5956C249.705 23.1928 249.899 22.7626 250.286 22.5807C250.728 22.3729 251.252 22.5634 251.459 23.0066C252.119 24.4199 252.7 25.8938 253.186 27.3865C253.33 27.8543 253.084 28.3509 252.621 28.5025C252.158 28.654 251.661 28.4 251.51 27.9351C251.048 26.5103 250.495 25.1056 249.865 23.7573C249.84 23.7039 249.822 23.6505 249.807 23.5956H249.806ZM253.238 36.8957C253.225 36.8466 253.218 36.7946 253.213 36.7412C253.124 35.4535 252.963 34.1499 252.735 32.8636C252.702 32.6687 252.666 32.4767 252.628 32.2876C252.535 31.8084 252.845 31.3435 253.324 31.2497C253.803 31.1544 254.28 31.4677 254.359 31.9469C254.398 32.1505 254.437 32.3526 254.472 32.5576C254.71 33.9016 254.878 35.2687 254.972 36.6185C255.006 37.1064 254.64 37.5294 254.154 37.5626C253.721 37.5929 253.34 37.3042 253.238 36.8957Z" fill="#91B3FA"/>
</g>
<g opacity="0.3">
<path d="M180.199 49.0468C180.083 48.5776 180.363 48.1012 180.829 47.977C181.299 47.8514 181.782 48.1344 181.906 48.6065C182.28 50.0284 182.744 51.4403 183.285 52.8016C183.46 53.2549 183.246 53.7703 182.793 53.9522C182.34 54.1326 181.828 53.9117 181.647 53.4585C181.08 52.0307 180.593 50.551 180.2 49.0598C180.2 49.0554 180.199 49.0511 180.198 49.0482L180.199 49.0468ZM179.311 44.6076C179.303 44.5759 179.298 44.5456 179.292 44.5138C179.08 42.9879 178.958 41.4331 178.929 39.8942C178.921 39.4048 179.308 39.0021 179.795 38.9934C180.282 38.9833 180.682 39.376 180.694 39.861C180.721 41.3306 180.836 42.8132 181.039 44.2698C181.106 44.7534 180.77 45.201 180.288 45.2688C179.837 45.3323 179.42 45.0407 179.312 44.6091L179.311 44.6076ZM183.533 57.4385C183.438 57.0574 183.605 56.646 183.965 56.4482C184.39 56.2129 184.927 56.3688 185.161 56.7975C185.868 58.0881 186.658 59.3455 187.512 60.5351C187.795 60.9335 187.706 61.485 187.31 61.7694C186.916 62.0552 186.364 61.9643 186.08 61.5673C185.185 60.32 184.357 59.0005 183.617 57.6478C183.579 57.58 183.552 57.5078 183.533 57.4356V57.4385ZM179.151 35.5677C179.126 35.4695 179.118 35.367 179.129 35.2602C179.289 33.7271 179.545 32.1882 179.89 30.6868C179.999 30.2104 180.472 29.9131 180.947 30.0228C181.42 30.1325 181.716 30.6074 181.607 31.0838C181.277 32.5159 181.034 33.9826 180.882 35.4436C180.832 35.9301 180.397 36.2823 179.913 36.2318C179.535 36.1913 179.237 35.9171 179.149 35.5663L179.151 35.5677ZM188.79 64.7706C188.714 64.4675 188.801 64.1311 189.047 63.9045C189.405 63.5724 189.963 63.5955 190.292 63.9536C191.284 65.0334 192.351 66.0627 193.467 67.014C193.839 67.3302 193.883 67.8889 193.568 68.2613C193.253 68.6338 192.696 68.6785 192.325 68.3624C191.157 67.3648 190.036 66.285 188.997 65.1546C188.893 65.042 188.824 64.9092 188.79 64.7706ZM195.645 70.6231C195.588 70.3906 195.624 70.1351 195.765 69.92C196.034 69.5129 196.58 69.4003 196.985 69.6688C198.209 70.4802 199.491 71.2236 200.798 71.879C201.234 72.097 201.411 72.6297 201.192 73.0657C200.975 73.5031 200.446 73.6806 200.01 73.4612C198.64 72.7741 197.296 71.9945 196.013 71.1442C195.822 71.0172 195.696 70.8281 195.644 70.6216L195.645 70.6231ZM203.701 74.6594C203.661 74.4963 203.665 74.3187 203.726 74.1484C203.888 73.6879 204.393 73.4468 204.852 73.6114C206.232 74.1051 207.655 74.518 209.082 74.8384C209.556 74.9453 209.855 75.4188 209.749 75.8952C209.642 76.3716 209.172 76.6718 208.696 76.565C207.201 76.2286 205.708 75.797 204.261 75.2787C203.972 75.1748 203.77 74.9366 203.701 74.6594Z" fill="#91B3FA"/>
<path d="M181.188 26.7189C181.147 26.5529 181.152 26.3738 181.216 26.2021C181.474 25.4903 181.755 24.783 182.048 24.1001C182.242 23.6526 182.76 23.4447 183.207 23.6396C183.653 23.8345 183.858 24.3542 183.666 24.8032C183.384 25.4543 183.118 26.1299 182.871 26.8084C182.704 27.2674 182.198 27.5042 181.74 27.3367C181.456 27.2313 181.256 26.9946 181.187 26.7189H181.188Z" fill="#91B3FA"/>
</g>
<path d="M192.41 24.6547C192.297 24.8077 192.292 25.017 192.399 25.1744L195.456 29.6828C194.442 32.0171 193.792 34.5319 193.569 37.1434L188.745 39.6438C188.576 39.7318 188.481 39.9166 188.508 40.1057L189.446 46.5789C189.473 46.768 189.617 46.9196 189.804 46.9542L195.136 47.9705C196.091 50.4103 197.427 52.6334 199.062 54.5823L197.41 59.7779C197.352 59.9598 197.415 60.159 197.568 60.2731L202.79 64.1853C202.942 64.2993 203.151 64.3036 203.307 64.1968L207.798 61.1277C210.123 62.1454 212.627 62.7979 215.228 63.0217L217.718 67.865C217.806 68.0354 217.99 68.1307 218.179 68.1032L224.626 67.162C224.814 67.1346 224.965 66.9902 225 66.8025L226.012 61.4482C228.442 60.4896 230.656 59.1485 232.597 57.5071L237.771 59.1658C237.953 59.2235 238.151 59.16 238.265 59.007L242.161 53.7638C242.275 53.6108 242.279 53.4014 242.173 53.2441L239.116 48.7357C240.129 46.4013 240.779 43.8865 241.002 41.275L245.826 38.7747C245.996 38.6866 246.091 38.5019 246.063 38.3127L245.126 31.8396C245.098 31.6504 244.955 31.4989 244.768 31.4642L239.435 30.4479C238.48 28.0082 237.145 25.785 235.51 23.8361L237.162 18.6406C237.219 18.4587 237.156 18.2594 237.004 18.1454L231.782 14.2332C231.629 14.1191 231.421 14.1148 231.264 14.2216L226.774 17.2908C224.449 16.273 221.944 15.6205 219.343 15.3968L216.853 10.5534C216.765 10.3831 216.581 10.2878 216.393 10.3152L209.946 11.2565C209.757 11.2839 209.606 11.4282 209.572 11.6159L208.56 16.9703C206.13 17.9289 203.916 19.27 201.975 20.9114L196.8 19.2541C196.619 19.1963 196.42 19.2599 196.307 19.4129L192.41 24.6561V24.6547Z" fill="#91B3FA"/>
<path d="M210.817 40.8206C210.472 39.4362 210.577 37.9825 211.132 36.6399C211.815 34.9884 213.097 33.7036 214.744 33.0208C218.14 31.6118 222.046 33.2402 223.449 36.6515C224.848 40.07 223.229 43.985 219.832 45.394C218.186 46.0768 216.374 46.0754 214.729 45.3897C213.084 44.704 211.805 43.4163 211.125 41.7633C210.998 41.4544 210.895 41.1397 210.816 40.8206H210.817ZM222.046 38.0142C221.989 37.7833 221.914 37.5537 221.82 37.3271C220.788 34.8181 217.914 33.6199 215.415 34.6564C214.204 35.1588 213.261 36.1043 212.759 37.3184C212.256 38.5339 212.256 39.8707 212.755 41.0877C213.255 42.3032 214.197 43.2502 215.406 43.7555C216.617 44.2608 217.95 44.2608 219.161 43.7584C221.434 42.8157 222.627 40.3428 222.046 38.0142Z" fill="url(#paint16_linear_312_1132)"/>
<path d="M201.302 43.3434C201.167 42.8006 201.057 42.2463 200.975 41.6804C200.813 40.5572 200.763 39.4168 200.829 38.2864C200.832 38.2359 200.836 38.1854 200.839 38.1348C200.865 37.7422 201.142 37.4275 201.503 37.3365C201.591 37.3149 201.683 37.3062 201.778 37.312C202.264 37.3452 202.627 37.7682 202.597 38.2547C202.525 39.3085 202.567 40.3754 202.719 41.4249C202.728 41.4826 202.737 41.5404 202.745 41.5981C203.129 44.0782 204.114 46.3692 205.592 48.3124C206.395 49.3676 207.343 50.319 208.423 51.1433C208.432 51.1505 208.441 51.1563 208.449 51.1635C208.476 51.1837 208.502 51.2039 208.53 51.2241C211.707 53.6032 215.617 54.5993 219.54 54.0262C220.048 53.9526 220.548 53.853 221.039 53.7303C224.341 52.8987 227.235 50.9686 229.299 48.1911C231.668 45.0007 232.659 41.0755 232.089 37.1373C231.517 33.202 229.455 29.7186 226.278 27.3395C223.1 24.9604 219.191 23.9643 215.269 24.5374C214.77 24.6096 214.275 24.7078 213.791 24.8305C211.683 25.3603 209.716 26.3477 208.032 27.7278C207.929 27.813 207.811 27.8707 207.69 27.901C207.369 27.9819 207.016 27.8765 206.793 27.6022C206.487 27.2225 206.541 26.6668 206.919 26.3564C208.804 24.8117 211.006 23.7073 213.362 23.114C213.907 22.9769 214.459 22.8672 215.017 22.7863C219.407 22.1453 223.78 23.2584 227.336 25.9218C230.89 28.5839 233.202 32.4744 233.838 36.8832C234.476 41.2892 233.368 45.6821 230.715 49.2507C228.407 52.3574 225.169 54.517 221.474 55.4467C220.925 55.5853 220.366 55.6965 219.799 55.7788C211.302 57.0188 203.349 51.5345 201.306 43.3449L201.302 43.3434Z" fill="url(#paint17_linear_312_1132)"/>
<path d="M317.51 271.128L129.419 182.697L116.351 210.439L304.189 300.807C308.179 302.727 312.955 301.49 315.539 297.884C318.192 294.179 320.957 288.259 321.972 279.086C322.34 275.751 320.538 272.551 317.512 271.128H317.51Z" fill="url(#paint18_linear_312_1132)"/>
<path d="M69.874 169.428L96.4603 175.353C96.075 179.069 94.3999 183.761 89.7645 188.881L68.7252 171.822C67.608 170.917 68.4721 169.117 69.8725 169.428H69.874Z" fill="url(#paint19_linear_312_1132)"/>
<path d="M129.419 182.697C128.92 200.829 116.351 210.439 116.351 210.439L89.7646 188.882C94.4001 183.761 96.0751 179.068 96.4605 175.354L129.418 182.697H129.419Z" fill="#0F97C7"/>
<path d="M314.247 279.707C314.482 279.73 314.717 279.604 314.823 279.376C314.957 279.088 314.833 278.744 314.544 278.61L134.551 194.425C134.262 194.291 133.919 194.415 133.787 194.705C133.652 194.994 133.777 195.338 134.066 195.472L314.06 279.656C314.12 279.685 314.183 279.701 314.247 279.708V279.707Z" fill="#7D97F4"/>
<path d="M309.948 290.672C310.183 290.695 310.419 290.569 310.524 290.341C310.659 290.052 310.534 289.709 310.245 289.575L130.252 205.39C129.963 205.256 129.622 205.38 129.488 205.67C129.353 205.959 129.478 206.302 129.767 206.437L309.761 290.621C309.821 290.65 309.884 290.666 309.948 290.673V290.672Z" fill="#7D97F4"/>
<path d="M228.646 307.414L242.411 310.87L238.969 336.786C238.969 336.786 244.131 341.968 245.852 348.881C247.573 355.791 249.159 384.809 249.159 384.809L252.426 386.791L252.822 388.447L243.319 401.277L244.894 391.066C245.145 389.445 244.712 386.158 244.847 386.088C239.685 372.266 228.641 333.331 228.641 333.331V307.416L228.646 307.414Z" fill="url(#paint20_linear_312_1132)"/>
<path d="M224.623 388.625C224.772 388.622 224.918 388.635 225.069 388.625C224.403 380.293 221.363 343.62 218.321 329.876C214.879 314.326 223.483 283.227 223.483 283.227L238.969 298.776L230.365 328.148C236.262 337.027 229.404 389.031 229.552 389.009L229.542 389.125L231.786 392.224L231.513 393.904L217.798 402.031L223.194 393.232C224.051 391.836 224.524 390.252 224.62 388.625H224.623Z" fill="url(#paint21_linear_312_1132)"/>
<path d="M242.042 214.262C242.042 214.262 272.195 248.383 242.042 265.878L238.969 263.645C238.969 263.645 253.94 249.252 238.969 231.633L242.042 214.262Z" fill="url(#paint22_linear_312_1132)"/>
<path d="M216.896 403.304H221.273C222.092 403.304 222.864 402.925 223.365 402.274C224.729 400.494 227.556 397.021 228.907 396.931C230.728 396.809 230.495 403.305 230.495 403.305H231.514L232.807 395.234C233.132 393.203 232.127 391.192 230.309 390.24C230.309 390.24 229.894 393.328 227.638 394.695C225.382 396.061 218.46 400.953 218.46 400.953C218.46 400.953 217.612 400.832 216.682 401.001C215.302 401.252 215.494 403.305 216.898 403.305L216.896 403.304Z" fill="url(#paint23_linear_312_1132)"/>
<path d="M242.981 402.803L247.015 401.1C247.77 400.781 248.336 400.133 248.545 399.337C249.116 397.166 250.38 392.864 251.59 392.253C253.221 391.432 255.514 397.51 255.514 397.51L256.454 397.113L254.528 389.17C254.043 387.172 252.339 385.708 250.298 385.539C250.298 385.539 251.107 388.548 249.556 390.686C248.004 392.822 243.513 400.027 243.513 400.027C243.513 400.027 242.684 400.245 241.891 400.763C240.715 401.531 241.685 403.349 242.979 402.803H242.981Z" fill="url(#paint24_linear_312_1132)"/>
<path d="M219.539 256.935C219.539 256.935 220.045 260.049 219.303 268.611C218.561 277.173 215.017 297.274 215.739 316.506C215.739 316.506 225.815 318.863 243.32 317.747C243.32 317.747 250.708 287.72 248.907 276.306C247.107 264.891 237.345 256.701 237.345 256.701L219.538 256.936L219.539 256.935Z" fill="#00469E"/>
<path d="M226.984 199.724L225.753 214.263H237.452L234.544 192.07L226.984 199.724Z" fill="url(#paint25_linear_312_1132)"/>
<path d="M240.919 212.253C236.881 212.029 227.853 211.615 221.457 211.966C218.089 212.151 215.268 214.576 214.58 217.89L213.02 225.396C212.439 228.192 212.525 231.085 213.273 233.841L219.539 256.934C219.539 256.934 225.112 260.297 237.346 256.699C237.346 256.699 248.09 230.974 243.692 214.518C243.35 213.241 242.234 212.327 240.919 212.255V212.253Z" fill="#0F97C7"/>
<path d="M214.886 216.543C213.162 221.102 211.606 225.88 209.934 230.357C209.085 232.597 208.222 234.793 207.299 236.811C206.832 237.816 206.32 238.738 205.85 239.576C205.378 240.404 204.847 241.093 204.571 241.41C204.517 241.458 204.699 241.493 204.76 241.497C204.796 241.501 203.595 241.695 203.226 241.757L201.785 241.748C199.72 241.641 197.382 241.276 195.037 240.819C190.307 239.934 185.388 238.689 180.339 237.749L180.3 237.742C179.334 237.562 178.405 238.203 178.225 239.173C178.107 239.812 178.347 240.438 178.799 240.84C180.835 242.64 182.993 244.119 185.233 245.558C186.36 246.25 187.506 246.928 188.672 247.579C189.861 248.187 191.053 248.8 192.29 249.368C194.781 250.458 197.356 251.462 200.323 252.108C201.102 252.239 201.871 252.376 202.673 252.484C203.574 252.516 204.39 252.596 205.372 252.539C205.894 252.487 206.419 252.424 206.941 252.347C207.22 252.298 207.424 252.292 207.762 252.199C208.12 252.09 208.478 251.969 208.83 251.836C209.566 251.571 210.042 251.25 210.64 250.915C211.138 250.586 211.591 250.243 212.029 249.89C213.651 248.503 214.657 247.127 215.545 245.806C216.429 244.485 217.13 243.163 217.76 241.867C219.023 239.277 220.009 236.712 220.81 234.127C222.432 228.951 223.53 223.862 223.995 218.457C224.216 215.869 222.307 213.589 219.729 213.365C217.595 213.181 215.671 214.462 214.946 216.378L214.885 216.544L214.886 216.543Z" fill="url(#paint26_linear_312_1132)"/>
<path d="M181.927 240.072L179.84 235.096L168.851 232.348C168.851 232.348 167.972 234.26 172.587 235.096C172.587 235.096 170.938 236.925 171.818 239.078C172.697 241.229 182.038 243.384 181.927 240.072Z" fill="url(#paint27_linear_312_1132)"/>
<path d="M222.031 182.932C221.612 183.179 218.321 194.836 221.079 199.723C223.836 204.61 232.26 199.135 234.544 192.069C236.827 185.002 233.159 176.342 222.031 182.932Z" fill="url(#paint28_linear_312_1132)"/>
<path d="M243.862 192.071C245.751 201.365 252.012 198.821 256.446 202.957C263.632 209.658 273.912 202.751 283.906 209.101C291.121 213.686 294.598 225.415 291.135 234.885C286.34 248.002 269.952 253.397 261.459 249.401C253.343 245.583 254.499 234.148 243.577 229.727C238.94 227.851 236.653 229.071 233.875 226.29C229.014 221.422 230.327 211.975 230.831 208.336C231.928 200.439 234.565 199.01 233.304 195.538C230.853 188.788 219.419 190.181 218.466 185.416C217.599 181.076 225.885 172.85 233.685 174.147C245.751 176.152 243.021 187.929 243.862 192.071Z" fill="url(#paint29_linear_312_1132)"/>
<path d="M287.531 232.663C287.675 232.663 287.803 232.566 287.839 232.42C289.384 225.98 288.683 220.699 285.754 216.722C280.894 210.123 271.451 209.469 271.356 209.464C271.208 209.439 271.032 209.586 271.021 209.761C271.011 209.936 271.141 210.086 271.317 210.096C271.409 210.102 280.568 210.74 285.249 217.102C288.059 220.92 288.723 226.023 287.225 232.27C287.184 232.44 287.288 232.612 287.458 232.652C287.482 232.658 287.508 232.661 287.532 232.661L287.531 232.663Z" fill="#91B3FA"/>
<path d="M256.598 238.558C256.611 238.558 256.624 238.557 256.638 238.554C256.722 238.532 256.773 238.444 256.752 238.361C255.246 232.563 252.607 228.537 248.904 226.393C246.211 224.834 243.689 224.688 241.464 224.56C239.319 224.436 237.465 224.329 235.974 222.998C232.892 220.245 233.07 213.629 236.505 203.33C236.532 203.246 236.488 203.157 236.406 203.129C236.322 203.102 236.233 203.146 236.206 203.229C232.728 213.659 232.58 220.389 235.766 223.234C237.339 224.639 239.242 224.75 241.447 224.877C243.636 225.004 246.118 225.147 248.746 226.669C252.372 228.768 254.963 232.729 256.446 238.442C256.464 238.512 256.529 238.56 256.598 238.56V238.558Z" fill="#91B3FA"/>
<path d="M239.392 189.763C239.409 189.763 239.425 189.76 239.442 189.754C239.526 189.726 239.569 189.635 239.541 189.553C238.345 185.98 234.899 186.511 231.247 187.074C228.936 187.431 226.547 187.799 224.519 187.197C223.007 186.747 222.108 186.05 221.849 185.123C221.405 183.546 222.959 181.788 222.975 181.771C223.034 181.706 223.028 181.605 222.964 181.547C222.899 181.488 222.798 181.493 222.741 181.558C222.672 181.635 221.056 183.463 221.544 185.208C221.835 186.246 222.807 187.017 224.43 187.5C226.526 188.124 228.951 187.75 231.296 187.388C234.961 186.823 238.131 186.332 239.242 189.654C239.264 189.721 239.326 189.763 239.392 189.763Z" fill="#91B3FA"/>
<defs>
<linearGradient id="paint0_linear_312_1132" x1="79.8884" y1="74.7246" x2="75.6837" y2="142.383" gradientUnits="userSpaceOnUse">
<stop stop-color="#09005D"/>
<stop offset="1" stop-color="#1A0F91"/>
</linearGradient>
<linearGradient id="paint1_linear_312_1132" x1="65.2919" y1="73.8178" x2="61.0871" y2="141.475" gradientUnits="userSpaceOnUse">
<stop stop-color="#09005D"/>
<stop offset="1" stop-color="#1A0F91"/>
</linearGradient>
<linearGradient id="paint2_linear_312_1132" x1="96.6979" y1="75.7687" x2="92.4931" y2="143.426" gradientUnits="userSpaceOnUse">
<stop stop-color="#09005D"/>
<stop offset="1" stop-color="#1A0F91"/>
</linearGradient>
<linearGradient id="paint3_linear_312_1132" x1="88.5398" y1="110.681" x2="82.6997" y2="117.465" gradientUnits="userSpaceOnUse">
<stop stop-color="#CB236D"/>
<stop offset="1" stop-color="#4C246D"/>
</linearGradient>
<linearGradient id="paint4_linear_312_1132" x1="69.0704" y1="99.1611" x2="80.1247" y2="64.0056" gradientUnits="userSpaceOnUse">
<stop stop-color="#FEBBBA"/>
<stop offset="1" stop-color="#FF928E"/>
</linearGradient>
<linearGradient id="paint5_linear_312_1132" x1="85.2758" y1="104.259" x2="96.33" y2="69.1032" gradientUnits="userSpaceOnUse">
<stop stop-color="#FEBBBA"/>
<stop offset="1" stop-color="#FF928E"/>
</linearGradient>
<linearGradient id="paint6_linear_312_1132" x1="77.9202" y1="135.649" x2="83.0185" y2="101.659" gradientUnits="userSpaceOnUse">
<stop stop-color="#FEBBBA"/>
<stop offset="1" stop-color="#FF928E"/>
</linearGradient>
<linearGradient id="paint7_linear_312_1132" x1="75.4702" y1="142.999" x2="77.9295" y2="126.603" gradientUnits="userSpaceOnUse">
<stop stop-color="#09005D"/>
<stop offset="1" stop-color="#1A0F91"/>
</linearGradient>
<linearGradient id="paint8_linear_312_1132" x1="76.4966" y1="101.498" x2="87.5509" y2="66.3422" gradientUnits="userSpaceOnUse">
<stop stop-color="#FEBBBA"/>
<stop offset="1" stop-color="#FF928E"/>
</linearGradient>
<linearGradient id="paint9_linear_312_1132" x1="65.2847" y1="73.0232" x2="109.959" y2="143.946" gradientUnits="userSpaceOnUse">
<stop stop-color="#09005D"/>
<stop offset="1" stop-color="#1A0F91"/>
</linearGradient>
<linearGradient id="paint10_linear_312_1132" x1="22.8616" y1="294.648" x2="113.791" y2="367.04" gradientUnits="userSpaceOnUse">
<stop stop-color="#4F52FF"/>
<stop offset="1" stop-color="#4042E2"/>
</linearGradient>
<linearGradient id="paint11_linear_312_1132" x1="118.24" y1="94.0096" x2="143.075" y2="-67.4897" gradientUnits="userSpaceOnUse">
<stop stop-color="#09005D"/>
<stop offset="1" stop-color="#1A0F91"/>
</linearGradient>
<linearGradient id="paint12_linear_312_1132" x1="132.479" y1="4.66281" x2="118.598" y2="139.986" gradientUnits="userSpaceOnUse">
<stop stop-color="#09005D"/>
<stop offset="1" stop-color="#1A0F91"/>
</linearGradient>
<linearGradient id="paint13_linear_312_1132" x1="161.049" y1="-10.7275" x2="95.3742" y2="109.378" gradientUnits="userSpaceOnUse">
<stop stop-color="#4F52FF"/>
<stop offset="1" stop-color="#4042E2"/>
</linearGradient>
<linearGradient id="paint14_linear_312_1132" x1="256.762" y1="97.5053" x2="276.342" y2="97.5053" gradientUnits="userSpaceOnUse">
<stop stop-color="#DAE3FE"/>
<stop offset="1" stop-color="#E9EFFD"/>
</linearGradient>
<linearGradient id="paint15_linear_312_1132" x1="242.657" y1="97.615" x2="290.794" y2="97.615" gradientUnits="userSpaceOnUse">
<stop stop-color="#DAE3FE"/>
<stop offset="1" stop-color="#E9EFFD"/>
</linearGradient>
<linearGradient id="paint16_linear_312_1132" x1="210.617" y1="39.2096" x2="223.953" y2="39.2096" gradientUnits="userSpaceOnUse">
<stop stop-color="#DAE3FE"/>
<stop offset="1" stop-color="#E9EFFD"/>
</linearGradient>
<linearGradient id="paint17_linear_312_1132" x1="200.801" y1="39.2796" x2="234.012" y2="39.2796" gradientUnits="userSpaceOnUse">
<stop stop-color="#DAE3FE"/>
<stop offset="1" stop-color="#E9EFFD"/>
</linearGradient>
<linearGradient id="paint18_linear_312_1132" x1="227.061" y1="238.746" x2="135.128" y2="282.118" gradientUnits="userSpaceOnUse">
<stop stop-color="#09005D"/>
<stop offset="1" stop-color="#1A0F91"/>
</linearGradient>
<linearGradient id="paint19_linear_312_1132" x1="112.646" y1="205.379" x2="78.4103" y2="169.436" gradientUnits="userSpaceOnUse">
<stop stop-color="#09005D"/>
<stop offset="1" stop-color="#1A0F91"/>
</linearGradient>
<linearGradient id="paint20_linear_312_1132" x1="206.59" y1="402.883" x2="256.156" y2="323.754" gradientUnits="userSpaceOnUse">
<stop stop-color="#FEBBBA"/>
<stop offset="1" stop-color="#FF928E"/>
</linearGradient>
<linearGradient id="paint21_linear_312_1132" x1="228.288" y1="303.007" x2="227.557" y2="404.145" gradientUnits="userSpaceOnUse">
<stop stop-color="#FEBBBA"/>
<stop offset="1" stop-color="#FF928E"/>
</linearGradient>
<linearGradient id="paint22_linear_312_1132" x1="255.444" y1="240.071" x2="238.969" y2="240.071" gradientUnits="userSpaceOnUse">
<stop stop-color="#FEBBBA"/>
<stop offset="1" stop-color="#FF928E"/>
</linearGradient>
<linearGradient id="paint23_linear_312_1132" x1="242.024" y1="371.288" x2="227.523" y2="395.731" gradientUnits="userSpaceOnUse">
<stop stop-color="#09005D"/>
<stop offset="1" stop-color="#1A0F91"/>
</linearGradient>
<linearGradient id="paint24_linear_312_1132" x1="253.789" y1="363.469" x2="249.934" y2="391.653" gradientUnits="userSpaceOnUse">
<stop stop-color="#09005D"/>
<stop offset="1" stop-color="#1A0F91"/>
</linearGradient>
<linearGradient id="paint25_linear_312_1132" x1="237.452" y1="203.167" x2="225.753" y2="203.167" gradientUnits="userSpaceOnUse">
<stop stop-color="#FEBBBA"/>
<stop offset="1" stop-color="#FF928E"/>
</linearGradient>
<linearGradient id="paint26_linear_312_1132" x1="168.806" y1="209.863" x2="270.2" y2="267.715" gradientUnits="userSpaceOnUse">
<stop stop-color="#FEBBBA"/>
<stop offset="1" stop-color="#FF928E"/>
</linearGradient>
<linearGradient id="paint27_linear_312_1132" x1="158.752" y1="227.487" x2="260.145" y2="285.339" gradientUnits="userSpaceOnUse">
<stop stop-color="#FEBBBA"/>
<stop offset="1" stop-color="#FF928E"/>
</linearGradient>
<linearGradient id="paint28_linear_312_1132" x1="240.071" y1="168.958" x2="199.981" y2="232.841" gradientUnits="userSpaceOnUse">
<stop stop-color="#FEBBBA"/>
<stop offset="1" stop-color="#FF928E"/>
</linearGradient>
<linearGradient id="paint29_linear_312_1132" x1="250.571" y1="176.495" x2="267.127" y2="272.521" gradientUnits="userSpaceOnUse">
<stop stop-color="#09005D"/>
<stop offset="1" stop-color="#1A0F91"/>
</linearGradient>
</defs>
</svg>
