<svg width="599" height="400" viewBox="0 0 599 400" fill="none" xmlns="http://www.w3.org/2000/svg">
<g clip-path="url(#clip0_488_2398)">
<path d="M600 0H0V400H600V0Z" fill="white"/>
<path d="M237.234 281.595V353.714C237.234 356.724 240.019 359.006 243.03 359.006H382.245C385.256 359.006 387.35 356.724 387.35 353.714V281.595H237.234Z" fill="#00AEEB"/>
<path d="M392.897 274.795H232.732C230.886 274.795 229.389 276.292 229.389 278.138V278.252C229.389 280.098 230.886 281.595 232.732 281.595H392.897C394.743 281.595 396.24 280.098 396.24 278.252V278.138C396.24 276.292 394.743 274.795 392.897 274.795Z" fill="#007BA7"/>
<path d="M94.1199 305.132V355.372C94.1199 357.466 96.9053 359.006 99.9162 359.006H239.131C242.142 359.006 244.236 357.466 244.236 355.372V305.132H94.1199Z" fill="#0F97C7"/>
<path d="M249.259 298.855H89.0945C87.2482 298.855 85.7515 300.352 85.7515 302.198V302.312C85.7515 304.159 87.2482 305.655 89.0945 305.655H249.259C251.106 305.655 252.602 304.159 252.602 302.312V302.198C252.602 300.352 251.106 298.855 249.259 298.855Z" fill="#007BA7"/>
<path d="M381.348 320.301V356.439C381.348 357.944 384.133 359.006 387.144 359.006H526.359C529.37 359.006 531.462 357.944 531.462 356.439V320.301H381.348Z" fill="#0F97C7"/>
<path d="M542.487 314.548H382.323C380.476 314.548 378.979 316.045 378.979 317.891V318.005C378.979 319.851 380.476 321.348 382.323 321.348H542.487C544.334 321.348 545.83 319.851 545.83 318.005V317.891C545.83 316.045 544.334 314.548 542.487 314.548Z" fill="#007BA7"/>
<path d="M286.179 274.744C286.179 274.65 286.184 274.553 286.209 274.456C287.641 268.776 293.501 265.864 293.501 265.864L296.318 266.085C297.937 271.091 298.982 273.535 298.722 274.904C298.715 274.943 298.703 274.979 298.693 275.016C296.369 275.224 291.583 275.36 286.179 274.744Z" fill="url(#paint0_linear_488_2398)"/>
<path d="M298.693 275.016C298.567 275.471 298.23 275.828 297.799 275.92C294.492 276.616 289.236 276.056 287.03 275.767C286.543 275.704 286.187 275.253 286.179 274.744C291.586 275.36 296.369 275.224 298.693 275.016Z" fill="#7D97F4"/>
<path d="M291.181 261.479L292.415 267.418C292.504 267.854 292.839 268.179 293.244 268.218C293.741 268.264 294.446 268.291 295.154 268.186C295.792 268.092 296.233 267.447 296.121 266.751L295.263 261.479H291.178H291.181Z" fill="url(#paint1_linear_488_2398)"/>
<path d="M322.638 274.965C319.629 274.88 318.07 274.526 317.265 274.196C317.265 274.494 317.265 274.8 317.275 275.115C317.285 275.452 317.534 275.721 317.842 275.719L334.368 275.612C334.897 275.61 335.205 274.996 334.974 274.514C332.807 274.693 327.29 275.093 322.638 274.962V274.965Z" fill="#7D97F4"/>
<path d="M334.974 274.516C334.955 274.475 334.938 274.431 334.909 274.392C333.45 272.353 329.733 268.293 322.388 266.53L318.865 266.419C318.865 266.419 317.297 269.146 317.268 274.198C318.073 274.528 319.629 274.882 322.64 274.967C327.292 275.098 332.81 274.698 334.977 274.518L334.974 274.516Z" fill="url(#paint2_linear_488_2398)"/>
<path d="M318.211 261.081C318.25 261.343 318.732 265.335 318.919 266.882C318.962 267.251 319.229 267.534 319.566 267.575C320.165 267.648 321.137 267.711 321.985 267.539C322.444 267.445 322.776 267.006 322.776 266.494V260.228L318.211 261.081Z" fill="url(#paint3_linear_488_2398)"/>
<path d="M293.535 183.483C293.535 183.483 287.896 233.602 291.028 264.923C291.028 264.923 294.788 264.923 296.667 264.298C296.667 264.298 302.526 215.297 304.422 201.275C304.492 200.746 305.249 200.722 305.353 201.246C307.692 213.042 316.878 259.304 317.969 263.673C317.969 263.673 321.101 264.926 323.607 263.673C323.607 263.673 318.597 196.64 314.837 184.737L293.537 183.483H293.535Z" fill="url(#paint4_linear_488_2398)"/>
<path d="M282.257 125.222C282.257 125.222 306.063 121.462 324.856 126.475L323.603 145.896C323.603 145.896 318.592 172.834 314.832 184.737C314.832 184.737 300.422 187.244 293.532 183.484C293.532 183.484 287.893 149.653 284.761 144.642C284.761 144.642 281.629 131.486 282.255 125.222H282.257Z" fill="#4D4FFA"/>
<path d="M298.795 108.104L296.424 124.143C296.424 124.143 303.05 127.188 307.69 124.012L306.691 112.693L298.795 108.104Z" fill="url(#paint5_linear_488_2398)"/>
<path d="M309.006 97.6603C309.081 97.796 310.509 105.883 311.389 110.889C311.753 112.957 310.233 114.88 308.136 115.003L306.216 115.117C302.689 115.326 299.583 112.814 299.047 109.323L297.658 100.254C297.658 100.254 307.19 94.373 309.004 97.6603H309.006Z" fill="url(#paint6_linear_488_2398)"/>
<path d="M295.593 100.276C294.856 99.3596 294.216 97.8808 295.782 96.3244C297.37 94.7487 299.169 95.1414 300.31 95.6699C300.815 95.9026 301.438 95.8008 301.799 95.3741C301.959 95.185 302.196 95.0566 302.548 95.0953C303.212 95.1705 303.804 94.7317 303.884 94.0675C304.02 92.9305 304.626 91.5923 306.635 91.202C310.323 90.4893 312.163 94.179 312.097 96.7753C312.032 99.3693 307.988 99.9147 305.695 99.4832C304.01 99.1656 302.553 100.647 301.898 101.457C301.661 101.75 301.571 102.135 301.658 102.501L302.243 105.008C301.838 105.786 301.443 106.584 300.875 107.248C300.468 107.726 300.02 107.99 299.544 108.104C298.856 106.824 296.933 106.606 296.039 106.579C295.697 106.567 295.377 106.417 295.154 106.16C294.48 105.386 293.423 103.66 295.445 101.968C295.947 101.546 296.005 100.79 295.593 100.278V100.276Z" fill="url(#paint7_linear_488_2398)"/>
<path d="M300.209 110.785C300.209 110.785 300.129 106.259 298.298 105.835C296.468 105.41 294.49 106.734 296.058 109.442C298.007 112.812 300.211 110.785 300.211 110.785H300.209Z" fill="url(#paint8_linear_488_2398)"/>
<path d="M292.972 146.853C292.972 146.853 239.181 132.21 265.891 94.5571L267.697 97.1147C267.697 97.1147 259.651 122.618 286.308 125.042C286.308 125.042 293.212 142.848 292.972 146.853Z" fill="#4D4FFA"/>
<path d="M265.709 94.7489C265.709 94.7489 265.103 87.4786 268.739 86.8725C272.373 86.2664 273.585 89.9028 274.191 91.7186C274.798 93.5367 268.739 97.1707 267.527 97.1707C266.315 97.1707 265.709 94.7464 265.709 94.7464V94.7489Z" fill="url(#paint9_linear_488_2398)"/>
<path d="M312.378 148.671C312.378 148.671 366.17 134.029 339.459 96.3755L337.653 98.9331C337.653 98.9331 345.699 124.436 319.042 126.86C319.042 126.86 312.138 144.666 312.378 148.671Z" fill="#4D4FFA"/>
<path d="M339.641 96.5672C339.641 96.5672 340.247 89.2969 336.611 88.6909C332.977 88.0848 331.765 91.7212 331.159 93.5369C330.553 95.3551 336.611 98.989 337.823 98.989C339.035 98.989 339.641 96.5648 339.641 96.5648V96.5672Z" fill="url(#paint10_linear_488_2398)"/>
<path d="M267.59 110.591L262.589 109.425L260.121 84.4604L282.289 88.2326L267.59 110.591Z" fill="#C7B50F"/>
<path d="M256.841 38.3853C256.361 40.3319 247.445 78.555 265.399 89.2871C283.355 100.022 299.663 69.7259 304.342 46.5307L256.841 38.3853Z" fill="#C7B50F"/>
<path d="M279.786 117.13L248.764 109.894L247.886 113.659L278.908 120.895L279.786 117.13Z" fill="#C7B50F"/>
<path d="M279.782 117.137L248.761 109.9L257.595 107.52L272.914 111.093L279.782 117.137Z" fill="#C7B50F"/>
<path d="M255.86 32.4361C254.131 32.1428 252.444 33.0786 252.109 34.5161L251.423 37.4567C251.089 38.8943 252.226 40.3198 253.952 40.6276L307.796 50.1719C309.523 50.4773 311.207 49.5513 311.544 48.1137L312.327 44.7561C312.662 43.3186 311.525 41.9028 309.796 41.6095L255.86 32.4386V32.4361Z" fill="#C7B50F"/>
<path d="M278.432 95.5318C277.193 95.2433 276.305 94.2106 276.41 93.1149C276.521 91.9367 277.736 91.1342 279.12 91.3185C279.384 91.3524 297.668 93.6312 301.639 84.2591C302.308 82.6785 302.778 80.5209 301.217 79.2094C299.927 78.1282 297.481 77.8058 295.522 78.4579C294.41 78.8288 293.101 79.6312 293.181 81.333C293.236 82.5258 292.155 83.4567 290.766 83.413C289.377 83.3694 288.204 82.3682 288.148 81.1779C288.002 78.0918 289.961 75.5633 293.389 74.4191C297.195 73.1464 301.806 73.8955 304.599 76.2397C306.23 77.6094 308.635 80.7003 306.39 86.0021C304.17 91.2433 298.589 94.5524 290.252 95.5755C284.264 96.31 278.941 95.6142 278.718 95.5852C278.621 95.573 278.524 95.5536 278.432 95.5318Z" fill="#C7B50F"/>
<path d="M259.925 91.2142C261.164 91.5027 262.417 90.9693 262.807 89.9415C263.229 88.836 262.497 87.5778 261.171 87.1318C260.919 87.0445 243.513 80.9984 244.099 70.836C244.199 69.1221 244.732 66.979 246.713 66.4942C248.347 66.0942 250.686 66.8869 252.15 68.3415C252.984 69.1681 253.804 70.4651 252.977 71.956C252.4 73.0009 252.958 74.3124 254.223 74.8893C255.489 75.4663 256.982 75.0881 257.561 74.0433C259.057 71.3403 258.419 68.2057 255.852 65.6627C253.001 62.836 248.536 61.4687 244.994 62.3342C242.924 62.8409 239.399 64.55 239.069 70.2954C238.742 75.9778 242.281 81.4154 249.304 86.0215C254.349 89.3306 259.43 91.0615 259.644 91.1342C259.736 91.1657 259.83 91.1924 259.925 91.2142Z" fill="#C7B50F"/>
<path opacity="0.76" d="M298.771 44.732C298.747 44.732 298.72 44.732 298.696 44.7247L293.886 43.8714C293.653 43.8302 293.501 43.6096 293.542 43.3768C293.583 43.1441 293.804 42.9914 294.036 43.0326L298.846 43.8859C299.079 43.9271 299.232 44.1477 299.193 44.3805C299.156 44.5865 298.977 44.732 298.773 44.732H298.771Z" fill="white"/>
<path opacity="0.76" d="M285.908 42.4505C285.884 42.4505 285.857 42.4505 285.833 42.4432L257.106 37.3499C256.873 37.3087 256.718 37.0881 256.759 36.8553C256.8 36.6226 257.023 36.4699 257.253 36.5111L285.981 41.6044C286.213 41.6456 286.369 41.8663 286.327 42.099C286.291 42.305 286.112 42.4505 285.908 42.4505Z" fill="white"/>
<path opacity="0.76" d="M269.093 85.5803C269.045 85.5803 268.996 85.573 268.95 85.556C263.947 83.7645 260.812 78.6203 259.636 70.2639C258.667 63.367 259.239 55.6942 259.888 50.4724C259.918 50.2373 260.131 50.0748 260.364 50.1015C260.596 50.1306 260.764 50.3439 260.735 50.5766C259.617 59.5366 258.208 80.8045 269.236 84.7512C269.457 84.8312 269.573 85.0736 269.493 85.2967C269.43 85.4712 269.268 85.5803 269.091 85.5803H269.093Z" fill="white"/>
<path opacity="0.76" d="M260.902 46.8748C260.878 46.8748 260.856 46.8748 260.832 46.87C260.599 46.8312 260.441 46.6106 260.48 46.3803C260.676 45.1972 260.812 44.5209 260.817 44.4918C260.863 44.2615 261.088 44.1112 261.319 44.1572C261.549 44.2033 261.699 44.4287 261.653 44.659C261.653 44.6663 261.515 45.35 261.321 46.5184C261.287 46.7269 261.105 46.8748 260.902 46.8748Z" fill="white"/>
<path d="M260.902 96.9138C260.902 96.9138 265.717 94.7804 265.098 98.3586C264.48 101.934 265.772 104.548 263.028 104.824C260.284 105.098 259.971 99.3865 260.902 96.9138Z" fill="url(#paint11_linear_488_2398)"/>
<path d="M295.464 123.866C295.101 122.972 294.347 122.436 293.377 122.293C292.262 122.128 290.238 122.341 290.318 123.859C290.553 128.351 291.993 139.709 300.361 145.503L302.056 143.803C300.9 141.454 299.893 139.023 298.88 136.606C298.003 134.511 297.416 132.312 296.681 130.167C296.32 129.115 295.978 128.068 295.84 126.96C295.721 126.002 295.838 124.952 295.525 124.031C295.506 123.978 295.486 123.922 295.464 123.871V123.866Z" fill="url(#paint12_linear_488_2398)"/>
<path d="M309.983 123.866C310.347 122.972 311.101 122.436 312.07 122.293C313.186 122.128 315.21 122.341 315.13 123.859C314.895 128.351 313.455 139.709 305.086 145.503L303.392 143.803C304.548 141.454 305.554 139.023 306.567 136.606C307.445 134.511 308.032 132.312 308.766 130.167C309.127 129.115 309.469 128.068 309.607 126.96C309.726 126.002 309.61 124.952 309.923 124.031C309.942 123.978 309.961 123.922 309.983 123.871V123.866Z" fill="url(#paint13_linear_488_2398)"/>
<path d="M304.21 154.218C308.269 153.722 311.157 150.03 310.661 145.971C310.165 141.912 306.472 139.024 302.414 139.521C298.355 140.017 295.467 143.709 295.963 147.768C296.459 151.827 300.152 154.715 304.21 154.218Z" fill="url(#paint14_linear_488_2398)"/>
<path opacity="0.2" d="M303.473 152.488C306.478 152.461 308.892 150.001 308.864 146.996C308.837 143.99 306.378 141.576 303.372 141.604C300.366 141.632 297.952 144.091 297.98 147.096C298.008 150.102 300.467 152.516 303.473 152.488Z" fill="white"/>
<path opacity="0.2" d="M297.077 147.789C296.943 147.789 296.827 147.687 296.817 147.549C296.727 146.511 296.812 145.546 297.067 144.686C297.108 144.548 297.253 144.468 297.392 144.509C297.53 144.55 297.61 144.696 297.569 144.834C297.333 145.634 297.256 146.533 297.338 147.505C297.35 147.648 297.244 147.777 297.101 147.789C297.093 147.789 297.086 147.789 297.079 147.789H297.077Z" fill="white"/>
<path opacity="0.2" d="M297.886 143.706C297.84 143.706 297.794 143.694 297.753 143.67C297.629 143.597 297.588 143.437 297.661 143.311C299.207 140.695 302.201 140.165 302.327 140.143C302.47 140.121 302.604 140.215 302.628 140.356C302.652 140.499 302.555 140.632 302.415 140.657C302.386 140.662 299.532 141.173 298.112 143.575C298.063 143.658 297.976 143.704 297.886 143.704V143.706Z" fill="white"/>
<path d="M175.752 182.645C175.752 182.645 175.58 188.339 180.727 188.754C185.874 189.168 190.649 187.779 190.649 187.779L191.091 191.195C191.091 191.195 180.792 203.304 171.823 196.468C162.853 189.631 164.254 181.707 164.797 179.576C165.338 177.445 174.017 181.532 175.752 182.647V182.645Z" fill="url(#paint15_linear_488_2398)"/>
<path d="M168.863 159.103C169.556 159.522 174.24 160.878 175.178 170.638C176.116 180.398 176.938 183.088 176.938 183.088L166.802 184.798L168.86 159.105L168.863 159.103Z" fill="#4D4FFA"/>
<path d="M159.983 290.489C159.983 290.489 159.367 293.968 159.066 297.413C158.948 298.758 159.988 299.927 161.335 299.985C165.922 300.177 175.733 300.547 179.255 300.39C179.784 300.366 180.131 299.825 179.934 299.333C179.769 298.921 179.454 298.586 179.049 298.402L162.843 290.952L159.983 290.489Z" fill="#0F97C7"/>
<path d="M159.479 288.446L159.973 292.608C159.973 292.608 162.812 293.929 164.751 292.441L163.575 287.803L159.479 288.446Z" fill="url(#paint16_linear_488_2398)"/>
<path d="M159.85 210.199C159.636 211.285 158.705 264.439 164.385 288.257C164.477 288.645 164.281 289.047 163.91 289.198C163.04 289.554 161.331 290.07 159.282 290.138C158.647 290.16 158.08 289.748 157.9 289.139C156.276 283.612 148.494 255.925 147.479 229.474C146.344 199.918 147.479 228.468 147.479 228.468L148.143 210.199H159.845H159.85Z" fill="url(#paint17_linear_488_2398)"/>
<path d="M141.341 292.305C141.341 292.305 140.361 294.063 139.416 298.729C139.244 299.573 139.833 300.38 140.691 300.463C142.206 300.611 144.538 300.802 146.405 300.79C147.265 300.785 147.937 300.034 147.835 299.18C147.629 297.476 146.984 294.681 144.991 292.502L141.343 292.303L141.341 292.305Z" fill="#0F97C7"/>
<path d="M140.48 286.952L141.634 293.246C141.634 293.246 142.776 294.094 145.032 293.478L144.482 286.708L140.482 286.952H140.48Z" fill="url(#paint18_linear_488_2398)"/>
<path d="M137.362 211.83C132.715 239.874 138.371 281.142 140.276 289.219C140.393 289.714 140.793 290.092 141.294 290.177C142.145 290.318 143.546 290.434 144.928 290.031C145.403 289.893 145.738 289.464 145.757 288.97C146.014 282.439 145.554 242.351 149.883 226.507C150.104 225.704 150.594 225.004 151.273 224.521L159.677 218.548L160.322 208.892L137.365 211.833L137.362 211.83Z" fill="url(#paint19_linear_488_2398)"/>
<path d="M166.972 158.693C153.047 158.463 137.682 162.349 137.682 162.349C133.532 186.569 136.957 214.506 136.957 214.506C147.738 217.333 159.9 212.778 159.9 212.778C161.692 202.654 170.053 174.164 170.053 174.164C173.234 163.51 171.27 158.766 166.977 158.695L166.972 158.693Z" fill="#4D4FFA"/>
<path d="M143.023 175.832L137.682 162.349C137.682 162.349 124.676 171.187 122.536 182.392C124.994 182.574 129.115 183.253 133.491 185.464C135.467 181.018 143.023 175.832 143.023 175.832Z" fill="#4D4FFA"/>
<path d="M152.868 147.387L148.436 160.201C148.363 160.415 148.451 160.65 148.647 160.756C149.854 161.423 154.206 163.355 159.449 160.029C159.995 159.682 160.368 159.118 160.451 158.475L161.886 147.384H152.868V147.387Z" fill="url(#paint20_linear_488_2398)"/>
<path d="M162.509 135.52C162.509 135.52 167.374 144.679 166.751 148.378C166.128 152.078 160.097 151.813 154.831 148.807L151.151 138.919L162.509 135.52Z" fill="url(#paint21_linear_488_2398)"/>
<path d="M155.064 143.951C155.277 143.857 155.357 143.595 155.229 143.399C154.839 142.802 154.109 141.588 153.876 140.523C153.876 140.523 153.001 139.963 156.102 139.222C159.202 138.48 163.828 137.328 164.8 134.688C165.748 132.114 163.258 125.643 159.285 130.8C159.134 130.996 158.836 131.001 158.686 130.805C158.034 129.956 156.322 128.199 153.947 129.265C151.721 130.264 151.471 131.893 151.503 132.715C151.513 132.957 151.297 133.144 151.059 133.1C149.934 132.887 147.236 132.703 145.976 135.471C144.938 137.753 145.612 139.042 146.225 139.675C146.424 139.879 146.337 140.216 146.065 140.3C145.326 140.526 144.371 141.154 144.468 142.885C144.599 145.28 147.277 145.069 148.039 144.957C148.165 144.94 148.288 144.982 148.373 145.076C149.028 145.799 151.971 148.87 155.156 149.239C155.433 149.27 155.646 148.999 155.556 148.737L154.177 144.729C154.114 144.543 154.201 144.339 154.383 144.259L155.067 143.956L155.064 143.951Z" fill="url(#paint22_linear_488_2398)"/>
<path d="M155.617 144.521C155.617 144.521 152.153 142.145 151.901 144.145C151.648 146.148 155.021 147.045 156.691 146.298L155.617 144.521Z" fill="url(#paint23_linear_488_2398)"/>
<path d="M146.056 161.091C145.464 160.213 144.434 159.781 143.19 159.806C141.765 159.832 139.248 160.424 139.578 162.009C140.555 166.707 144.082 178.434 155.486 183.04L157.362 180.94C155.551 178.669 153.92 176.286 152.279 173.917C150.858 171.866 149.787 169.651 148.538 167.517C147.925 166.472 147.336 165.43 146.994 164.283C146.698 163.297 146.686 162.167 146.155 161.248C146.123 161.195 146.09 161.141 146.056 161.091Z" fill="url(#paint24_linear_488_2398)"/>
<path d="M160.531 158.746C160.71 157.651 161.297 156.928 162.138 156.642C163.103 156.315 164.938 156.322 165.11 158.116C165.617 163.43 166.145 176.969 159.627 184.795L157.847 182.998C158.502 180.094 159.008 177.112 159.525 174.145C159.971 171.575 160.143 168.916 160.456 166.303C160.608 165.02 160.747 163.748 160.693 162.426C160.647 161.287 160.376 160.065 160.507 158.94C160.514 158.875 160.524 158.809 160.533 158.744L160.531 158.746Z" fill="url(#paint25_linear_488_2398)"/>
<path d="M156.586 190.402C160.258 190.402 163.234 187.426 163.234 183.755C163.234 180.084 160.258 177.107 156.586 177.107C152.915 177.107 149.939 180.084 149.939 183.755C149.939 187.426 152.915 190.402 156.586 190.402Z" fill="url(#paint26_linear_488_2398)"/>
<path d="M150.996 184.589C150.863 184.589 150.747 184.487 150.737 184.349C150.657 183.413 150.734 182.545 150.962 181.767C151.004 181.629 151.149 181.549 151.287 181.59C151.425 181.631 151.505 181.777 151.464 181.915C151.253 182.63 151.183 183.432 151.258 184.303C151.27 184.446 151.164 184.574 151.021 184.586C151.013 184.586 151.006 184.586 150.999 184.586L150.996 184.589Z" fill="white"/>
<path d="M151.724 180.923C151.677 180.923 151.631 180.911 151.59 180.887C151.467 180.814 151.425 180.654 151.498 180.528C152.892 178.17 155.593 177.69 155.707 177.67C155.847 177.648 155.983 177.743 156.007 177.883C156.031 178.026 155.934 178.16 155.794 178.184C155.767 178.189 153.217 178.647 151.949 180.793C151.9 180.875 151.813 180.921 151.724 180.921V180.923Z" fill="white"/>
<path d="M148.385 190.596L152.715 183.985C152.715 183.985 160.793 183.372 161.76 184.596C162.729 185.82 159.069 189.258 159.069 189.258L154.126 189.04C154.126 189.04 150.48 195.508 148.826 194.426C147.173 193.343 148.385 190.594 148.385 190.594V190.596Z" fill="url(#paint27_linear_488_2398)"/>
<path d="M133.491 185.464C133.491 185.464 133.319 191.159 138.465 191.573C143.612 191.988 148.388 190.599 148.388 190.599L148.829 194.014C148.829 194.014 138.531 206.123 129.561 199.287C120.591 192.451 121.993 184.526 122.536 182.395C123.076 180.264 131.755 184.351 133.491 185.466V185.464Z" fill="url(#paint28_linear_488_2398)"/>
<path d="M190.087 188.378C190.087 188.378 189.226 186.109 192.904 186.031C196.582 185.954 197.835 184.233 198.148 185.326C198.46 186.422 196.426 187.517 196.426 187.517C196.426 187.517 200.497 189.083 202.06 187.908C203.626 186.734 202.999 185.013 203.862 185.403C204.722 185.794 203.939 191.117 201.828 192.368C199.714 193.622 192.548 193.302 190.848 191.466L190.089 188.378H190.087Z" fill="url(#paint29_linear_488_2398)"/>
<path d="M457.648 220.914L444.601 221.076L449.168 216.778C450.303 215.709 452.036 215.537 453.345 216.385C454.111 216.882 454.945 217.559 455.665 218.453C455.665 218.453 463.803 215.479 467.75 208.824C468.979 210.65 470.417 213.135 471.66 216.225C468.123 218.303 463.539 219.935 457.648 220.916V220.914Z" fill="url(#paint30_linear_488_2398)"/>
<path d="M440.679 313.966C444.153 314.266 450.182 314.754 454.933 314.962C457.792 315.088 459.435 314.807 460.383 314.429C460.383 314.536 460.378 314.637 460.373 314.729C460.352 315.229 459.944 315.629 459.44 315.658C450.458 316.16 443.316 315.832 440.773 315.677C440.247 315.646 439.935 315.074 440.204 314.625C440.337 314.402 440.502 314.182 440.679 313.963V313.966Z" fill="url(#paint31_linear_488_2398)"/>
<path d="M454.933 314.962C450.179 314.754 444.153 314.267 440.679 313.966C444.094 309.777 454.933 306.953 454.933 306.953H457.995C460.102 309.988 460.405 312.877 460.383 314.431C459.435 314.81 457.791 315.091 454.933 314.965V314.962Z" fill="#0F97C7"/>
<path d="M458.512 301.954L458.226 307.624C458.194 308.237 457.736 308.754 457.12 308.841C456.509 308.928 455.69 308.94 454.819 308.649C454.286 308.472 453.889 308.021 453.789 307.471L452.8 301.951H458.512V301.954Z" fill="url(#paint32_linear_488_2398)"/>
<path d="M494.046 318.838C495.552 318.594 496.235 317.682 496.519 316.71C496.519 316.72 496.524 316.727 496.524 316.737C496.744 317.765 496.23 318.829 495.205 319.335C493.964 319.946 492.606 320.053 491.552 320.002C490.422 319.949 489.382 319.403 488.812 318.531L488.802 318.518C489.937 319.173 491.53 319.248 494.044 318.841L494.046 318.838Z" fill="url(#paint33_linear_488_2398)"/>
<path d="M486.943 303.699H489.467C493.312 303.607 495.729 313.052 496.519 316.708C496.233 317.682 495.552 318.594 494.046 318.836C491.535 319.243 489.942 319.168 488.805 318.514C486.727 315.331 485.697 310.669 485.202 307.946C484.64 304.853 486.943 303.697 486.943 303.697V303.699Z" fill="#0F97C7"/>
<path d="M489.144 298.438L490.545 304.014C490.718 304.698 490.39 305.406 489.758 305.731C488.972 306.133 487.869 306.557 486.853 306.434C486.376 306.375 485.981 306.041 485.823 305.59L483.765 299.723L489.144 298.438Z" fill="url(#paint34_linear_488_2398)"/>
<path d="M439.823 224.996C439.823 224.996 452.351 303.314 452.145 303.743C452.145 303.743 455.605 305.316 459.379 303.944C459.379 303.944 458.247 262.077 455.593 246.026C455.593 246.026 476.975 283.447 483.765 302.092C483.765 302.092 487.307 301.67 490.238 299.74C490.238 299.74 467.215 232.385 461.071 223.416L439.823 224.999V224.996Z" fill="url(#paint35_linear_488_2398)"/>
<path d="M455.161 244.187C455.105 244.194 455.038 244.116 454.984 243.964L452.529 236.941L451.392 236.439C451.292 236.395 451.195 236.129 451.176 235.847C451.156 235.564 451.222 235.37 451.321 235.413L452.536 235.949C452.584 235.971 452.638 236.051 452.679 236.167L455.2 243.375C455.282 243.61 455.302 243.935 455.241 244.097C455.219 244.155 455.193 244.184 455.161 244.189V244.187Z" fill="url(#paint36_linear_488_2398)"/>
<path d="M382.33 148.305C382.33 148.305 390.783 150.169 395.927 152.545C396.948 153.018 397.762 153.842 398.228 154.858C399.765 158.228 404.366 166.674 413.29 170.705C412.005 172.412 409.935 175.959 409.035 181.922C403.675 177.934 399.05 171.272 396.827 160.346C396.827 160.346 395.135 161.265 393.025 160.242C391.91 159.702 390.623 158.933 389.658 158.329C388.696 157.728 387.978 156.792 387.699 155.699C387.331 154.257 387.549 152.989 387.549 151.626L383.202 150.281C383.202 150.281 381.896 149.789 382.332 148.308L382.33 148.305Z" fill="url(#paint37_linear_488_2398)"/>
<path d="M409.033 181.922C409.935 175.959 412.002 172.412 413.287 170.705C418.832 173.21 426.041 174.01 435.224 170.829C436.07 170.536 436.953 170.364 437.85 170.313C442.737 170.027 458.846 169.503 472.175 173.908C474.979 174.834 477.251 176.909 478.422 179.595C482.027 187.869 487.864 206.713 471.661 216.228C470.415 213.137 468.979 210.652 467.75 208.827C470.361 204.424 471.132 198.412 466.502 190.584C463.125 199.702 461.542 213.006 461.21 218.895C461.101 220.834 461.44 222.769 462.201 224.558L462.284 224.754C462.446 225.137 462.223 225.578 461.813 225.668C452.691 227.716 443.202 227.161 440.366 226.926C439.859 226.885 439.44 226.521 439.324 226.034C434.887 207.341 434.878 194.589 435.964 186.531C431.813 187.459 419.125 189.438 409.033 181.927V181.922Z" fill="#4D4FFA"/>
<path d="M436.012 186.315C436.012 186.315 435.998 186.31 435.99 186.305C435.901 186.247 435.884 185.975 435.956 185.699C438 177.864 439.459 174.627 439.52 174.494C439.624 174.266 439.75 174.22 439.801 174.387C439.855 174.557 439.811 174.877 439.709 175.105C439.695 175.137 438.262 178.324 436.286 185.907C436.221 186.162 436.102 186.334 436.015 186.315H436.012Z" fill="url(#paint38_linear_488_2398)"/>
<path d="M458.458 159.423C458.458 159.423 459.382 169.18 460.194 172.068C460.317 172.506 460.126 172.967 459.728 173.195C458.349 173.983 455.042 175.268 450.516 173.052C449.784 172.693 449.343 171.93 449.377 171.12L449.774 161.69L458.456 159.423H458.458Z" fill="url(#paint39_linear_488_2398)"/>
<path d="M449.578 146.938C449.578 146.938 446.625 153.719 446.429 157.277C446.23 160.836 445.464 163.146 449.578 163.862C453.695 164.579 457.161 162.528 459.038 158.984C459.038 158.984 461.981 153.522 461.321 151.285C460.662 149.047 449.578 146.938 449.578 146.938Z" fill="url(#paint40_linear_488_2398)"/>
<path d="M457.631 156.436L457.396 156.332C457.098 156.201 456.97 155.845 457.12 155.556C457.699 154.434 458.831 151.866 457.37 151.265C455.486 150.492 448.027 148.972 446.417 146.325C444.87 143.782 446.24 140.497 448.301 139.561C448.439 139.498 448.601 139.549 448.671 139.682L448.844 140.007C448.96 140.23 449.29 140.196 449.36 139.954C449.428 139.721 449.736 139.677 449.864 139.881C450.359 140.674 451.694 141.956 455.268 142.616C460.344 143.554 463.702 145.607 463.784 149.115C463.789 149.338 464.027 149.462 464.218 149.345C464.594 149.117 465.193 149.011 465.995 149.685C467.389 150.858 466.819 153.898 463.762 156.4C463.617 156.519 463.619 156.744 463.774 156.848C464.33 157.21 465.154 158.068 463.013 159.212C460.8 160.395 459.147 160.298 458.509 160.194C458.351 160.167 458.25 160.014 458.284 159.857L458.962 156.773C459.001 156.599 458.868 156.434 458.688 156.434H457.629L457.631 156.436Z" fill="url(#paint41_linear_488_2398)"/>
<path d="M457.503 157.086C457.503 157.086 458.63 152.754 460.572 153.968C462.514 155.183 459.564 158.822 458.002 158.984L457.503 157.086Z" fill="url(#paint42_linear_488_2398)"/>
<path d="M394.57 159.491C394.417 159.491 394.267 159.425 394.163 159.297C392.994 157.862 390.878 155.433 390.167 155.03C389.53 154.669 389.164 154.264 389.052 153.787C388.958 153.382 389.057 152.958 389.348 152.526C389.467 152.352 389.678 152.264 389.884 152.306L393.573 153.045C393.661 153.062 393.743 153.103 393.811 153.161L395.772 154.846C395.99 155.035 396.017 155.365 395.828 155.583C395.641 155.801 395.309 155.828 395.091 155.639L393.234 154.044L390.07 153.411C390.053 153.484 390.063 153.527 390.07 153.547C390.095 153.644 390.204 153.85 390.681 154.119C391.799 154.749 394.652 158.24 394.975 158.635C395.156 158.858 395.122 159.188 394.899 159.372C394.802 159.452 394.686 159.489 394.57 159.489V159.491Z" fill="url(#paint43_linear_488_2398)"/>
<path d="M463.113 215.66C463.113 215.66 462.002 213.811 459.413 213.811C456.824 213.811 453.862 218.62 453.862 218.62C453.862 218.62 457.932 220.47 459.413 221.951C460.895 223.432 463.113 218.62 463.113 215.66Z" fill="url(#paint44_linear_488_2398)"/>
<path d="M461.445 171.77C462.036 170.892 463.067 170.461 464.31 170.485C465.736 170.512 468.252 171.103 467.922 172.688C466.945 177.387 463.418 189.113 452.015 193.719L450.138 191.619C451.949 189.348 453.581 186.965 455.222 184.596C456.642 182.545 457.714 180.33 458.962 178.196C459.576 177.152 460.165 176.109 460.507 174.962C460.802 173.976 460.815 172.846 461.345 171.927C461.377 171.874 461.411 171.821 461.445 171.77Z" fill="url(#paint45_linear_488_2398)"/>
<path d="M446.97 169.423C446.79 168.327 446.204 167.605 445.362 167.319C444.398 166.992 442.562 166.999 442.39 168.793C441.884 174.107 441.355 187.646 447.874 195.472L449.653 193.675C448.999 190.771 448.492 187.789 447.976 184.822C447.53 182.252 447.358 179.593 447.045 176.979C446.892 175.697 446.754 174.424 446.807 173.103C446.853 171.964 447.125 170.742 446.994 169.617C446.987 169.552 446.977 169.486 446.967 169.421L446.97 169.423Z" fill="url(#paint46_linear_488_2398)"/>
<path d="M451.94 200.972C455.568 200.407 458.051 197.009 457.487 193.382C456.923 189.754 453.525 187.271 449.897 187.835C446.27 188.399 443.786 191.797 444.35 195.425C444.915 199.052 448.313 201.536 451.94 200.972Z" fill="url(#paint47_linear_488_2398)"/>
<path opacity="0.2" d="M455.636 195.374C456.084 192.713 454.29 190.192 451.628 189.744C448.966 189.296 446.445 191.091 445.997 193.753C445.55 196.414 447.344 198.935 450.006 199.383C452.668 199.831 455.189 198.036 455.636 195.374Z" fill="white"/>
<path opacity="0.2" d="M456.504 195.266C456.504 195.266 456.49 195.266 456.483 195.266C456.34 195.253 456.233 195.127 456.245 194.982C456.32 194.112 456.25 193.309 456.039 192.594C455.998 192.456 456.078 192.31 456.216 192.269C456.356 192.228 456.5 192.308 456.541 192.446C456.771 193.224 456.846 194.092 456.766 195.028C456.754 195.164 456.64 195.268 456.507 195.268L456.504 195.266Z" fill="white"/>
<path opacity="0.2" d="M455.777 191.602C455.687 191.602 455.6 191.556 455.551 191.474C454.284 189.328 451.731 188.87 451.707 188.865C451.564 188.841 451.469 188.705 451.493 188.565C451.518 188.424 451.653 188.327 451.794 188.351C451.908 188.371 454.608 188.851 456.002 191.21C456.075 191.333 456.034 191.493 455.91 191.568C455.869 191.593 455.823 191.605 455.777 191.605V191.602Z" fill="white"/>
</g>
<defs>
<linearGradient id="paint0_linear_488_2398" x1="298.761" y1="270.526" x2="286.179" y2="270.526" gradientUnits="userSpaceOnUse">
<stop stop-color="#09005D"/>
<stop offset="1" stop-color="#1A0F91"/>
</linearGradient>
<linearGradient id="paint1_linear_488_2398" x1="294.633" y1="255.762" x2="292.121" y2="277.685" gradientUnits="userSpaceOnUse">
<stop stop-color="#FF928E"/>
<stop offset="1" stop-color="#FEB3B1"/>
</linearGradient>
<linearGradient id="paint2_linear_488_2398" x1="317.265" y1="270.705" x2="334.975" y2="270.705" gradientUnits="userSpaceOnUse">
<stop stop-color="#09005D"/>
<stop offset="1" stop-color="#1A0F91"/>
</linearGradient>
<linearGradient id="paint3_linear_488_2398" x1="321.096" y1="258.567" x2="318.747" y2="279.074" gradientUnits="userSpaceOnUse">
<stop stop-color="#FF928E"/>
<stop offset="1" stop-color="#FEB3B1"/>
</linearGradient>
<linearGradient id="paint4_linear_488_2398" x1="306.589" y1="257.91" x2="309.409" y2="169.583" gradientUnits="userSpaceOnUse">
<stop stop-color="#09005D"/>
<stop offset="1" stop-color="#1A0F91"/>
</linearGradient>
<linearGradient id="paint5_linear_488_2398" x1="303.918" y1="112.814" x2="300.402" y2="129.665" gradientUnits="userSpaceOnUse">
<stop stop-color="#FF928E"/>
<stop offset="1" stop-color="#FEB3B1"/>
</linearGradient>
<linearGradient id="paint6_linear_488_2398" x1="300.686" y1="95.9487" x2="308.201" y2="113.524" gradientUnits="userSpaceOnUse">
<stop stop-color="#FF928E"/>
<stop offset="1" stop-color="#FEB3B1"/>
</linearGradient>
<linearGradient id="paint7_linear_488_2398" x1="293.965" y1="104.202" x2="311.766" y2="94.3874" gradientUnits="userSpaceOnUse">
<stop stop-color="#09005D"/>
<stop offset="1" stop-color="#1A0F91"/>
</linearGradient>
<linearGradient id="paint8_linear_488_2398" x1="293.763" y1="98.9087" x2="301.278" y2="116.484" gradientUnits="userSpaceOnUse">
<stop stop-color="#FF928E"/>
<stop offset="1" stop-color="#FEB3B1"/>
</linearGradient>
<linearGradient id="paint9_linear_488_2398" x1="272.514" y1="83.3161" x2="266.153" y2="104.218" gradientUnits="userSpaceOnUse">
<stop stop-color="#F9B776"/>
<stop offset="1" stop-color="#F47960"/>
</linearGradient>
<linearGradient id="paint10_linear_488_2398" x1="332.836" y1="85.1345" x2="339.197" y2="106.036" gradientUnits="userSpaceOnUse">
<stop stop-color="#FF928E"/>
<stop offset="1" stop-color="#FEB3B1"/>
</linearGradient>
<linearGradient id="paint11_linear_488_2398" x1="265.661" y1="100.031" x2="260.422" y2="101.1" gradientUnits="userSpaceOnUse">
<stop stop-color="#FF928E"/>
<stop offset="1" stop-color="#FEB3B1"/>
</linearGradient>
<linearGradient id="paint12_linear_488_2398" x1="290.315" y1="133.871" x2="302.056" y2="133.871" gradientUnits="userSpaceOnUse">
<stop stop-color="#09005D"/>
<stop offset="1" stop-color="#1A0F91"/>
</linearGradient>
<linearGradient id="paint13_linear_488_2398" x1="315.132" y1="133.871" x2="303.392" y2="133.871" gradientUnits="userSpaceOnUse">
<stop stop-color="#09005D"/>
<stop offset="1" stop-color="#1A0F91"/>
</linearGradient>
<linearGradient id="paint14_linear_488_2398" x1="303.526" y1="138.252" x2="302.872" y2="163.65" gradientUnits="userSpaceOnUse">
<stop stop-color="#C7B50F"/>
<stop offset="1" stop-color="#FF928E"/>
</linearGradient>
<linearGradient id="paint15_linear_488_2398" x1="201.374" y1="179.345" x2="169.057" y2="189.917" gradientUnits="userSpaceOnUse">
<stop stop-color="#FF928E"/>
<stop offset="1" stop-color="#FEB3B1"/>
</linearGradient>
<linearGradient id="paint16_linear_488_2398" x1="159.479" y1="290.477" x2="164.751" y2="290.477" gradientUnits="userSpaceOnUse">
<stop stop-color="#FF928E"/>
<stop offset="1" stop-color="#FEB3B1"/>
</linearGradient>
<linearGradient id="paint17_linear_488_2398" x1="149.93" y1="285.789" x2="161.578" y2="218.114" gradientUnits="userSpaceOnUse">
<stop stop-color="#09005D"/>
<stop offset="1" stop-color="#1A0F91"/>
</linearGradient>
<linearGradient id="paint18_linear_488_2398" x1="140.48" y1="290.206" x2="145.032" y2="290.206" gradientUnits="userSpaceOnUse">
<stop stop-color="#FF928E"/>
<stop offset="1" stop-color="#FEB3B1"/>
</linearGradient>
<linearGradient id="paint19_linear_488_2398" x1="136.756" y1="283.522" x2="148.407" y2="215.847" gradientUnits="userSpaceOnUse">
<stop stop-color="#09005D"/>
<stop offset="1" stop-color="#1A0F91"/>
</linearGradient>
<linearGradient id="paint20_linear_488_2398" x1="157.464" y1="149.445" x2="150.836" y2="171.263" gradientUnits="userSpaceOnUse">
<stop stop-color="#FF928E"/>
<stop offset="1" stop-color="#FEB3B1"/>
</linearGradient>
<linearGradient id="paint21_linear_488_2398" x1="559.923" y1="658.334" x2="549.682" y2="645.164" gradientUnits="userSpaceOnUse">
<stop stop-color="#FF928E"/>
<stop offset="1" stop-color="#FEB3B1"/>
</linearGradient>
<linearGradient id="paint22_linear_488_2398" x1="142.369" y1="127.47" x2="161.509" y2="142.588" gradientUnits="userSpaceOnUse">
<stop stop-color="#2B3582"/>
<stop offset="1" stop-color="#150E42"/>
</linearGradient>
<linearGradient id="paint23_linear_488_2398" x1="555.624" y1="661.677" x2="545.383" y2="648.503" gradientUnits="userSpaceOnUse">
<stop stop-color="#FF928E"/>
<stop offset="1" stop-color="#FEB3B1"/>
</linearGradient>
<linearGradient id="paint24_linear_488_2398" x1="141.085" y1="172.584" x2="155.856" y2="170.469" gradientUnits="userSpaceOnUse">
<stop stop-color="#2B3582"/>
<stop offset="1" stop-color="#150E42"/>
</linearGradient>
<linearGradient id="paint25_linear_488_2398" x1="166.64" y1="169.554" x2="156.194" y2="170.968" gradientUnits="userSpaceOnUse">
<stop stop-color="#2B3582"/>
<stop offset="1" stop-color="#150E42"/>
</linearGradient>
<linearGradient id="paint26_linear_488_2398" x1="156.114" y1="179.784" x2="159.023" y2="204.189" gradientUnits="userSpaceOnUse">
<stop stop-color="white"/>
<stop offset="1" stop-color="#353535"/>
</linearGradient>
<linearGradient id="paint27_linear_488_2398" x1="133.971" y1="202.128" x2="153.849" y2="188.068" gradientUnits="userSpaceOnUse">
<stop stop-color="#FF928E"/>
<stop offset="1" stop-color="#FEB3B1"/>
</linearGradient>
<linearGradient id="paint28_linear_488_2398" x1="159.113" y1="182.162" x2="126.797" y2="192.734" gradientUnits="userSpaceOnUse">
<stop stop-color="#FF928E"/>
<stop offset="1" stop-color="#FEB3B1"/>
</linearGradient>
<linearGradient id="paint29_linear_488_2398" x1="211.675" y1="184.414" x2="192.485" y2="190.691" gradientUnits="userSpaceOnUse">
<stop stop-color="#FF928E"/>
<stop offset="1" stop-color="#FEB3B1"/>
</linearGradient>
<linearGradient id="paint30_linear_488_2398" x1="441.159" y1="192.427" x2="452.97" y2="210.143" gradientUnits="userSpaceOnUse">
<stop stop-color="#FF928E"/>
<stop offset="1" stop-color="#FEB3B1"/>
</linearGradient>
<linearGradient id="paint31_linear_488_2398" x1="460.386" y1="314.945" x2="440.107" y2="314.945" gradientUnits="userSpaceOnUse">
<stop stop-color="#09005D"/>
<stop offset="1" stop-color="#1A0F91"/>
</linearGradient>
<linearGradient id="paint32_linear_488_2398" x1="458.514" y1="305.423" x2="452.8" y2="305.423" gradientUnits="userSpaceOnUse">
<stop stop-color="#FF928E"/>
<stop offset="1" stop-color="#FEB3B1"/>
</linearGradient>
<linearGradient id="paint33_linear_488_2398" x1="496.577" y1="318.361" x2="488.807" y2="318.361" gradientUnits="userSpaceOnUse">
<stop stop-color="#09005D"/>
<stop offset="1" stop-color="#1A0F91"/>
</linearGradient>
<linearGradient id="paint34_linear_488_2398" x1="490.592" y1="302.446" x2="483.765" y2="302.446" gradientUnits="userSpaceOnUse">
<stop stop-color="#FF928E"/>
<stop offset="1" stop-color="#FEB3B1"/>
</linearGradient>
<linearGradient id="paint35_linear_488_2398" x1="435.379" y1="228.785" x2="493.658" y2="324.249" gradientUnits="userSpaceOnUse">
<stop stop-color="#09005D"/>
<stop offset="1" stop-color="#1A0F91"/>
</linearGradient>
<linearGradient id="paint36_linear_488_2398" x1="456.213" y1="243.466" x2="450.843" y2="235.706" gradientUnits="userSpaceOnUse">
<stop stop-color="#4042E2"/>
<stop offset="1" stop-color="#4F52FF"/>
</linearGradient>
<linearGradient id="paint37_linear_488_2398" x1="396.703" y1="158.664" x2="423.738" y2="193.835" gradientUnits="userSpaceOnUse">
<stop stop-color="#FF928E"/>
<stop offset="1" stop-color="#FEB3B1"/>
</linearGradient>
<linearGradient id="paint38_linear_488_2398" x1="437.141" y1="180.181" x2="438.618" y2="180.493" gradientUnits="userSpaceOnUse">
<stop stop-color="#09005D"/>
<stop offset="1" stop-color="#1A0F91"/>
</linearGradient>
<linearGradient id="paint39_linear_488_2398" x1="454.984" y1="161.437" x2="454.499" y2="189.074" gradientUnits="userSpaceOnUse">
<stop stop-color="#FF928E"/>
<stop offset="1" stop-color="#FEB3B1"/>
</linearGradient>
<linearGradient id="paint40_linear_488_2398" x1="687.343" y1="342.315" x2="667.222" y2="326.315" gradientUnits="userSpaceOnUse">
<stop stop-color="#FF928E"/>
<stop offset="1" stop-color="#FEB3B1"/>
</linearGradient>
<linearGradient id="paint41_linear_488_2398" x1="460.839" y1="142.683" x2="445.122" y2="162.919" gradientUnits="userSpaceOnUse">
<stop stop-color="#09005D"/>
<stop offset="1" stop-color="#1A0F91"/>
</linearGradient>
<linearGradient id="paint42_linear_488_2398" x1="689.535" y1="339.556" x2="669.414" y2="323.556" gradientUnits="userSpaceOnUse">
<stop stop-color="#FF928E"/>
<stop offset="1" stop-color="#FEB3B1"/>
</linearGradient>
<linearGradient id="paint43_linear_488_2398" x1="394.095" y1="117.69" x2="392.64" y2="150.902" gradientUnits="userSpaceOnUse">
<stop stop-color="#FF928E"/>
<stop offset="1" stop-color="#FEB3B1"/>
</linearGradient>
<linearGradient id="paint44_linear_488_2398" x1="455.234" y1="212.261" x2="463.021" y2="223.939" gradientUnits="userSpaceOnUse">
<stop stop-color="#FF928E"/>
<stop offset="1" stop-color="#FEB3B1"/>
</linearGradient>
<linearGradient id="paint45_linear_488_2398" x1="466.415" y1="183.25" x2="451.643" y2="181.134" gradientUnits="userSpaceOnUse">
<stop stop-color="#09005D"/>
<stop offset="1" stop-color="#1A0F91"/>
</linearGradient>
<linearGradient id="paint46_linear_488_2398" x1="440.865" y1="180.278" x2="451.312" y2="181.692" gradientUnits="userSpaceOnUse">
<stop stop-color="#09005D"/>
<stop offset="1" stop-color="#1A0F91"/>
</linearGradient>
<linearGradient id="paint47_linear_488_2398" x1="450.706" y1="186.659" x2="451.296" y2="209.459" gradientUnits="userSpaceOnUse">
<stop stop-color="#FE9A62"/>
<stop offset="1" stop-color="#E27132"/>
</linearGradient>
<clipPath id="clip0_488_2398">
<rect width="600" height="400" fill="white"/>
</clipPath>
</defs>
</svg>
