<svg width="599" height="364" viewBox="0 0 599 364" fill="none" xmlns="http://www.w3.org/2000/svg">
<path d="M395.689 241.213L393.318 248.527L399.291 246.987L395.689 241.213Z" fill="#7D97F4"/>
<path d="M429.934 247.671L404.573 258.595C404.087 258.805 403.538 258.808 403.05 258.603C402.561 258.399 402.18 258.005 401.987 257.511L391.977 231.633C391.861 231.338 391.938 231.001 392.17 230.783C392.402 230.565 392.741 230.51 393.031 230.643L429.932 247.669L429.934 247.671Z" fill="#91B3FA"/>
<path d="M395.692 241.216L429.934 247.671L397.292 245.397L396.55 247.395L395.692 241.216Z" fill="#7D97F4"/>
<path d="M398.261 247.867L393.318 248.526L397.292 245.396L398.261 247.867Z" fill="#7D97F4"/>
<path d="M6.43738 0V311.569H567.379V47.3481L522.456 0H6.43738Z" fill="#D0E0F0"/>
<path d="M520.574 0.0839844V47.4321H567.127L520.574 0.0839844Z" fill="#91C1F1"/>
<path d="M500.873 16.8145H331.139V22.2101H500.873V16.8145Z" fill="white"/>
<path d="M549.518 232.391H331.139V235.109H549.518V232.391Z" fill="white"/>
<path d="M549.518 240.672H331.139V243.391H549.518V240.672Z" fill="white"/>
<path d="M510.577 248.911H331.139V251.63H510.577V248.911Z" fill="white"/>
<path d="M549.518 268.151H331.139V270.87H549.518V268.151Z" fill="white"/>
<path d="M411.531 276.393H331.139V279.111H411.531V276.393Z" fill="white"/>
<path d="M549.518 58.2227H492.466V60.9414H549.518V58.2227Z" fill="white"/>
<path d="M549.518 68.2197H492.466V70.9385H549.518V68.2197Z" fill="white"/>
<path d="M549.518 78.2578H492.466V80.9766H549.518V78.2578Z" fill="white"/>
<path d="M549.518 88.2549H492.466V90.9736H549.518V88.2549Z" fill="white"/>
<path d="M528.772 98.252H492.466V100.971H528.772V98.252Z" fill="white"/>
<path d="M549.518 150.66H492.466V153.379H549.518V150.66Z" fill="white"/>
<path d="M549.518 160.698H492.466V163.417H549.518V160.698Z" fill="white"/>
<path d="M549.518 170.696H492.466V173.415H549.518V170.696Z" fill="white"/>
<path d="M532.411 180.693H492.466V183.412H532.411V180.693Z" fill="white"/>
<path d="M464.944 28.7354H331.139V34.131H464.944V28.7354Z" fill="white"/>
<path d="M350.84 74.2021H331.139V111.93H350.84V74.2021Z" fill="#62D3BD"/>
<path d="M375.644 59.5625H355.943V111.93H375.644V59.5625Z" fill="#62D3BD"/>
<path d="M400.447 68.8057H380.747V111.971H400.447V68.8057Z" fill="#62D3BD"/>
<path d="M425.208 48.2256H405.508V111.97H425.208V48.2256Z" fill="#62D3BD"/>
<path d="M450.012 54.626H430.312V111.971H450.012V54.626Z" fill="#62D3BD"/>
<path d="M474.816 63.4102H455.115V111.971H474.816V63.4102Z" fill="#62D3BD"/>
<path d="M369.537 149.323H331.139V204.786H369.537V149.323Z" fill="white"/>
<path d="M474.313 149.323H435.916V204.786H474.313V149.323Z" fill="white"/>
<path d="M421.904 149.323H383.507V204.786H421.904V149.323Z" fill="white"/>
<path d="M194.794 221.426C235.881 188.179 242.235 127.919 208.988 86.8323C175.74 45.7457 115.481 39.3908 74.3939 72.6383C33.3073 105.886 26.9525 166.146 60.2 207.232C93.4476 248.319 153.707 254.674 194.794 221.426Z" fill="#6486CE"/>
<path d="M167.388 57.0919C157.182 53.3693 146.14 51.3198 134.596 51.3198C125.77 51.3198 117.237 52.5328 109.123 54.7915L134.596 147.02L167.388 57.0919Z" fill="white"/>
<path d="M109.123 54.7915C78.589 63.1987 54.2039 86.329 44.0818 116.11L134.637 147.02L109.165 54.7915H109.123Z" fill="#8CC9D7"/>
<path d="M43.9983 116.319C40.7358 125.981 38.9371 136.27 38.9371 147.02C38.9371 178.766 54.4132 206.916 78.2546 224.316L134.637 147.02L44.04 116.319H43.9983Z" fill="#0F97C7"/>
<path d="M122.968 241.967C126.774 242.427 130.664 242.678 134.596 242.678C155.342 242.678 174.54 236.069 190.184 224.818L134.596 146.978L122.968 241.925V241.967Z" fill="#8AABFF"/>
<path d="M134.596 147.021L78.0875 224.234C91.012 233.728 106.446 240.002 123.177 242.01L134.596 147.021Z" fill="white"/>
<path d="M540.86 176.969C544.499 178.976 547.26 188.262 549.435 206.457C551.61 224.651 551.149 227.746 550.104 229.838C549.058 231.887 531.951 256.063 531.951 256.063L522.623 254.976L534.419 220.176C534.419 220.176 524.924 197.506 528.897 176.676C529.483 173.581 540.818 176.927 540.818 176.927L540.86 176.969Z" fill="#7DA4EA"/>
<path d="M560.351 129.286C560.351 129.286 575.744 126.316 583.105 142.169C585.28 146.895 585.991 153.629 585.699 159.443C585.573 161.953 588.668 186.422 586.159 186.422L568.215 168.938L560.351 129.286Z" fill="#7F4D4E"/>
<path d="M585.992 247.111H535.005L536.385 355.987H546.131C546.131 355.987 553.493 290.109 556.295 259.827H563.029L565.079 355.987H574.824C574.824 355.987 586.327 270.576 585.992 254.138C586.243 252.925 585.992 247.111 585.992 247.111Z" fill="#4D4FFA"/>
<path d="M585.992 247.112H535.005L542.032 221.096L528.647 179.436C528.062 173.915 533.416 169.188 540.192 169.188H580.764C587.54 169.188 592.893 173.915 592.308 179.436L577.836 221.096L585.95 247.112H585.992Z" fill="#0F97C7"/>
<path d="M560.268 176.341C569.302 176.341 569.261 170.192 569.261 168.728V158.732C569.261 156.473 565.873 156.64 563.865 156.64H557.424C555.416 156.64 552.028 158.481 552.028 160.74V168.687C552.028 170.151 552.99 176.299 560.268 176.299V176.341Z" fill="#F9A369"/>
<path d="M546.424 156.64C549.017 165.423 556.379 164.085 565.162 161.492C573.946 158.898 578.965 149.655 576.372 140.871C573.779 132.087 564.535 127.068 555.751 129.661C546.967 132.255 543.831 147.856 546.424 156.64Z" fill="#FFB685"/>
<path d="M564.66 137.86C564.66 137.86 564.66 143.715 565.455 143.715C566.249 143.715 569.303 142.502 571.52 145.347C573.737 148.191 573.109 151.161 570.474 151.788C567.839 152.374 569.596 175.964 575.828 174.751C582.102 173.538 582.604 141.917 579.383 136.228C576.163 130.582 565.831 124.308 562.234 124.726C558.595 125.144 534.628 138.027 534.628 138.027L564.66 137.86Z" fill="#7F4D4E"/>
<path d="M536.26 355.861H546.173V363.432H526.096C524.757 363.432 524.297 360.462 525.468 359.835L536.26 355.861Z" fill="#FF5C98"/>
<path d="M565.329 355.861H575.242V363.432H555.165C553.827 363.432 553.367 360.462 554.538 359.835L565.329 355.861Z" fill="#FF5C98"/>
<path d="M579.759 256.062L570.725 252.256C570.725 252.256 568.006 260.161 572.481 262.964C578.086 266.435 579.759 256.062 579.759 256.062Z" fill="#F9A369"/>
<path d="M589.881 172.745C593.52 174.753 596.239 185.251 598.456 203.404C600.631 221.599 600.171 224.736 599.125 226.785C598.079 228.835 579.759 256.064 579.759 256.064L570.724 252.258L586.911 221.139C586.911 221.139 582.269 196.377 582.98 188.095C583.816 178.559 589.923 172.703 589.923 172.703L589.881 172.745Z" fill="#7DA4EA"/>
<path d="M522.624 255.018L531.951 256.021C531.951 256.021 531.407 264.387 526.179 265.223C519.654 266.269 522.624 255.018 522.624 255.018Z" fill="#F9A369"/>
<path d="M562.861 131.838C565.622 131.838 570.892 123.556 566.082 118.955C561.523 114.605 554.161 118.579 553.91 123.305C553.45 131.336 556.88 131.796 562.861 131.796V131.838Z" fill="#7F4D4E"/>
<path d="M127.108 167.431C127.108 170.652 129.743 173.287 132.964 173.287C136.185 173.287 138.82 170.652 138.82 167.431C138.82 164.21 136.185 161.575 132.964 161.575C129.743 161.575 127.108 164.21 127.108 167.431ZM129.2 167.431C129.2 165.34 130.873 163.667 132.964 163.667C135.055 163.667 136.729 165.34 136.729 167.431C136.729 169.522 135.055 171.195 132.964 171.195C130.873 171.195 129.2 169.522 129.2 167.431Z" fill="#0F2337"/>
<path d="M133.425 157.771H114.017L117.74 175.38H129.744L133.425 157.771Z" fill="#0F2337"/>
<path d="M143.212 175.295C144.634 173.161 145.303 167.306 143.504 166.26C141.748 165.214 136.979 161.994 135.39 165.8L133.382 173.538L141.371 178.055L143.212 175.295Z" fill="#F9A369"/>
<path d="M39.9829 243.767H92.4758L91.0954 355.946H81.057C81.057 355.946 73.4445 299.522 70.6002 268.319H63.6569L61.5656 355.946H51.5272C51.5272 355.946 39.6901 267.984 40.0247 251.003C39.7738 249.748 40.0247 243.767 40.0247 243.767H39.9829Z" fill="#0F97C7"/>
<path d="M39.983 243.766H92.4759L99.0428 174.04C99.6284 168.352 94.149 163.458 87.1221 163.458H45.2951C38.31 163.458 32.7888 168.352 33.3744 174.04L39.9413 243.766H39.983Z" fill="#4D4FFA"/>
<path d="M66.5015 170.819C57.216 170.819 57.2577 164.503 57.2577 162.956V152.666C57.2577 150.324 60.7294 150.533 62.8207 150.533H69.4712C71.5207 150.533 75.0341 152.415 75.0341 154.758V162.956C75.0341 164.461 74.0721 170.819 66.5433 170.819H66.5015Z" fill="#F9A369"/>
<path d="M80.7644 150.533C78.0875 159.568 70.5169 158.188 61.4822 155.511C52.4476 152.834 47.261 143.339 49.938 134.263C52.6149 125.228 62.1097 120.041 71.1861 122.718C80.2207 125.395 83.4832 141.457 80.8063 150.491L80.7644 150.533Z" fill="#FFB685"/>
<path d="M61.9424 131.21C61.9424 131.21 61.9425 137.233 61.106 137.233C60.2694 137.233 57.1323 135.978 54.8737 138.906C52.5732 141.834 55.0828 144.72 57.8016 145.347C60.5203 145.975 58.6381 153.044 52.1968 151.789C45.7554 150.534 43.4549 135.351 46.8011 129.537C50.1472 123.723 60.7295 117.24 64.4939 117.658C68.2584 118.076 92.9362 131.377 92.9362 131.377L61.9843 131.168L61.9424 131.21Z" fill="#1A0F91"/>
<path d="M99.2936 171.782L112.678 197.548L133.383 173.539C133.383 172.619 142.961 176.258 141.79 178.349C139.824 181.737 126.481 208.966 115.983 220.05C110.127 226.241 92.9359 203.612 91.9739 202.065C90.4681 199.555 88.4604 184.163 88.1676 175.547C88.084 173.539 89.5897 171.866 91.5556 171.657L94.6508 166.094C96.3657 165.926 98.6662 170.193 99.2517 171.824L99.2936 171.782Z" fill="#4D4FFA"/>
<path d="M37.7663 165.718C37.7663 165.718 13.5068 191.609 4.9323 199.765C0.205857 204.282 4.93228 207.628 7.65103 211.016C15.1381 220.386 39.3558 237.116 39.3558 237.116L38.0173 222.937L23.3779 205.83C23.3779 205.83 43.9568 189.936 44.626 188.806C46.5082 185.669 44.9188 171.95 44.9188 171.95L37.7246 165.718H37.7663Z" fill="#4D4FFA"/>
<path d="M91.2209 355.778H81.0151V363.6H101.678C103.058 363.6 103.518 360.547 102.305 359.877L91.1792 355.778H91.2209Z" fill="#0F2337"/>
<path d="M61.2732 355.778H51.0674V363.6H71.7299C73.1102 363.6 73.5703 360.547 72.3573 359.877L61.2313 355.778H61.2732Z" fill="#0F2337"/>
<path d="M95.6127 183.537H94.7344V221.6H95.6127V183.537Z" fill="#F7BD61"/>
<path d="M43.3715 236.446C45.9648 236.237 47.5125 233.644 47.2615 231.093L46.4249 222.853C46.3413 221.263 43.8317 221.765 42.2423 221.849L37.976 222.978L39.3144 237.158C39.3144 237.158 42.3259 236.572 43.3715 236.488V236.446Z" fill="#F9A369"/>
<path d="M178.639 185.374L178.012 184.746L218.667 144.132L242.802 168.267L278.898 132.17L298.18 151.41L336.034 113.139L336.661 113.766L298.18 152.665L278.898 133.425L242.802 169.521L218.667 145.387L178.639 185.374Z" fill="#FF5C98"/>
<path d="M202.397 180.313C199.72 181.192 191.187 186.797 189.389 191.523C187.632 196.25 175.502 221.053 176.088 224.901C176.673 228.749 212.394 252.089 212.394 252.089L217.706 240.293C217.706 240.293 192.902 223.772 193.781 221.388C194.659 219.045 208.838 195.12 208.838 195.12L202.355 180.355L202.397 180.313Z" fill="#0F97C7"/>
<path d="M202.982 263.34H246.273L245.102 355.819H236.82C236.82 355.819 230.546 309.308 228.204 283.584H222.473L220.759 355.819H212.477C212.477 355.819 202.731 283.291 202.982 269.321C202.773 268.275 202.982 263.34 202.982 263.34Z" fill="#F9A369"/>
<path d="M204.279 233.725H244.684L247.403 184.495C247.821 180.48 243.931 177.05 238.995 177.05H207.165C202.229 177.05 198.34 180.48 198.758 184.495L204.279 233.725Z" fill="#0F97C7"/>
<path d="M226.656 180.355H221.094C219.379 180.355 217.957 178.766 217.957 176.842V169.982C217.957 168.016 219.337 166.469 221.094 166.469H226.656C228.371 166.469 229.794 168.058 229.794 169.982V176.842C229.794 178.808 228.371 180.355 226.656 180.355Z" fill="#F9A369"/>
<path d="M236.11 166.385C233.851 173.956 227.535 172.785 219.965 170.568C212.394 168.309 208.044 160.362 210.303 152.791C212.561 145.221 220.508 140.871 228.079 143.129C235.65 145.388 238.368 158.814 236.11 166.385Z" fill="#FF8860"/>
<path d="M246.399 355.693H237.03V362.846H255.977C257.232 362.846 257.65 360.043 256.563 359.416L246.357 355.651L246.399 355.693Z" fill="#91C1F1"/>
<path d="M221.637 355.693H212.268V362.846H231.215C232.47 362.846 232.888 360.043 231.801 359.416L221.595 355.651L221.637 355.693Z" fill="#91C1F1"/>
<path d="M244.684 233.183H204.28C204.28 233.183 195.371 237.365 194.283 250.959C192.359 275.679 207.835 319.221 207.835 319.221H245.939C245.939 319.221 258.613 267.272 255.81 250.959C253.552 237.867 244.643 233.183 244.643 233.183H244.684Z" fill="#4D4FFA"/>
<path d="M236.11 166.385C233.851 173.956 227.535 172.785 219.965 170.568C212.394 168.309 208.044 160.362 210.303 152.791C212.561 145.221 220.508 140.871 228.079 143.129C235.65 145.388 238.368 158.814 236.11 166.385Z" fill="#FFB685"/>
<path d="M184.118 258.612H278.02L256.772 224.481H196.959L184.118 258.612Z" fill="#0F97C7"/>
<path d="M244.684 232.722H204.279V233.6H244.684V232.722Z" fill="#112256"/>
<path d="M227.368 141.958C219.672 139.615 211.557 143.715 207.417 151.411C203.276 159.107 210.512 161.616 208.17 168.1C205.869 174.416 196.793 173.119 195.621 181.986C194.45 190.854 202.397 190.101 204.029 197.922C204.991 202.481 199.72 205.535 197.964 211.934C192.944 230.254 223.645 238.829 226.908 219.003C230.17 199.219 226.03 199.219 219.839 190.644C214.276 182.948 218.375 175.587 226.615 170.275C234.897 164.963 238.243 145.262 227.368 141.916V141.958Z" fill="white"/>
<path d="M287.18 145.387L295.42 130.915L296.968 131.919L294.416 137.9C294.416 137.9 300.272 139.239 299.896 143.128C299.687 145.22 292.534 149.654 292.534 149.654L287.18 145.429V145.387Z" fill="#F9A369"/>
<path d="M233.14 177.385C233.14 177.385 259.491 173.328 262.545 172.575C265.598 171.822 287.181 145.388 287.181 145.388L293.538 148.692C293.538 148.692 275.26 182.99 271.412 184.538C267.606 186.043 239.372 193.949 239.372 193.949L233.098 177.427L233.14 177.385Z" fill="#0F97C7"/>
</svg>
