<svg width="595" height="400" viewBox="0 0 595 400" fill="none" xmlns="http://www.w3.org/2000/svg">
<g clip-path="url(#clip0_269_2463)">
<path d="M600 0H0V400H600V0Z" fill="white"/>
<path d="M419.77 58.5517C416.91 68.8996 417.723 80.6414 418.083 91.1224C418.529 104.067 421.132 117.075 426.26 128.991C435.698 150.916 454.057 169.46 476.884 176.437C487.859 179.791 500.162 180.353 510.493 175.353C520.556 170.484 527.729 160.734 531.107 150.076C535.451 136.367 533.333 119.887 522.903 109.984C511.703 99.3528 493.512 98.0509 483.537 86.2631C478.683 80.5253 476.48 73.0571 472.804 66.5014C468.274 58.421 461.389 51.6789 453.214 47.3204C445.833 43.3855 434.348 40.8905 426.984 46.2169C424.15 48.2667 422.309 51.4296 421.043 54.6918C420.554 55.9526 420.133 57.24 419.772 58.5492L419.77 58.5517Z" fill="#F6F9FF"/>
<path d="M59.6737 66.1562C62.9134 66.1562 65.5398 63.5299 65.5398 60.2901C65.5398 57.0504 62.9134 54.4241 59.6737 54.4241C56.434 54.4241 53.8076 57.0504 53.8076 60.2901C53.8076 63.5299 56.434 66.1562 59.6737 66.1562Z" fill="#EAF2FC"/>
<path d="M86.2599 66.1562C89.4996 66.1562 92.126 63.5299 92.126 60.2901C92.126 57.0504 89.4996 54.4241 86.2599 54.4241C83.0201 54.4241 80.3938 57.0504 80.3938 60.2901C80.3938 63.5299 83.0201 66.1562 86.2599 66.1562Z" fill="#EAF2FC"/>
<path d="M112.846 66.1562C116.086 66.1562 118.712 63.5299 118.712 60.2901C118.712 57.0504 116.086 54.4241 112.846 54.4241C109.606 54.4241 106.98 57.0504 106.98 60.2901C106.98 63.5299 109.606 66.1562 112.846 66.1562Z" fill="#EAF2FC"/>
<path d="M139.432 66.1562C142.672 66.1562 145.298 63.5299 145.298 60.2901C145.298 57.0504 142.672 54.4241 139.432 54.4241C136.192 54.4241 133.566 57.0504 133.566 60.2901C133.566 63.5299 136.192 66.1562 139.432 66.1562Z" fill="#EAF2FC"/>
<path d="M65.4667 82.3445C65.9897 79.1473 63.8217 76.1314 60.6245 75.6084C57.4272 75.0854 54.4114 77.2533 53.8884 80.4506C53.3654 83.6479 55.5333 86.6637 58.7305 87.1867C61.9278 87.7097 64.9437 85.5418 65.4667 82.3445Z" fill="#EAF2FC"/>
<path d="M92.0561 82.339C92.5752 79.1411 90.4036 76.1279 87.2057 75.6088C84.0078 75.0897 80.9946 77.2613 80.4755 80.4592C79.9565 83.6571 82.128 86.6703 85.3259 87.1894C88.5238 87.7085 91.537 85.5369 92.0561 82.339Z" fill="#EAF2FC"/>
<path d="M118.639 82.3448C119.162 79.1475 116.994 76.1317 113.796 75.6087C110.599 75.0857 107.583 77.2536 107.06 80.4509C106.537 83.6481 108.705 86.664 111.903 87.187C115.1 87.71 118.116 85.542 118.639 82.3448Z" fill="#EAF2FC"/>
<path d="M145.226 82.345C145.749 79.1478 143.581 76.1319 140.384 75.6089C137.187 75.0859 134.171 77.2538 133.648 80.4511C133.125 83.6483 135.293 86.6642 138.49 87.1872C141.687 87.7102 144.703 85.5423 145.226 82.345Z" fill="#EAF2FC"/>
<path d="M65.4657 103.446C65.9887 100.249 63.8208 97.233 60.6235 96.71C57.4263 96.187 54.4104 98.3549 53.8874 101.552C53.3644 104.749 55.5323 107.765 58.7296 108.288C61.9268 108.811 64.9427 106.643 65.4657 103.446Z" fill="#EAF2FC"/>
<path d="M92.0545 103.442C92.5736 100.244 90.402 97.2309 87.2041 96.7119C84.0063 96.1928 80.993 98.3644 80.474 101.562C79.9549 104.76 82.1265 107.773 85.3243 108.292C88.5222 108.812 91.5354 106.64 92.0545 103.442Z" fill="#EAF2FC"/>
<path d="M118.641 103.447C119.164 100.249 116.996 97.2335 113.798 96.7105C110.601 96.1875 107.585 98.3554 107.062 101.553C106.539 104.75 108.707 107.766 111.904 108.289C115.102 108.812 118.118 106.644 118.641 103.447Z" fill="#EAF2FC"/>
<path d="M145.228 103.447C145.751 100.25 143.583 97.2337 140.386 96.7107C137.188 96.1877 134.172 98.3556 133.649 101.553C133.126 104.75 135.294 107.766 138.492 108.289C141.689 108.812 144.705 106.644 145.228 103.447Z" fill="#EAF2FC"/>
<path d="M61.9631 128.988C64.9483 127.73 66.3481 124.289 65.0895 121.304C63.831 118.319 60.3906 116.919 57.4053 118.177C54.4201 119.436 53.0203 122.876 54.2789 125.862C55.5374 128.847 58.9778 130.247 61.9631 128.988Z" fill="#EAF2FC"/>
<path d="M88.5045 129.018C91.4976 127.778 92.919 124.346 91.6792 121.353C90.4394 118.36 87.0079 116.939 84.0148 118.178C81.0216 119.418 79.6003 122.85 80.8401 125.843C82.0799 128.836 85.5113 130.257 88.5045 129.018Z" fill="#EAF2FC"/>
<path d="M115.134 128.984C118.119 127.725 119.519 124.285 118.26 121.3C117.002 118.314 113.561 116.914 110.576 118.173C107.591 119.432 106.191 122.872 107.45 125.857C108.708 128.843 112.148 130.242 115.134 128.984Z" fill="#EAF2FC"/>
<path d="M141.72 128.982C144.705 127.723 146.105 124.283 144.847 121.298C143.588 118.313 140.148 116.913 137.162 118.171C134.177 119.43 132.777 122.87 134.036 125.856C135.294 128.841 138.735 130.241 141.72 128.982Z" fill="#EAF2FC"/>
<path d="M61.9645 150.091C64.9498 148.832 66.3496 145.392 65.091 142.406C63.8324 139.421 60.3921 138.021 57.4068 139.28C54.4215 140.539 53.0217 143.979 54.2803 146.964C55.5389 149.949 58.9792 151.349 61.9645 150.091Z" fill="#EAF2FC"/>
<path d="M88.505 150.12C91.4981 148.881 92.9194 145.449 91.6797 142.456C90.4399 139.463 87.0084 138.041 84.0153 139.281C81.0221 140.521 79.6008 143.953 80.8406 146.946C82.0804 149.939 85.5118 151.36 88.505 150.12Z" fill="#EAF2FC"/>
<path d="M115.135 150.087C118.12 148.828 119.52 145.388 118.261 142.402C117.003 139.417 113.562 138.017 110.577 139.276C107.592 140.534 106.192 143.975 107.451 146.96C108.709 149.945 112.15 151.345 115.135 150.087Z" fill="#EAF2FC"/>
<path d="M141.721 150.085C144.707 148.826 146.107 145.386 144.848 142.4C143.589 139.415 140.149 138.015 137.164 139.274C134.178 140.532 132.779 143.973 134.037 146.958C135.296 149.943 138.736 151.343 141.721 150.085Z" fill="#EAF2FC"/>
<path d="M59.6737 171.668C62.9134 171.668 65.5398 169.042 65.5398 165.802C65.5398 162.562 62.9134 159.936 59.6737 159.936C56.434 159.936 53.8076 162.562 53.8076 165.802C53.8076 169.042 56.434 171.668 59.6737 171.668Z" fill="#EAF2FC"/>
<path d="M86.2599 171.668C89.4996 171.668 92.126 169.042 92.126 165.802C92.126 162.562 89.4996 159.936 86.2599 159.936C83.0201 159.936 80.3938 162.562 80.3938 165.802C80.3938 169.042 83.0201 171.668 86.2599 171.668Z" fill="#EAF2FC"/>
<path d="M112.846 171.668C116.086 171.668 118.712 169.042 118.712 165.802C118.712 162.562 116.086 159.936 112.846 159.936C109.606 159.936 106.98 162.562 106.98 165.802C106.98 169.042 109.606 171.668 112.846 171.668Z" fill="#EAF2FC"/>
<path d="M139.432 171.668C142.672 171.668 145.298 169.042 145.298 165.802C145.298 162.562 142.672 159.936 139.432 159.936C136.192 159.936 133.566 162.562 133.566 165.802C133.566 169.042 136.192 171.668 139.432 171.668Z" fill="#EAF2FC"/>
<path d="M59.6737 192.77C62.9134 192.77 65.5398 190.144 65.5398 186.904C65.5398 183.664 62.9134 181.038 59.6737 181.038C56.434 181.038 53.8076 183.664 53.8076 186.904C53.8076 190.144 56.434 192.77 59.6737 192.77Z" fill="#EAF2FC"/>
<path d="M86.2599 192.77C89.4996 192.77 92.126 190.144 92.126 186.904C92.126 183.664 89.4996 181.038 86.2599 181.038C83.0201 181.038 80.3938 183.664 80.3938 186.904C80.3938 190.144 83.0201 192.77 86.2599 192.77Z" fill="#EAF2FC"/>
<path d="M112.846 192.77C116.086 192.77 118.712 190.144 118.712 186.904C118.712 183.664 116.086 181.038 112.846 181.038C109.606 181.038 106.98 183.664 106.98 186.904C106.98 190.144 109.606 192.77 112.846 192.77Z" fill="#EAF2FC"/>
<path d="M139.432 192.77C142.672 192.77 145.298 190.144 145.298 186.904C145.298 183.664 142.672 181.038 139.432 181.038C136.192 181.038 133.566 183.664 133.566 186.904C133.566 190.144 136.192 192.77 139.432 192.77Z" fill="#EAF2FC"/>
<path d="M133.704 191.975C131.971 192.435 80.6379 234.867 80.6379 234.867L87.5785 281.164L201.043 264.152L194.102 217.855C194.102 217.855 135.436 191.515 133.706 191.975H133.704Z" fill="#6880E4"/>
<path d="M183.933 267.397L101.126 279.814C99.3736 280.075 97.7425 278.87 97.4812 277.118L87.3244 209.377C87.0631 207.625 88.2682 205.994 90.0203 205.733L172.828 193.316C174.58 193.055 176.211 194.26 176.472 196.012L186.629 263.752C186.89 265.504 185.685 267.136 183.933 267.397Z" fill="#EAF2FC"/>
<path d="M168.406 206.267L98.0712 216.816C97.7104 216.87 97.4617 217.207 97.5158 217.568L97.9279 220.315C97.982 220.676 98.3184 220.925 98.6793 220.87L169.014 210.321C169.375 210.267 169.623 209.931 169.569 209.57L169.157 206.822C169.103 206.462 168.767 206.213 168.406 206.267Z" fill="white"/>
<path d="M169.468 213.344L99.1337 223.894C98.7729 223.948 98.5242 224.284 98.5783 224.645L98.9904 227.393C99.0445 227.753 99.3809 228.002 99.7418 227.948L170.076 217.399C170.437 217.344 170.686 217.008 170.632 216.647L170.22 213.9C170.166 213.539 169.829 213.29 169.468 213.344Z" fill="white"/>
<path d="M170.529 220.425L100.194 230.974C99.8333 231.028 99.5846 231.364 99.6388 231.725L100.051 234.473C100.105 234.833 100.441 235.082 100.802 235.028L171.137 224.479C171.498 224.425 171.746 224.088 171.692 223.727L171.28 220.98C171.226 220.619 170.89 220.37 170.529 220.425Z" fill="white"/>
<path d="M172.187 231.571L101.849 242.117C101.489 242.171 101.152 241.924 101.099 241.561L100.688 238.812C100.635 238.451 100.881 238.115 101.244 238.061L171.582 227.515C171.942 227.462 172.279 227.709 172.332 228.072L172.743 230.821C172.796 231.181 172.55 231.518 172.187 231.571Z" fill="white"/>
<path d="M173.246 238.65L102.909 249.196C102.548 249.249 102.212 249.003 102.159 248.64L101.747 245.89C101.694 245.53 101.941 245.193 102.304 245.14L172.641 234.594C173.002 234.541 173.338 234.787 173.392 235.15L173.803 237.9C173.856 238.26 173.609 238.597 173.246 238.65Z" fill="white"/>
<path d="M173.714 241.662L103.379 252.211C103.018 252.265 102.77 252.601 102.824 252.962L103.236 255.71C103.29 256.07 103.626 256.319 103.987 256.265L174.322 245.716C174.683 245.662 174.931 245.325 174.877 244.964L174.465 242.217C174.411 241.856 174.075 241.607 173.714 241.662Z" fill="white"/>
<path d="M81.6328 241.496C81.6328 241.496 137.278 266.637 142.13 265.185C146.983 263.733 195.097 224.483 195.097 224.483L206.086 297.782C206.306 299.246 205.297 300.614 203.831 300.834L95.6737 317.05C94.2096 317.271 92.8423 316.261 92.622 314.795L81.6328 241.496Z" fill="#D4DFFF"/>
<path d="M118.242 275.197L93.4602 278.914C93.1245 278.965 92.8931 279.278 92.9435 279.614L94.0017 286.669C94.052 287.004 94.365 287.236 94.7007 287.185L119.483 283.469C119.818 283.418 120.05 283.105 119.999 282.769L118.941 275.714C118.891 275.378 118.578 275.147 118.242 275.197Z" fill="#8C9EF4"/>
<path d="M194.752 263.721L157.298 269.339C157.069 269.373 156.911 269.586 156.946 269.815L157.296 272.149C157.33 272.377 157.543 272.535 157.772 272.501L195.226 266.883C195.454 266.849 195.612 266.635 195.578 266.407L195.228 264.073C195.193 263.845 194.98 263.687 194.752 263.721Z" fill="#8C9EF4"/>
<path d="M195.435 268.3L157.981 273.918C157.752 273.952 157.595 274.165 157.629 274.394L157.979 276.727C158.013 276.956 158.227 277.114 158.455 277.079L195.909 271.462C196.138 271.427 196.296 271.214 196.261 270.986L195.911 268.652C195.877 268.424 195.664 268.266 195.435 268.3Z" fill="#EAF2FC"/>
<path d="M196.124 272.881L158.67 278.498C158.441 278.533 158.284 278.746 158.318 278.975L158.668 281.308C158.702 281.537 158.916 281.694 159.144 281.66L196.598 276.042C196.827 276.008 196.985 275.795 196.95 275.566L196.6 273.233C196.566 273.004 196.353 272.847 196.124 272.881Z" fill="#EAF2FC"/>
<path d="M196.811 277.462L159.357 283.08C159.128 283.114 158.97 283.327 159.005 283.556L159.355 285.889C159.389 286.118 159.602 286.275 159.831 286.241L197.285 280.623C197.513 280.589 197.671 280.376 197.637 280.147L197.287 277.814C197.252 277.585 197.039 277.428 196.811 277.462Z" fill="#EAF2FC"/>
<path d="M544.537 249.868H532.176C530.455 240.49 526.789 231.635 521.373 223.787L530.114 215.046C531.215 213.945 531.215 212.162 530.114 211.063L516.57 197.518C515.468 196.417 513.685 196.417 512.586 197.518L503.845 206.259C495.997 200.843 487.145 197.177 477.765 195.456V183.095C477.765 181.539 476.504 180.278 474.948 180.278H455.794C454.238 180.278 452.977 181.539 452.977 183.095V195.456C443.599 197.177 434.744 200.843 426.896 206.259L418.155 197.518C417.054 196.417 415.271 196.417 414.172 197.518L400.627 211.063C399.526 212.164 399.526 213.948 400.627 215.046L409.368 223.787C403.952 231.635 400.286 240.488 398.565 249.868H386.204C384.648 249.868 383.387 251.128 383.387 252.684V271.839C383.387 273.395 384.648 274.656 386.204 274.656H398.565C400.286 284.033 403.952 292.888 409.368 300.736L400.627 309.477C399.526 310.578 399.526 312.362 400.627 313.46L414.172 327.005C415.273 328.106 417.057 328.106 418.155 327.005L426.896 318.264C434.744 323.68 443.599 327.346 452.977 329.067V341.428C452.977 342.984 454.238 344.245 455.794 344.245H474.948C476.504 344.245 477.765 342.984 477.765 341.428V329.067C487.142 327.346 495.997 323.68 503.845 318.264L512.586 327.005C513.687 328.106 515.471 328.106 516.57 327.005L530.114 313.46C531.215 312.359 531.215 310.576 530.114 309.477L521.373 300.736C526.789 292.888 530.455 284.036 532.176 274.656H544.537C546.094 274.656 547.354 273.395 547.354 271.839V252.684C547.354 251.128 546.094 249.868 544.537 249.868ZM465.372 307.631C440.356 307.631 420.002 287.278 420.002 262.26C420.002 237.242 440.354 216.89 465.372 216.89C490.39 216.89 510.742 237.242 510.742 262.26C510.742 287.278 490.39 307.631 465.372 307.631Z" fill="#007BA7"/>
<path d="M540.162 249.868H527.801C526.08 240.49 522.414 231.635 516.998 223.787L525.739 215.046C526.84 213.945 526.84 212.162 525.739 211.063L512.194 197.518C511.093 196.417 509.31 196.417 508.211 197.518L499.47 206.259C491.622 200.843 482.769 197.177 473.39 195.456V183.095C473.39 181.539 472.129 180.278 470.573 180.278H451.418C449.862 180.278 448.601 181.539 448.601 183.095V195.456C439.224 197.177 430.369 200.843 422.521 206.259L413.78 197.518C412.679 196.417 410.895 196.417 409.797 197.518L396.252 211.063C395.151 212.164 395.151 213.948 396.252 215.046L404.993 223.787C399.577 231.635 395.911 240.488 394.19 249.868H381.829C380.273 249.868 379.012 251.128 379.012 252.684V271.839C379.012 273.395 380.273 274.656 381.829 274.656H394.19C395.911 284.033 399.577 292.888 404.993 300.736L396.252 309.477C395.151 310.578 395.151 312.362 396.252 313.46L409.797 327.005C410.898 328.106 412.681 328.106 413.78 327.005L422.521 318.264C430.369 323.68 439.224 327.346 448.601 329.067V341.428C448.601 342.984 449.862 344.245 451.418 344.245H470.573C472.129 344.245 473.39 342.984 473.39 341.428V329.067C482.767 327.346 491.622 323.68 499.47 318.264L508.211 327.005C509.312 328.106 511.096 328.106 512.194 327.005L525.739 313.46C526.84 312.359 526.84 310.576 525.739 309.477L516.998 300.736C522.414 292.888 526.08 284.036 527.801 274.656H540.162C541.718 274.656 542.979 273.395 542.979 271.839V252.684C542.979 251.128 541.718 249.868 540.162 249.868ZM460.997 307.631C435.981 307.631 415.627 287.278 415.627 262.26C415.627 237.242 435.979 216.89 460.997 216.89C486.015 216.89 506.367 237.242 506.367 262.26C506.367 287.278 486.015 307.631 460.997 307.631Z" fill="#0F97C7"/>
<path d="M467.857 60.7322H297.012C293.05 60.7322 289.839 63.9436 289.839 67.9051V371.276C289.839 375.238 293.05 378.449 297.012 378.449H467.857C471.818 378.449 475.03 375.238 475.03 371.276V67.9051C475.03 63.9436 471.818 60.7322 467.857 60.7322Z" fill="#6880E4"/>
<path d="M450.779 82.7178H307.546C304.225 82.7178 301.533 85.4102 301.533 88.7315V343.071C301.533 346.392 304.225 349.085 307.546 349.085H450.779C454.1 349.085 456.793 346.392 456.793 343.071V88.7315C456.793 85.4102 454.1 82.7178 450.779 82.7178Z" fill="#F3F3F3"/>
<path d="M410.776 102.346C413.194 102.346 415.154 100.386 415.154 97.9686C415.154 95.5508 413.194 93.5908 410.776 93.5908C408.358 93.5908 406.398 95.5508 406.398 97.9686C406.398 100.386 408.358 102.346 410.776 102.346Z" fill="#0F97C7"/>
<path d="M425.734 102.346C428.152 102.346 430.112 100.386 430.112 97.9686C430.112 95.5508 428.152 93.5908 425.734 93.5908C423.317 93.5908 421.357 95.5508 421.357 97.9686C421.357 100.386 423.317 102.346 425.734 102.346Z" fill="#0F97C7"/>
<path d="M440.692 102.346C443.11 102.346 445.07 100.386 445.07 97.9686C445.07 95.5508 443.11 93.5908 440.692 93.5908C438.275 93.5908 436.315 95.5508 436.315 97.9686C436.315 100.386 438.275 102.346 440.692 102.346Z" fill="#0F97C7"/>
<path d="M410.776 118.372C413.194 118.372 415.154 116.412 415.154 113.994C415.154 111.576 413.194 109.616 410.776 109.616C408.358 109.616 406.398 111.576 406.398 113.994C406.398 116.412 408.358 118.372 410.776 118.372Z" fill="#0F97C7"/>
<path d="M425.734 118.372C428.152 118.372 430.112 116.412 430.112 113.994C430.112 111.576 428.152 109.616 425.734 109.616C423.317 109.616 421.357 111.576 421.357 113.994C421.357 116.412 423.317 118.372 425.734 118.372Z" fill="#0F97C7"/>
<path d="M440.692 118.372C443.11 118.372 445.07 116.412 445.07 113.994C445.07 111.576 443.11 109.616 440.692 109.616C438.275 109.616 436.315 111.576 436.315 113.994C436.315 116.412 438.275 118.372 440.692 118.372Z" fill="#0F97C7"/>
<path d="M412.451 134.062C414.685 133.137 415.746 130.576 414.821 128.342C413.895 126.108 411.334 125.048 409.101 125.973C406.867 126.898 405.806 129.459 406.731 131.693C407.657 133.926 410.218 134.987 412.451 134.062Z" fill="#0F97C7"/>
<path d="M427.41 134.061C429.644 133.136 430.705 130.575 429.78 128.341C428.855 126.108 426.294 125.047 424.06 125.972C421.826 126.897 420.765 129.458 421.691 131.692C422.616 133.926 425.177 134.986 427.41 134.061Z" fill="#0F97C7"/>
<path d="M444.934 131.006C445.489 128.653 444.032 126.295 441.678 125.74C439.325 125.185 436.967 126.642 436.412 128.995C435.857 131.348 437.314 133.706 439.667 134.261C442.02 134.817 444.378 133.36 444.934 131.006Z" fill="#0F97C7"/>
<path d="M410.776 150.417C413.194 150.417 415.154 148.457 415.154 146.04C415.154 143.622 413.194 141.662 410.776 141.662C408.358 141.662 406.398 143.622 406.398 146.04C406.398 148.457 408.358 150.417 410.776 150.417Z" fill="#0F97C7"/>
<path d="M425.734 150.417C428.152 150.417 430.112 148.457 430.112 146.04C430.112 143.622 428.152 141.662 425.734 141.662C423.317 141.662 421.357 143.622 421.357 146.04C421.357 148.457 423.317 150.417 425.734 150.417Z" fill="#0F97C7"/>
<path d="M440.692 150.417C443.11 150.417 445.07 148.457 445.07 146.04C445.07 143.622 443.11 141.662 440.692 141.662C438.275 141.662 436.315 143.622 436.315 146.04C436.315 148.457 438.275 150.417 440.692 150.417Z" fill="#0F97C7"/>
<path d="M410.776 166.44C413.194 166.44 415.154 164.48 415.154 162.063C415.154 159.645 413.194 157.685 410.776 157.685C408.358 157.685 406.398 159.645 406.398 162.063C406.398 164.48 408.358 166.44 410.776 166.44Z" fill="#0F97C7"/>
<path d="M425.734 166.44C428.152 166.44 430.112 164.48 430.112 162.063C430.112 159.645 428.152 157.685 425.734 157.685C423.317 157.685 421.357 159.645 421.357 162.063C421.357 164.48 423.317 166.44 425.734 166.44Z" fill="#0F97C7"/>
<path d="M440.692 166.44C443.11 166.44 445.07 164.48 445.07 162.063C445.07 159.645 443.11 157.685 440.692 157.685C438.275 157.685 436.315 159.645 436.315 162.063C436.315 164.48 438.275 166.44 440.692 166.44Z" fill="#0F97C7"/>
<path d="M408.63 355.587H374.285C371.234 355.587 368.76 358.061 368.76 361.112V364.186C368.76 367.237 371.234 369.711 374.285 369.711H408.63C411.681 369.711 414.154 367.237 414.154 364.186V361.112C414.154 358.061 411.681 355.587 408.63 355.587Z" fill="#1B3D9E"/>
<path d="M274.133 292.135C274.133 292.135 275.198 361.2 297.009 378.449H350.438C350.438 378.449 359.366 313.664 334.778 296.22L274.131 292.135H274.133Z" fill="#4D4FFA"/>
<path d="M300.136 176.324C300.136 176.324 260.886 197.808 248.655 206.607C226.582 222.485 251.349 159.536 247.404 156.845C243.46 154.154 215.221 153.798 211.027 161.443C206.835 169.088 194.781 247.588 223.635 245.615C252.489 243.643 282.69 229.789 282.69 229.789C282.69 229.789 307.302 188.465 300.136 176.324Z" fill="#0F97C7"/>
<path d="M250.369 205.41C250.369 205.41 230.15 226.36 230.15 222.57C230.15 218.78 239.808 196.766 239.808 196.766C239.808 196.766 242.656 207.801 250.366 205.41" fill="#007BA7"/>
<path d="M221.256 155.098C221.256 155.098 216.837 165.845 219.664 168.674C222.49 171.503 236.977 174.509 239.28 173.272C241.587 172.036 246.359 155.098 246.359 155.098C246.359 155.098 228.325 152.659 221.254 155.098H221.256Z" fill="#007BA7"/>
<path d="M330.234 169.608C330.234 169.608 361.144 196.712 359.288 214.163C357.432 231.614 340.724 293.249 334.783 296.218C328.842 299.187 280.321 303.645 274.136 292.133C267.95 280.623 273.518 203.394 281.688 190.769C289.856 178.144 306.576 174.064 306.576 174.064L330.236 169.606L330.234 169.608Z" fill="#0F97C7"/>
<path d="M270.281 237.293C270.281 237.293 303.485 252.815 353.945 247.063L352.899 256.735C352.899 256.735 284.922 261.781 267.403 245.4L270.278 237.291L270.281 237.293Z" fill="white"/>
<path d="M268.47 256.885C268.47 256.885 300.685 268.552 337.864 265.786L335.749 273.31C335.749 273.31 286.536 277.576 267.19 263.923L268.468 256.885H268.47Z" fill="white"/>
<path d="M273.296 233.644C273.296 233.644 275.162 214.039 280.875 199.209C280.875 199.209 265.377 213.761 262.979 237.293C262.979 237.293 268.192 235.386 273.296 233.644Z" fill="#007BA7"/>
<path d="M303.209 179.266C303.209 179.266 302.895 182.016 303.868 182.207C304.84 182.398 316.495 181.735 328.114 176.324L330.461 177.747C330.461 177.747 314.46 186.238 305.479 185.164C296.499 184.09 303.209 179.266 303.209 179.266Z" fill="white"/>
<path d="M311.396 107.949C308.436 108.324 305.448 108.704 302.633 109.694C299.819 110.684 297.15 112.341 295.47 114.81C293.031 118.401 293.004 123.122 291.083 127.014C288.701 131.837 283.675 134.898 281.117 139.629C279.689 142.267 279.108 145.391 279.692 148.334C280.485 152.353 283.36 155.729 286.799 157.961C290.238 160.192 294.219 161.414 298.181 162.462C306.121 164.562 314.22 166.065 322.385 166.953C325.405 160.163 327.763 153.099 329.757 145.938C332.218 137.098 333.837 127.478 330.604 118.89C329.745 116.61 328.537 114.425 326.809 112.707C323.061 108.973 316.645 107.283 311.396 107.946V107.949Z" fill="#1B3D9E"/>
<path opacity="0.24" d="M296.271 119.514C296.271 119.514 279.208 149.254 289.839 157.465C300.47 165.676 311.413 155.947 311.413 155.947L313.02 118.428L296.271 119.514Z" fill="#1C056D"/>
<path d="M332.481 120.262C330.337 116.228 320.604 110.19 311.742 109.919C306.747 109.764 302.171 112.716 300.09 117.261C295.38 127.546 285.139 152.012 292.312 156.025C295.506 157.811 299.707 157.878 303.942 157.041C303.286 163.786 303.124 179.433 303.248 181.558C303.424 184.544 324.249 179.136 328.113 176.326C331.978 173.516 321.606 148.165 321.606 148.165C324.413 144.118 335.463 125.876 332.481 120.264V120.262Z" fill="#FE8E9C"/>
<path d="M303.943 157.042C303.943 157.042 309.763 154.694 314.84 151.521C314.84 151.521 310.457 165.579 301.675 165.216L303.943 157.042Z" fill="#E57492"/>
<path d="M293.914 126.307C294.379 126.201 297.992 126.946 304.581 121.525C304.581 121.525 307.026 125.032 315.21 120.037L316.485 113.234L299.587 111.003L293.914 126.307Z" fill="#E57492"/>
<path d="M306.573 127.2C306.573 127.2 294.967 133.579 295.809 135.261C296.651 136.943 304.891 134.629 305.733 135.048C306.575 135.469 304.061 137.453 302.931 137.376C301.798 137.301 293.916 137.502 293.916 135.389C293.916 133.277 297.609 130.261 306.575 127.198L306.573 127.2Z" fill="#E57492"/>
<path d="M295.821 141.771C295.821 141.771 301.203 144.762 307.582 141.771C307.582 141.771 303.955 146.742 300.073 146.49C294.957 146.158 295.821 141.771 295.821 141.771Z" fill="white"/>
<path d="M313.823 126.019C315.101 128.802 317.598 130.881 318.896 133.654C321.163 138.509 319.305 144.16 318.003 149.358C316.115 156.894 315.614 165.39 319.793 171.939C322.499 176.176 326.92 179.121 331.663 180.784C336.409 182.446 341.486 182.923 346.513 183.042C357.524 183.301 368.571 181.885 379.161 178.862C376.901 177.996 374.522 177.045 373.053 175.123C371.168 172.657 371.255 169.277 371.18 166.174C371.056 161.015 370.229 155.822 368.196 151.078C366.161 146.335 362.86 142.057 358.463 139.353C355.181 137.335 351.261 136.14 348.756 133.214C345.956 129.944 345.588 125.329 344.608 121.138C343.793 117.658 342.474 114.297 340.7 111.194C339.482 109.065 337.951 106.964 335.724 105.938C333.616 104.965 331.17 105.086 328.888 105.498C321.117 106.896 314.167 111.494 313.01 119.928C312.727 121.99 312.952 124.117 313.826 126.019H313.823Z" fill="#1B3D9E"/>
<path opacity="0.24" d="M372.861 168.645C372.861 168.645 337.662 185.68 317.92 174.071C317.92 174.071 333.747 193.741 361.105 189.22C388.463 184.697 389.141 180.794 389.141 180.794L372.861 168.648V168.645Z" fill="#1C056D"/>
<path d="M307.856 119.045C307.64 119.028 307.42 119.006 307.231 118.902C306.735 118.629 306.672 117.932 306.813 117.385C306.953 116.838 307.236 116.308 307.207 115.744C304.204 119.667 299.185 121.516 294.299 122.249C294.05 122.285 293.755 122.307 293.588 122.116C293.515 122.034 293.481 121.925 293.452 121.818C291.973 116.69 293.212 110.86 296.644 106.775C298.328 104.772 300.475 103.196 302.75 101.899C309.105 98.274 316.979 96.7566 323.847 99.2783C326.062 100.091 328.208 101.379 329.457 103.383C329.917 104.121 330.248 104.968 330.234 105.839C330.209 107.209 329.338 108.428 328.31 109.331C327.046 110.442 325.522 111.202 323.949 111.775C323.162 112.063 322.357 112.279 321.56 112.533C321.064 112.69 320.643 112.903 320.292 113.292C319.31 114.384 318.405 115.449 317.204 116.317C315.934 117.237 314.516 117.951 313.02 118.423C311.527 118.892 309.956 119.122 308.391 119.069C308.212 119.064 308.035 119.055 307.856 119.04V119.045Z" fill="#1B3D9E"/>
<path d="M238.511 134.053C238.511 134.053 220.356 160.77 224.666 163.805C228.978 166.84 234.677 167.815 235.539 166.138C236.403 164.461 247.453 135.065 247.453 135.065L238.511 134.053Z" fill="#1B3D9E"/>
<path d="M231.824 142.003C231.824 142.003 247.518 143.566 248.096 142.255C248.675 140.941 250.177 135.924 250.177 135.924C250.177 135.924 233.489 131.2 232.889 132.742C232.289 134.283 231.824 142.001 231.824 142.001V142.003Z" fill="#1C056D"/>
<path d="M262.796 133.918C263.331 132.224 262.677 130.38 261.196 129.4C249.43 121.607 200.026 89.0608 197.066 90.1039C193.705 91.2872 179.497 131.641 182.292 137.003C184.773 141.764 245.629 137.676 259.282 136.696C260.913 136.58 262.305 135.479 262.796 133.92V133.918Z" fill="#68A9FD"/>
<path d="M249.66 118.205C249.66 118.205 253.043 129.785 243.419 142.751C243.419 142.751 266.242 140.617 267.046 138.071C267.849 135.525 269.664 133.175 268.522 131.43C267.379 129.686 249.66 118.205 249.66 118.205Z" fill="#1B3D9E"/>
<path opacity="0.24" d="M181.932 124.335C181.932 124.335 197.967 120.964 212.716 129.182C227.466 137.401 256.332 133.185 256.332 133.185L254.435 139.262C254.435 139.262 195.438 146.236 186.798 144.135C178.159 142.035 178.764 129.398 181.929 124.335" fill="#1C056D"/>
<path d="M194.991 115.384C199.121 102.278 200.198 90.9385 197.398 90.056C194.597 89.1735 188.979 99.0823 184.849 112.188C180.72 125.294 179.642 136.633 182.443 137.516C185.243 138.398 190.861 128.489 194.991 115.384Z" fill="#1B3D9E"/>
<path d="M197.634 112.735C197.634 112.735 189.039 106.78 187.257 112.271C185.476 117.762 185.573 119.691 196.393 120.695L197.634 112.733V112.735Z" fill="white"/>
<path d="M194.43 90.9554C194.43 90.9554 197.153 92.1751 196.32 98.7841C195.602 104.503 188.409 133.756 180.203 136.797C180.203 136.797 181.825 140.336 184.252 140.006C186.682 139.677 194.51 129.153 196.088 122.401C197.668 115.652 203.462 96.8264 203.203 93.736C202.946 90.6457 196.093 87.9619 194.428 90.9554H194.43Z" fill="#1C056D"/>
<path d="M338.314 290.797C338.314 290.797 324.489 297.924 322.746 297.304C321.004 296.685 314.075 293.217 311.258 289.768C311.258 289.768 310.148 297.551 317.088 299.093C317.088 299.093 329.629 298.645 334.783 296.218C334.783 296.218 336.966 295.4 338.316 290.797H338.314Z" fill="#007BA7"/>
<path d="M313.56 278.128C313.56 278.128 300.685 282.615 297.063 285.274C297.06 285.274 278.736 297.096 281.362 298.081C282.806 298.623 288.13 296.05 292.627 293.63C290.168 299.521 287.717 306.498 288.876 306.239C290.732 305.825 299.691 292.527 299.691 292.527C299.691 292.527 293.687 307.821 294.64 307.845C295.596 307.872 301.6 302.933 303.224 293.957C303.224 293.957 301.409 306.56 302.65 306.848C303.892 307.134 307.902 294.431 307.902 294.431C307.902 294.431 318.743 290.209 318.99 288.047C319.237 285.889 313.56 278.125 313.56 278.125V278.128Z" fill="#FE8E9C"/>
<path d="M297.888 283.59C297.777 284.595 306.491 293.336 313.078 293.336C319.666 293.336 320.271 288.832 320.271 288.832L310.322 275.793C310.322 275.793 298.089 281.775 297.888 283.59Z" fill="#E57492"/>
<path d="M281.362 298.081C281.362 298.081 293.225 291.16 294.108 290.654C294.991 290.148 291.835 294.821 291.835 294.821C291.835 294.821 281.209 299.702 281.362 298.083" fill="#E57492"/>
<path d="M351.771 193.893C351.771 193.893 388.517 241.857 385.862 254.538C383.207 267.222 327.463 298.485 322.744 297.305C318.025 296.124 304.872 287.257 306.14 278.124C307.408 268.991 347.519 240.972 347.519 240.972C347.519 240.972 326.223 227.11 327.138 215.901C328.053 204.694 351.771 193.893 351.771 193.893Z" fill="#0F97C7"/>
<path d="M307.585 274.902C307.585 274.902 334.069 249.655 347.522 240.972C347.522 240.972 332.636 234.636 327.141 215.9C327.141 215.9 328.227 240.219 339.829 241.765C339.829 241.765 307.442 262.398 307.585 274.9V274.902Z" fill="#007BA7"/>
<path d="M347.519 192.947C347.519 192.947 332.293 199.164 328.28 212.084C328.28 212.084 325.989 198.98 347.519 192.947Z" fill="#007BA7"/>
<path d="M244.546 142.778C244.546 142.778 233.591 146.441 234.09 147.54C234.588 148.639 242.627 147.847 242.627 147.847L239.798 155.284C239.798 155.284 243.317 155.538 244.834 155.947C244.834 155.947 250.606 146.742 250.108 144.946C249.609 143.15 244.544 142.78 244.544 142.78L244.546 142.778Z" fill="#FE8E9C"/>
<path d="M242.746 156.961C242.746 156.961 246.054 147.238 245.565 147.32C245.074 147.402 241.81 147.92 241.81 147.92L238.867 155.947L242.749 156.961H242.746Z" fill="#E57492"/>
<path d="M235.9 148.208C235.9 148.208 241.466 147.385 242.107 146.291C242.748 145.195 237.744 144.837 237.744 144.837C237.744 144.837 233.39 147.412 234.075 147.835C234.76 148.259 235.902 148.208 235.902 148.208H235.9Z" fill="#E57492"/>
<path d="M229.983 145.13C230.375 144.919 230.82 144.83 231.263 144.837C233.192 144.863 239.934 145.021 241.018 145.931C242.284 146.995 230.849 148.658 229.625 148.409C228.536 148.189 228.209 146.086 229.983 145.13Z" fill="#FE8E9C"/>
<path d="M239.186 149.125C238.104 148.213 231.36 148.058 229.431 148.031C228.986 148.024 228.54 148.114 228.151 148.324C226.752 149.077 226.663 150.541 227.219 151.238C225.6 152.225 225.934 154.222 226.994 154.435C228.219 154.682 238.504 152.779 237.238 151.715C236.655 151.223 235.58 151.194 233.349 151.042C236.594 150.512 239.9 149.723 239.188 149.125H239.186Z" fill="#FE8E9C"/>
<path d="M233.347 151.044C233.347 151.044 229.112 151.913 227.219 151.238C227.219 151.238 232.635 150.773 234.922 150.297C237.209 149.82 239.186 149.125 239.186 149.125C239.186 149.125 239.704 149.406 238.46 149.873C237.216 150.34 233.349 151.042 233.349 151.042L233.347 151.044Z" fill="#E57492"/>
<path d="M196.847 85.8425L191.827 52.3715C191.172 47.9937 187.089 44.9759 182.711 45.6318L112.749 56.1225C108.371 56.7783 105.354 60.8608 106.009 65.2386L111.029 98.7096C111.684 103.087 115.767 106.105 120.145 105.449L157.872 99.7914C162.737 106.938 182.755 118.946 181.325 115.882C180.277 113.636 177.886 102.795 176.644 96.9769L190.107 94.9586C194.485 94.3028 197.502 90.2203 196.847 85.8425Z" fill="#0F97C7"/>
<path d="M112.367 65.5484C111.979 65.5484 111.641 65.2628 111.585 64.8708C111.525 64.44 111.825 64.0383 112.255 63.9778L182.948 53.9276C183.379 53.8671 183.781 54.1671 183.841 54.5979C183.902 55.0287 183.602 55.4304 183.171 55.4909L112.478 65.5411C112.439 65.546 112.403 65.5484 112.367 65.5484Z" fill="white"/>
<path d="M113.995 75.601C113.608 75.601 113.269 75.3155 113.213 74.9234C113.153 74.4927 113.453 74.0909 113.884 74.0304L184.577 63.9802C185.008 63.9197 185.409 64.2197 185.47 64.6505C185.53 65.0813 185.23 65.483 184.799 65.5435L114.106 75.5937C114.068 75.5986 114.031 75.601 113.995 75.601Z" fill="white"/>
<path d="M115.624 85.6513C115.237 85.6513 114.898 85.3657 114.842 84.9737C114.782 84.5429 115.082 84.1412 115.513 84.0807L186.206 74.0305C186.636 73.97 187.038 74.27 187.099 74.7008C187.159 75.1315 186.859 75.5333 186.428 75.5938L115.735 85.644C115.696 85.6489 115.66 85.6513 115.624 85.6513Z" fill="white"/>
<path d="M117.253 95.7014C116.865 95.7014 116.527 95.4158 116.471 95.0238C116.411 94.593 116.711 94.1913 117.141 94.1308L187.834 84.0805C188.265 84.02 188.667 84.3201 188.727 84.7509C188.788 85.1816 188.488 85.5833 188.057 85.6438L117.364 95.6941C117.325 95.6989 117.289 95.7014 117.253 95.7014Z" fill="white"/>
<path d="M201.558 70.5551C211.442 68.1254 221.078 64.7592 230.33 60.5217C239.332 56.3981 248.182 51.5097 256.108 45.5492C259.803 42.771 263.3 39.7001 266.223 36.1015C267.707 34.2744 269.103 32.336 270.211 30.2572C271.061 28.6624 272.138 26.5232 271.586 24.6719C270.678 21.6227 266.199 20.9935 264.585 23.7765C263.677 25.3422 263.503 27.5371 263.464 29.3086C263.423 31.3099 263.721 33.3451 264.278 35.2666C270.018 55.1058 295.304 53.6126 311.388 51.3185C322.232 49.7721 332.882 47.1803 343.571 44.8353C353.856 42.5774 364.216 40.5882 374.663 39.2451C395.313 36.5904 416.595 36.3217 436.85 41.6893C439.287 42.3354 441.702 43.0639 444.093 43.8649C445.749 44.4191 446.46 41.8055 444.812 41.2537C426.297 35.0537 406.549 33.8001 387.18 35.2521C377.338 35.9902 367.549 37.3962 357.844 39.1798C347.976 40.9948 338.218 43.3131 328.412 45.4258C318.423 47.5772 308.307 49.4865 298.075 49.9149C289.717 50.2634 280.663 49.4696 273.687 44.3973C270.579 42.137 268.285 38.8603 267.094 35.2158C266.506 33.4129 266.168 31.5447 266.17 29.6474C266.17 28.7641 266.233 27.8808 266.397 27.012C266.514 26.4022 266.598 25.3616 267.094 24.9187C267.714 24.3645 268.907 24.7808 269.033 25.6084C269.151 26.3876 268.561 27.4742 268.244 28.1567C267.791 29.1271 267.232 30.0491 266.654 30.9493C264.285 34.6374 261.231 37.8391 257.906 40.6802C250.9 46.6648 242.677 51.3911 234.48 55.5341C225.867 59.8877 216.86 63.4354 207.596 66.1386C205.358 66.792 203.105 67.3921 200.84 67.9487C199.148 68.365 199.864 70.9761 201.558 70.5599V70.5551Z" fill="#D4DFFF"/>
<path d="M454.444 46.5003L459.818 48.6396C460.123 48.7606 460.59 48.6613 460.861 48.504C461.142 48.3395 461.411 48.0176 461.483 47.6958C461.662 46.9141 461.244 46.3115 460.537 46.0308C458.746 45.3169 456.953 44.603 455.162 43.8915C454.857 43.7705 454.39 43.8697 454.119 44.027C453.839 44.1916 453.57 44.5135 453.497 44.8353C453.318 45.617 453.737 46.2196 454.444 46.5003Z" fill="#D4DFFF"/>
</g>
<defs>
<clipPath id="clip0_269_2463">
<rect width="600" height="400" fill="white"/>
</clipPath>
</defs>
</svg>
