<svg width="110" height="110" viewBox="0 0 110 110" fill="none" xmlns="http://www.w3.org/2000/svg">
<rect x="2.5" y="2.5" width="105" height="105" rx="52.5" fill="#BABABA" fill-opacity="0.8"/>
<path d="M45.209 41.1562V44H31.7285V41.5664L38.1953 34.5801C38.8698 33.8145 39.403 33.1491 39.7949 32.584C40.1868 32.0189 40.4648 31.5085 40.6289 31.0527C40.8021 30.5879 40.8887 30.1458 40.8887 29.7266C40.8887 29.1159 40.7793 28.5827 40.5605 28.127C40.3418 27.6621 40.0228 27.3021 39.6035 27.0469C39.1934 26.7917 38.6875 26.6641 38.0859 26.6641C37.4206 26.6641 36.8509 26.819 36.377 27.1289C35.9121 27.4297 35.5566 27.849 35.3105 28.3867C35.0736 28.9245 34.9551 29.5397 34.9551 30.2324H31.332C31.332 29.0566 31.6055 27.9857 32.1523 27.0195C32.6992 26.0443 33.4831 25.265 34.5039 24.6816C35.5247 24.0983 36.737 23.8066 38.1406 23.8066C39.5078 23.8066 40.6654 24.0345 41.6133 24.4902C42.5612 24.9368 43.2812 25.5749 43.7734 26.4043C44.2656 27.2337 44.5117 28.2227 44.5117 29.3711C44.5117 30.0091 44.4069 30.638 44.1973 31.2578C43.9876 31.8776 43.6914 32.4928 43.3086 33.1035C42.9349 33.7051 42.4883 34.3158 41.9688 34.9355C41.4492 35.5553 40.8704 36.1888 40.2324 36.8359L36.3496 41.1562H45.209ZM51.457 32.3652V44H47.8477V29.207H51.2383L51.457 32.3652ZM50.8828 36.0703H49.8164C49.8255 34.9948 49.9714 34.0195 50.2539 33.1445C50.5365 32.2695 50.9329 31.5176 51.4434 30.8887C51.9629 30.2598 52.5781 29.7767 53.2891 29.4395C54 29.1022 54.793 28.9336 55.668 28.9336C56.3789 28.9336 57.0215 29.0339 57.5957 29.2344C58.1699 29.4349 58.6621 29.7539 59.0723 30.1914C59.4915 30.6289 59.8105 31.2031 60.0293 31.9141C60.2572 32.6159 60.3711 33.4818 60.3711 34.5117V44H56.7344V34.4844C56.7344 33.8099 56.6341 33.2767 56.4336 32.8848C56.2422 32.4928 55.9596 32.2148 55.5859 32.0508C55.2214 31.8867 54.7702 31.8047 54.2324 31.8047C53.6764 31.8047 53.1888 31.9186 52.7695 32.1465C52.3594 32.3652 52.013 32.6706 51.7305 33.0625C51.457 33.4544 51.2474 33.9056 51.1016 34.416C50.9557 34.9264 50.8828 35.4779 50.8828 36.0703ZM72.4297 40.8555V23H76.0664V44H72.7852L72.4297 40.8555ZM62.9277 36.7812V36.4941C62.9277 35.3639 63.0553 34.3385 63.3105 33.418C63.5749 32.4883 63.9577 31.6908 64.459 31.0254C64.9603 30.36 65.5664 29.8451 66.2773 29.4805C66.9974 29.1159 67.8132 28.9336 68.7246 28.9336C69.6087 28.9336 70.3789 29.1113 71.0352 29.4668C71.7005 29.8223 72.2656 30.3281 72.7305 30.9844C73.2044 31.6406 73.5827 32.4199 73.8652 33.3223C74.1478 34.2155 74.3529 35.1999 74.4805 36.2754V37.0547C74.3529 38.1029 74.1478 39.0645 73.8652 39.9395C73.5827 40.8145 73.2044 41.5801 72.7305 42.2363C72.2656 42.8835 71.7005 43.3848 71.0352 43.7402C70.3698 44.0957 69.5905 44.2734 68.6973 44.2734C67.7949 44.2734 66.9837 44.0866 66.2637 43.7129C65.5527 43.3392 64.9466 42.8151 64.4453 42.1406C63.9531 41.4661 63.5749 40.6732 63.3105 39.7617C63.0553 38.8503 62.9277 37.8568 62.9277 36.7812ZM66.5508 36.4941V36.7812C66.5508 37.4193 66.6055 38.0163 66.7148 38.5723C66.8242 39.1283 67.002 39.6204 67.248 40.0488C67.4941 40.4681 67.8086 40.7962 68.1914 41.0332C68.5833 41.2702 69.0573 41.3887 69.6133 41.3887C70.3242 41.3887 70.9076 41.2337 71.3633 40.9238C71.8281 40.6048 72.1882 40.1719 72.4434 39.625C72.6986 39.069 72.8626 38.4447 72.9355 37.752V35.6055C72.8991 35.0586 72.8034 34.5527 72.6484 34.0879C72.5026 33.623 72.293 33.222 72.0195 32.8848C71.7552 32.5475 71.4271 32.2832 71.0352 32.0918C70.6432 31.9004 70.1784 31.8047 69.6406 31.8047C69.0846 31.8047 68.6107 31.9277 68.2188 32.1738C67.8268 32.4108 67.5078 32.7435 67.2617 33.1719C67.0156 33.6003 66.8333 34.097 66.7148 34.6621C66.6055 35.2272 66.5508 35.8379 66.5508 36.4941ZM25.3711 62.0508V79.6875H21.748V59.207H25.0977L25.3711 62.0508ZM34.873 66.4531V66.7402C34.873 67.8158 34.7454 68.8138 34.4902 69.7344C34.2441 70.6458 33.8796 71.4434 33.3965 72.127C32.9134 72.8014 32.3118 73.3301 31.5918 73.7129C30.8809 74.0866 30.0605 74.2734 29.1309 74.2734C28.2194 74.2734 27.4264 74.1003 26.752 73.7539C26.0775 73.3984 25.5078 72.8971 25.043 72.25C24.5781 71.6029 24.2044 70.8509 23.9219 69.9941C23.6484 69.1283 23.4434 68.1849 23.3066 67.1641V66.248C23.4434 65.1634 23.6484 64.179 23.9219 63.2949C24.2044 62.4017 24.5781 61.6315 25.043 60.9844C25.5078 60.3281 26.0729 59.8223 26.7383 59.4668C27.4128 59.1113 28.2012 58.9336 29.1035 58.9336C30.0423 58.9336 30.8672 59.1113 31.5781 59.4668C32.2982 59.8223 32.9043 60.3327 33.3965 60.998C33.8887 61.6634 34.2578 62.4564 34.5039 63.377C34.75 64.2975 34.873 65.3229 34.873 66.4531ZM31.25 66.7402V66.4531C31.25 65.7969 31.1908 65.1908 31.0723 64.6348C30.9538 64.0697 30.7715 63.5775 30.5254 63.1582C30.2793 62.7298 29.9603 62.3971 29.5684 62.1602C29.1764 61.9232 28.7025 61.8047 28.1465 61.8047C27.5905 61.8047 27.112 61.8958 26.7109 62.0781C26.3099 62.2604 25.9818 62.5202 25.7266 62.8574C25.4714 63.1947 25.2708 63.5957 25.125 64.0605C24.9883 64.5163 24.8971 65.0221 24.8516 65.5781V67.8477C24.9336 68.5221 25.0931 69.1283 25.3301 69.666C25.5671 70.2038 25.9134 70.6322 26.3691 70.9512C26.834 71.2702 27.4355 71.4297 28.1738 71.4297C28.7298 71.4297 29.2038 71.3066 29.5957 71.0605C29.9876 70.8145 30.3066 70.4772 30.5527 70.0488C30.7988 69.6113 30.9766 69.11 31.0859 68.5449C31.1953 67.9798 31.25 67.3783 31.25 66.7402ZM41.3398 53V74H37.7168V53H41.3398ZM52.9336 70.8555V64.0332C52.9336 63.5319 52.847 63.099 52.6738 62.7344C52.5007 62.3698 52.2363 62.0872 51.8809 61.8867C51.5254 61.6862 51.0742 61.5859 50.5273 61.5859C50.0443 61.5859 49.6204 61.668 49.2559 61.832C48.9004 61.9961 48.627 62.2285 48.4355 62.5293C48.2441 62.821 48.1484 63.1582 48.1484 63.541H44.5254C44.5254 62.9303 44.6712 62.3516 44.9629 61.8047C45.2546 61.2487 45.6693 60.7565 46.207 60.3281C46.7539 59.8906 47.4056 59.5488 48.1621 59.3027C48.9277 59.0566 49.7845 58.9336 50.7324 58.9336C51.8535 58.9336 52.8516 59.125 53.7266 59.5078C54.6107 59.8815 55.3034 60.4466 55.8047 61.2031C56.3151 61.9596 56.5703 62.9121 56.5703 64.0605V70.5137C56.5703 71.252 56.6159 71.8854 56.707 72.4141C56.8073 72.9336 56.9531 73.3848 57.1445 73.7676V74H53.4668C53.2936 73.6263 53.1615 73.1523 53.0703 72.5781C52.9792 71.9948 52.9336 71.4206 52.9336 70.8555ZM53.4395 64.9902L53.4668 67.1367H51.1836C50.6185 67.1367 50.1217 67.196 49.6934 67.3145C49.265 67.4238 48.9141 67.5879 48.6406 67.8066C48.3672 68.0163 48.1621 68.2715 48.0254 68.5723C47.8887 68.8639 47.8203 69.1966 47.8203 69.5703C47.8203 69.9349 47.9023 70.263 48.0664 70.5547C48.2396 70.8464 48.4857 71.0788 48.8047 71.252C49.1328 71.416 49.5156 71.498 49.9531 71.498C50.5911 71.498 51.1471 71.3704 51.6211 71.1152C52.0951 70.8509 52.4642 70.5319 52.7285 70.1582C52.9928 69.7845 53.1341 69.429 53.1523 69.0918L54.1914 70.6504C54.0638 71.0241 53.8724 71.4206 53.6172 71.8398C53.362 72.2591 53.0339 72.651 52.6328 73.0156C52.2318 73.3802 51.7487 73.681 51.1836 73.918C50.6185 74.1549 49.9622 74.2734 49.2148 74.2734C48.2578 74.2734 47.401 74.082 46.6445 73.6992C45.888 73.3164 45.291 72.7923 44.8535 72.127C44.416 71.4616 44.1973 70.7051 44.1973 69.8574C44.1973 69.0736 44.3431 68.3809 44.6348 67.7793C44.9264 67.1777 45.3594 66.6719 45.9336 66.2617C46.5078 65.8424 47.2188 65.528 48.0664 65.3184C48.9232 65.0996 49.903 64.9902 51.0059 64.9902H53.4395ZM65.8945 71.4297C66.4049 71.4297 66.8607 71.3294 67.2617 71.1289C67.6628 70.9284 67.9818 70.6458 68.2188 70.2812C68.4648 69.9167 68.597 69.4928 68.6152 69.0098H72.0195C72.0013 70.0124 71.7188 70.9102 71.1719 71.7031C70.625 72.4961 69.8958 73.125 68.9844 73.5898C68.082 74.0456 67.0703 74.2734 65.9492 74.2734C64.8099 74.2734 63.8164 74.082 62.9688 73.6992C62.1211 73.3164 61.4147 72.7832 60.8496 72.0996C60.2936 71.416 59.8743 70.623 59.5918 69.7207C59.3184 68.8184 59.1816 67.8522 59.1816 66.8223V66.3848C59.1816 65.3548 59.3184 64.3887 59.5918 63.4863C59.8743 62.584 60.2936 61.791 60.8496 61.1074C61.4147 60.4238 62.1211 59.8906 62.9688 59.5078C63.8164 59.125 64.8053 58.9336 65.9355 58.9336C67.1296 58.9336 68.1777 59.166 69.0801 59.6309C69.9915 60.0957 70.7025 60.752 71.2129 61.5996C71.7324 62.4473 72.0013 63.4453 72.0195 64.5938H68.6152C68.597 64.0651 68.4785 63.5911 68.2598 63.1719C68.041 62.7526 67.7311 62.4154 67.3301 62.1602C66.929 61.9049 66.4414 61.7773 65.8672 61.7773C65.2565 61.7773 64.7461 61.9049 64.3359 62.1602C63.9349 62.4154 63.6204 62.7663 63.3926 63.2129C63.1738 63.6504 63.0189 64.1426 62.9277 64.6895C62.8457 65.2272 62.8047 65.7923 62.8047 66.3848V66.8223C62.8047 67.4238 62.8457 67.998 62.9277 68.5449C63.0189 69.0918 63.1738 69.584 63.3926 70.0215C63.6204 70.4499 63.9349 70.7917 64.3359 71.0469C64.7461 71.3021 65.2656 71.4297 65.8945 71.4297ZM81.0703 74.2734C79.9492 74.2734 78.9421 74.0911 78.0488 73.7266C77.1556 73.362 76.3945 72.8561 75.7656 72.209C75.1458 71.5527 74.6673 70.7917 74.3301 69.9258C74.002 69.0508 73.8379 68.112 73.8379 67.1094V66.5625C73.8379 65.4232 74.002 64.3887 74.3301 63.459C74.6582 62.5202 75.123 61.7135 75.7246 61.0391C76.3262 60.3646 77.0462 59.8451 77.8848 59.4805C78.7233 59.1159 79.6484 58.9336 80.6602 58.9336C81.7083 58.9336 82.6335 59.1113 83.4355 59.4668C84.2376 59.8132 84.9076 60.3053 85.4453 60.9434C85.9831 61.5814 86.3887 62.347 86.6621 63.2402C86.9355 64.1243 87.0723 65.1042 87.0723 66.1797V67.6973H75.4785V65.209H83.5176V64.9355C83.4993 64.3613 83.39 63.8372 83.1895 63.3633C82.9889 62.8802 82.679 62.4974 82.2598 62.2148C81.8405 61.9232 81.2982 61.7773 80.6328 61.7773C80.0951 61.7773 79.6257 61.8958 79.2246 62.1328C78.8327 62.3607 78.5046 62.6888 78.2402 63.1172C77.985 63.5365 77.7936 64.0378 77.666 64.6211C77.5384 65.2044 77.4746 65.8516 77.4746 66.5625V67.1094C77.4746 67.7292 77.5566 68.3034 77.7207 68.832C77.8939 69.3607 78.1445 69.821 78.4727 70.2129C78.8099 70.5957 79.2109 70.8965 79.6758 71.1152C80.1497 71.3249 80.6875 71.4297 81.2891 71.4297C82.0456 71.4297 82.7292 71.2839 83.3398 70.9922C83.9596 70.6914 84.4974 70.2493 84.9531 69.666L86.7715 71.5527C86.4616 72.0085 86.0423 72.446 85.5137 72.8652C84.9941 73.2845 84.3652 73.6263 83.627 73.8906C82.8887 74.1458 82.0365 74.2734 81.0703 74.2734Z" fill="white"/>
<rect x="2.5" y="2.5" width="105" height="105" rx="52.5" stroke="#BABABA" stroke-width="5"/>
</svg>
