<svg width="110" height="110" viewBox="0 0 110 110" fill="none" xmlns="http://www.w3.org/2000/svg">
<rect x="2.5" y="2.5" width="105" height="105" rx="52.5" fill="#FF3910"/>
<path d="M38.5918 32.4473H40.6289C41.349 32.4473 41.9414 32.3242 42.4062 32.0781C42.8802 31.8229 43.2311 31.4766 43.459 31.0391C43.696 30.5924 43.8145 30.0775 43.8145 29.4941C43.8145 28.9199 43.7096 28.4232 43.5 28.0039C43.2904 27.5755 42.9714 27.2474 42.543 27.0195C42.1237 26.7826 41.5859 26.6641 40.9297 26.6641C40.401 26.6641 39.9134 26.7689 39.4668 26.9785C39.0293 27.1882 38.6784 27.4889 38.4141 27.8809C38.1589 28.2637 38.0312 28.724 38.0312 29.2617H34.4082C34.4082 28.1862 34.6908 27.2428 35.2559 26.4316C35.8301 25.6113 36.6048 24.9688 37.5801 24.5039C38.5553 24.0391 39.6445 23.8066 40.8477 23.8066C42.1602 23.8066 43.3086 24.0254 44.293 24.4629C45.2865 24.8913 46.0566 25.5247 46.6035 26.3633C47.1595 27.2018 47.4375 28.2409 47.4375 29.4805C47.4375 30.0729 47.2962 30.6654 47.0137 31.2578C46.7402 31.8411 46.3346 32.3698 45.7969 32.8438C45.2682 33.3086 44.6165 33.6868 43.8418 33.9785C43.0762 34.2611 42.1966 34.4023 41.2031 34.4023H38.5918V32.4473ZM38.5918 35.2363V33.3086H41.2031C42.3242 33.3086 43.2949 33.4408 44.1152 33.7051C44.9447 33.9603 45.6283 34.3249 46.166 34.7988C46.7038 35.2637 47.1003 35.806 47.3555 36.4258C47.6198 37.0456 47.752 37.7109 47.752 38.4219C47.752 39.3516 47.5788 40.181 47.2324 40.9102C46.8861 41.6302 46.3984 42.2409 45.7695 42.7422C45.1497 43.2435 44.4206 43.6263 43.582 43.8906C42.7435 44.1458 41.8366 44.2734 40.8613 44.2734C40.0137 44.2734 39.1888 44.1595 38.3867 43.9316C37.5938 43.6947 36.8783 43.3438 36.2402 42.8789C35.6022 42.4049 35.0964 41.8125 34.7227 41.1016C34.349 40.3815 34.1621 39.5475 34.1621 38.5996H37.7852C37.7852 39.1465 37.9173 39.6341 38.1816 40.0625C38.4551 40.4909 38.8288 40.8281 39.3027 41.0742C39.7858 41.3112 40.3281 41.4297 40.9297 41.4297C41.5951 41.4297 42.1647 41.3112 42.6387 41.0742C43.1217 40.8281 43.4909 40.4818 43.7461 40.0352C44.0013 39.5794 44.1289 39.0371 44.1289 38.4082C44.1289 37.6608 43.9876 37.0547 43.7051 36.5898C43.4225 36.125 43.0169 35.7832 42.4883 35.5645C41.9688 35.3457 41.349 35.2363 40.6289 35.2363H38.5918ZM54.4375 32.2285V44H50.8281V29.207H54.2461L54.4375 32.2285ZM58.9355 29.1113L58.8809 32.4746C58.6803 32.4382 58.4525 32.4108 58.1973 32.3926C57.9512 32.3743 57.7188 32.3652 57.5 32.3652C56.944 32.3652 56.4564 32.4427 56.0371 32.5977C55.6178 32.7435 55.2669 32.9577 54.9844 33.2402C54.7109 33.5228 54.5013 33.8691 54.3555 34.2793C54.2096 34.6803 54.1276 35.1361 54.1094 35.6465L53.3301 35.5508C53.3301 34.612 53.4258 33.7415 53.6172 32.9395C53.8086 32.1374 54.0866 31.4355 54.4512 30.834C54.8158 30.2324 55.2715 29.7676 55.8184 29.4395C56.3743 29.1022 57.0124 28.9336 57.7324 28.9336C57.9329 28.9336 58.1471 28.9518 58.375 28.9883C58.612 29.0156 58.7988 29.0566 58.9355 29.1113ZM69.5176 40.8555V23H73.1543V44H69.873L69.5176 40.8555ZM60.0156 36.7812V36.4941C60.0156 35.3639 60.1432 34.3385 60.3984 33.418C60.6628 32.4883 61.0456 31.6908 61.5469 31.0254C62.0482 30.36 62.6543 29.8451 63.3652 29.4805C64.0853 29.1159 64.901 28.9336 65.8125 28.9336C66.6966 28.9336 67.4668 29.1113 68.123 29.4668C68.7884 29.8223 69.3535 30.3281 69.8184 30.9844C70.2923 31.6406 70.6706 32.4199 70.9531 33.3223C71.2357 34.2155 71.4408 35.1999 71.5684 36.2754V37.0547C71.4408 38.1029 71.2357 39.0645 70.9531 39.9395C70.6706 40.8145 70.2923 41.5801 69.8184 42.2363C69.3535 42.8835 68.7884 43.3848 68.123 43.7402C67.4577 44.0957 66.6784 44.2734 65.7852 44.2734C64.8828 44.2734 64.0716 44.0866 63.3516 43.7129C62.6406 43.3392 62.0345 42.8151 61.5332 42.1406C61.041 41.4661 60.6628 40.6732 60.3984 39.7617C60.1432 38.8503 60.0156 37.8568 60.0156 36.7812ZM63.6387 36.4941V36.7812C63.6387 37.4193 63.6934 38.0163 63.8027 38.5723C63.9121 39.1283 64.0898 39.6204 64.3359 40.0488C64.582 40.4681 64.8965 40.7962 65.2793 41.0332C65.6712 41.2702 66.1452 41.3887 66.7012 41.3887C67.4121 41.3887 67.9954 41.2337 68.4512 40.9238C68.916 40.6048 69.276 40.1719 69.5312 39.625C69.7865 39.069 69.9505 38.4447 70.0234 37.752V35.6055C69.987 35.0586 69.8913 34.5527 69.7363 34.0879C69.5905 33.623 69.3809 33.222 69.1074 32.8848C68.8431 32.5475 68.515 32.2832 68.123 32.0918C67.7311 31.9004 67.2663 31.8047 66.7285 31.8047C66.1725 31.8047 65.6986 31.9277 65.3066 32.1738C64.9147 32.4108 64.5957 32.7435 64.3496 33.1719C64.1035 33.6003 63.9212 34.097 63.8027 34.6621C63.6934 35.2272 63.6387 35.8379 63.6387 36.4941ZM25.3711 62.0508V79.6875H21.748V59.207H25.0977L25.3711 62.0508ZM34.873 66.4531V66.7402C34.873 67.8158 34.7454 68.8138 34.4902 69.7344C34.2441 70.6458 33.8796 71.4434 33.3965 72.127C32.9134 72.8014 32.3118 73.3301 31.5918 73.7129C30.8809 74.0866 30.0605 74.2734 29.1309 74.2734C28.2194 74.2734 27.4264 74.1003 26.752 73.7539C26.0775 73.3984 25.5078 72.8971 25.043 72.25C24.5781 71.6029 24.2044 70.8509 23.9219 69.9941C23.6484 69.1283 23.4434 68.1849 23.3066 67.1641V66.248C23.4434 65.1634 23.6484 64.179 23.9219 63.2949C24.2044 62.4017 24.5781 61.6315 25.043 60.9844C25.5078 60.3281 26.0729 59.8223 26.7383 59.4668C27.4128 59.1113 28.2012 58.9336 29.1035 58.9336C30.0423 58.9336 30.8672 59.1113 31.5781 59.4668C32.2982 59.8223 32.9043 60.3327 33.3965 60.998C33.8887 61.6634 34.2578 62.4564 34.5039 63.377C34.75 64.2975 34.873 65.3229 34.873 66.4531ZM31.25 66.7402V66.4531C31.25 65.7969 31.1908 65.1908 31.0723 64.6348C30.9538 64.0697 30.7715 63.5775 30.5254 63.1582C30.2793 62.7298 29.9603 62.3971 29.5684 62.1602C29.1764 61.9232 28.7025 61.8047 28.1465 61.8047C27.5905 61.8047 27.112 61.8958 26.7109 62.0781C26.3099 62.2604 25.9818 62.5202 25.7266 62.8574C25.4714 63.1947 25.2708 63.5957 25.125 64.0605C24.9883 64.5163 24.8971 65.0221 24.8516 65.5781V67.8477C24.9336 68.5221 25.0931 69.1283 25.3301 69.666C25.5671 70.2038 25.9134 70.6322 26.3691 70.9512C26.834 71.2702 27.4355 71.4297 28.1738 71.4297C28.7298 71.4297 29.2038 71.3066 29.5957 71.0605C29.9876 70.8145 30.3066 70.4772 30.5527 70.0488C30.7988 69.6113 30.9766 69.11 31.0859 68.5449C31.1953 67.9798 31.25 67.3783 31.25 66.7402ZM41.3398 53V74H37.7168V53H41.3398ZM52.9336 70.8555V64.0332C52.9336 63.5319 52.847 63.099 52.6738 62.7344C52.5007 62.3698 52.2363 62.0872 51.8809 61.8867C51.5254 61.6862 51.0742 61.5859 50.5273 61.5859C50.0443 61.5859 49.6204 61.668 49.2559 61.832C48.9004 61.9961 48.627 62.2285 48.4355 62.5293C48.2441 62.821 48.1484 63.1582 48.1484 63.541H44.5254C44.5254 62.9303 44.6712 62.3516 44.9629 61.8047C45.2546 61.2487 45.6693 60.7565 46.207 60.3281C46.7539 59.8906 47.4056 59.5488 48.1621 59.3027C48.9277 59.0566 49.7845 58.9336 50.7324 58.9336C51.8535 58.9336 52.8516 59.125 53.7266 59.5078C54.6107 59.8815 55.3034 60.4466 55.8047 61.2031C56.3151 61.9596 56.5703 62.9121 56.5703 64.0605V70.5137C56.5703 71.252 56.6159 71.8854 56.707 72.4141C56.8073 72.9336 56.9531 73.3848 57.1445 73.7676V74H53.4668C53.2936 73.6263 53.1615 73.1523 53.0703 72.5781C52.9792 71.9948 52.9336 71.4206 52.9336 70.8555ZM53.4395 64.9902L53.4668 67.1367H51.1836C50.6185 67.1367 50.1217 67.196 49.6934 67.3145C49.265 67.4238 48.9141 67.5879 48.6406 67.8066C48.3672 68.0163 48.1621 68.2715 48.0254 68.5723C47.8887 68.8639 47.8203 69.1966 47.8203 69.5703C47.8203 69.9349 47.9023 70.263 48.0664 70.5547C48.2396 70.8464 48.4857 71.0788 48.8047 71.252C49.1328 71.416 49.5156 71.498 49.9531 71.498C50.5911 71.498 51.1471 71.3704 51.6211 71.1152C52.0951 70.8509 52.4642 70.5319 52.7285 70.1582C52.9928 69.7845 53.1341 69.429 53.1523 69.0918L54.1914 70.6504C54.0638 71.0241 53.8724 71.4206 53.6172 71.8398C53.362 72.2591 53.0339 72.651 52.6328 73.0156C52.2318 73.3802 51.7487 73.681 51.1836 73.918C50.6185 74.1549 49.9622 74.2734 49.2148 74.2734C48.2578 74.2734 47.401 74.082 46.6445 73.6992C45.888 73.3164 45.291 72.7923 44.8535 72.127C44.416 71.4616 44.1973 70.7051 44.1973 69.8574C44.1973 69.0736 44.3431 68.3809 44.6348 67.7793C44.9264 67.1777 45.3594 66.6719 45.9336 66.2617C46.5078 65.8424 47.2188 65.528 48.0664 65.3184C48.9232 65.0996 49.903 64.9902 51.0059 64.9902H53.4395ZM65.8945 71.4297C66.4049 71.4297 66.8607 71.3294 67.2617 71.1289C67.6628 70.9284 67.9818 70.6458 68.2188 70.2812C68.4648 69.9167 68.597 69.4928 68.6152 69.0098H72.0195C72.0013 70.0124 71.7188 70.9102 71.1719 71.7031C70.625 72.4961 69.8958 73.125 68.9844 73.5898C68.082 74.0456 67.0703 74.2734 65.9492 74.2734C64.8099 74.2734 63.8164 74.082 62.9688 73.6992C62.1211 73.3164 61.4147 72.7832 60.8496 72.0996C60.2936 71.416 59.8743 70.623 59.5918 69.7207C59.3184 68.8184 59.1816 67.8522 59.1816 66.8223V66.3848C59.1816 65.3548 59.3184 64.3887 59.5918 63.4863C59.8743 62.584 60.2936 61.791 60.8496 61.1074C61.4147 60.4238 62.1211 59.8906 62.9688 59.5078C63.8164 59.125 64.8053 58.9336 65.9355 58.9336C67.1296 58.9336 68.1777 59.166 69.0801 59.6309C69.9915 60.0957 70.7025 60.752 71.2129 61.5996C71.7324 62.4473 72.0013 63.4453 72.0195 64.5938H68.6152C68.597 64.0651 68.4785 63.5911 68.2598 63.1719C68.041 62.7526 67.7311 62.4154 67.3301 62.1602C66.929 61.9049 66.4414 61.7773 65.8672 61.7773C65.2565 61.7773 64.7461 61.9049 64.3359 62.1602C63.9349 62.4154 63.6204 62.7663 63.3926 63.2129C63.1738 63.6504 63.0189 64.1426 62.9277 64.6895C62.8457 65.2272 62.8047 65.7923 62.8047 66.3848V66.8223C62.8047 67.4238 62.8457 67.998 62.9277 68.5449C63.0189 69.0918 63.1738 69.584 63.3926 70.0215C63.6204 70.4499 63.9349 70.7917 64.3359 71.0469C64.7461 71.3021 65.2656 71.4297 65.8945 71.4297ZM81.0703 74.2734C79.9492 74.2734 78.9421 74.0911 78.0488 73.7266C77.1556 73.362 76.3945 72.8561 75.7656 72.209C75.1458 71.5527 74.6673 70.7917 74.3301 69.9258C74.002 69.0508 73.8379 68.112 73.8379 67.1094V66.5625C73.8379 65.4232 74.002 64.3887 74.3301 63.459C74.6582 62.5202 75.123 61.7135 75.7246 61.0391C76.3262 60.3646 77.0462 59.8451 77.8848 59.4805C78.7233 59.1159 79.6484 58.9336 80.6602 58.9336C81.7083 58.9336 82.6335 59.1113 83.4355 59.4668C84.2376 59.8132 84.9076 60.3053 85.4453 60.9434C85.9831 61.5814 86.3887 62.347 86.6621 63.2402C86.9355 64.1243 87.0723 65.1042 87.0723 66.1797V67.6973H75.4785V65.209H83.5176V64.9355C83.4993 64.3613 83.39 63.8372 83.1895 63.3633C82.9889 62.8802 82.679 62.4974 82.2598 62.2148C81.8405 61.9232 81.2982 61.7773 80.6328 61.7773C80.0951 61.7773 79.6257 61.8958 79.2246 62.1328C78.8327 62.3607 78.5046 62.6888 78.2402 63.1172C77.985 63.5365 77.7936 64.0378 77.666 64.6211C77.5384 65.2044 77.4746 65.8516 77.4746 66.5625V67.1094C77.4746 67.7292 77.5566 68.3034 77.7207 68.832C77.8939 69.3607 78.1445 69.821 78.4727 70.2129C78.8099 70.5957 79.2109 70.8965 79.6758 71.1152C80.1497 71.3249 80.6875 71.4297 81.2891 71.4297C82.0456 71.4297 82.7292 71.2839 83.3398 70.9922C83.9596 70.6914 84.4974 70.2493 84.9531 69.666L86.7715 71.5527C86.4616 72.0085 86.0423 72.446 85.5137 72.8652C84.9941 73.2845 84.3652 73.6263 83.627 73.8906C82.8887 74.1458 82.0365 74.2734 81.0703 74.2734Z" fill="white"/>
<rect x="2.5" y="2.5" width="105" height="105" rx="52.5" stroke="#BC1F0C" stroke-width="5"/>
</svg>
