<svg width="527" height="556" viewBox="0 0 527 556" fill="none" xmlns="http://www.w3.org/2000/svg">
<g clip-path="url(#clip0_497_2180)">
<path d="M216.927 378.171V438.267L222.695 438.276C227.002 434.412 229.265 425.516 227.571 408.593C220.939 342.334 263.577 335.708 263.577 335.708C262.63 354.639 274.948 371.677 288.212 382.089C301.478 392.5 307.162 366.944 319.48 397.233C325.711 412.555 333.639 419.157 339.952 421.941C340.163 420.317 339.867 418.64 339.047 417.166L334.437 407.256L311.342 357.594C301.756 350.299 290.343 338.123 288.212 320.564C285.373 297.161 288.384 236.032 290.073 206.846H237.753C239.633 238.734 242.971 336.343 216.927 378.17V378.171Z" fill="#EF9C77"/>
<path d="M221.133 344.575C218.517 347.532 216.927 351.418 216.927 355.678V378.172C242.971 336.345 239.632 238.736 237.753 206.849H215.571C215.571 206.849 213.889 218.683 220.96 268.709C228.029 318.735 225.083 333.448 221.76 341.781C221.41 342.657 221.211 343.597 221.133 344.576V344.575Z" fill="#EA8D69"/>
<path d="M288.212 320.565C290.343 338.124 301.756 350.3 311.342 357.595L303.987 341.78C300.663 333.447 297.718 318.734 304.787 268.708C311.858 218.681 310.176 206.847 310.176 206.847H290.072C288.383 236.033 285.372 297.162 288.211 320.565H288.212Z" fill="#EA8D69"/>
<path d="M309.014 406.115C309.75 405.894 310.569 405.964 311.283 406.265C311.836 406.499 312.328 406.865 312.664 407.365C314.421 409.656 315.78 411.939 316.947 414.114C319.267 418.448 320.824 422.347 323.235 425.024C325.288 427.298 327.956 428.695 332.249 428.695C335.001 428.695 337.558 427.24 338.959 424.873C339.489 423.957 339.82 422.96 339.952 421.941C333.638 419.157 325.71 412.555 319.48 397.233C307.162 366.944 301.477 392.5 288.212 382.089C274.946 371.676 262.629 354.639 263.577 335.708C263.577 335.708 220.938 342.334 227.571 408.593C229.265 425.517 227.002 434.412 222.694 438.276L308.617 438.422C308.749 438.367 308.88 406.155 309.014 406.115Z" fill="#EFA47D"/>
<path d="M310.344 449.423C310.344 449.423 299.477 428.94 299.17 423C298.862 417.06 306.244 415.933 306.244 415.933L317.418 434.879L318.034 447.784L310.345 449.423H310.344Z" fill="#C32126"/>
<path d="M308.421 451.712C308.421 451.712 311.597 443.781 319.535 445.685C327.474 447.589 325.887 455.202 325.887 455.202L322.268 453.852C322.268 453.852 323.905 451.17 318.284 449.871C312.662 448.571 312.244 452.175 312.244 452.175L308.174 452.217L308.422 451.712H308.421Z" fill="#FAB91B"/>
<path d="M306.408 400.126C306.408 400.126 332.448 417.891 321.333 452.787L312.442 450.883C312.442 450.883 316.57 427.408 301.963 421.381C301.963 421.381 299.422 404.251 306.408 400.126Z" fill="#EE4444"/>
<path d="M216.817 429.545C216.817 429.545 202.998 526.451 181.721 538.259L181.129 544.164L186.449 552.43L192.95 551.249L203.779 531.593L213.046 505.196L226.049 435.525L214.819 427.849" fill="#C32126"/>
<path d="M203.417 531.822C216.288 506.128 222.049 463.53 224.392 441.061C221.192 463.134 212.823 505.229 203.417 531.822Z" fill="#EE4444"/>
<path d="M188.529 550.221C171.98 560.258 198.577 428.591 221.628 426.229L222.219 406.155C222.219 406.155 182.329 426.081 174.617 480.632L174.513 479.629C174.513 479.629 164.913 554.244 178.771 555.662C186.135 556.415 189.077 555.96 190.113 555.254C194.497 553.101 199.068 544.12 203.418 531.822C199.245 540.152 194.324 546.707 188.53 550.221H188.529Z" fill="#EE4444"/>
<path d="M224.392 441.061C225.217 435.372 225.697 431.012 225.765 428.592C225.94 422.311 225.692 428.583 224.392 441.061Z" fill="#EE4444"/>
<path d="M308.801 441.831C309.535 440.381 309.95 438.756 309.95 437.044V407.686C309.95 401.629 304.803 396.669 298.499 396.669C292.195 396.669 287.047 401.629 287.047 407.686V410.516C290.033 408.269 295.236 408.122 300.64 408.122C306.613 408.122 308.316 429.665 308.802 441.83L308.801 441.831Z" fill="#F9B38C"/>
<path d="M298.499 448.063C303.005 448.063 306.937 445.51 308.801 441.832C308.315 429.666 306.612 408.124 300.639 408.124C295.235 408.124 290.032 408.27 287.046 410.518V437.045C287.046 443.101 292.193 448.064 298.498 448.064L298.499 448.063Z" fill="#F6BC95"/>
<path d="M275.582 407.702C268.497 407.702 265.122 412.641 263.657 415.841V437.044C263.657 443.1 268.804 448.063 275.109 448.063C279.817 448.063 283.899 445.276 285.65 441.33C285.32 431.66 283.685 407.702 275.582 407.702Z" fill="#F6BC95"/>
<path d="M275.582 407.702C283.684 407.702 285.319 431.66 285.65 441.33C286.235 440.011 286.56 438.562 286.56 437.044V407.687C286.56 401.629 281.413 396.669 275.109 396.669C268.805 396.669 263.657 401.63 263.657 407.687V415.841C265.122 412.641 268.498 407.702 275.582 407.702Z" fill="#F9B38C"/>
<path d="M261.816 441.837C262.553 440.385 262.967 438.758 262.967 437.044V407.687C262.967 401.629 257.82 396.669 251.516 396.669C245.212 396.669 240.064 401.629 240.064 407.687V409.431C241.205 408.372 244.209 406.647 251.686 406.647C260.309 406.647 261.631 431.767 261.816 441.838V441.837Z" fill="#F9B38C"/>
<path d="M251.516 448.063C256.02 448.063 259.95 445.512 261.815 441.836C261.63 431.767 260.309 406.646 251.685 406.646C244.208 406.646 241.204 408.371 240.064 409.43V437.043C240.064 443.099 245.21 448.062 251.515 448.062L251.516 448.063Z" fill="#F6BC95"/>
<path d="M237.788 442.61C238.793 440.973 239.374 439.07 239.374 437.043V407.686C239.374 401.628 234.227 396.668 227.923 396.668C221.619 396.668 216.472 401.628 216.472 407.686V408.985C218.483 407.139 222.346 404.744 228.846 404.744C237.964 404.744 237.961 434.435 237.788 442.61Z" fill="#F9B38C"/>
<path d="M227.923 448.063C232.103 448.063 235.788 445.865 237.786 442.611C237.96 434.437 237.962 404.745 228.844 404.745C222.343 404.745 218.481 407.14 216.47 408.986V437.044C216.47 443.1 221.616 448.063 227.922 448.063H227.923Z" fill="#F6BC95"/>
<path d="M260.501 318.659L223.513 318.86C219.621 318.881 216.446 315.739 216.425 311.842L216.272 283.687C216.25 279.791 219.39 276.614 223.285 276.593L260.272 276.392L260.324 286.002L260.501 318.658V318.659Z" fill="#C1E0DA"/>
<path d="M297.487 318.458L260.501 318.659L260.324 286.003L260.271 276.393L297.257 276.192C301.152 276.171 304.326 279.312 304.346 283.209L304.499 311.364C304.519 315.261 301.381 318.437 297.486 318.459L297.487 318.458Z" fill="#99D1D7"/>
<path d="M237.806 306.867C237.785 303.086 234.705 300.036 230.924 300.056C227.143 300.076 224.095 303.16 224.115 306.941C224.136 310.724 227.217 313.773 230.998 313.753C234.778 313.733 237.826 310.65 237.805 306.867H237.806Z" fill="#134F78"/>
<path d="M219.087 298.835L261.159 298.748L261.303 3.05176e-05H212.132L212.067 294.371C212.166 296.979 215.309 298.979 219.087 298.835Z" fill="#134F78"/>
<path d="M261.839 298.747H261.159V298.824L303.912 298.836C307.69 298.98 310.832 296.98 310.931 294.372L310.867 0.000976562H261.696L261.839 298.748V298.747Z" fill="#0E3D56"/>
<path d="M261.696 -0.000152588H261.302L261.159 298.748L261.839 298.747L261.696 -0.000152588Z" fill="#0E3D56"/>
<path d="M311.919 531.746C333.944 531.746 351.799 513.909 351.799 491.906C351.799 469.903 333.944 452.067 311.919 452.067C289.894 452.067 272.039 469.903 272.039 491.906C272.039 513.909 289.894 531.746 311.919 531.746Z" fill="#FAB91B"/>
<path d="M337.802 472.767C338.551 481.095 336.96 492.955 325.756 503.615C312.824 515.918 299.492 517.427 291.743 516.975C297.264 521.415 304.28 524.075 311.919 524.075C329.704 524.075 344.121 509.673 344.121 491.906C344.121 484.737 341.772 478.116 337.802 472.767Z" fill="#F6C428"/>
<path d="M325.756 503.615C336.959 492.956 338.551 481.096 337.802 472.767C331.935 464.862 322.527 459.738 311.92 459.738C294.136 459.738 279.72 474.14 279.72 491.906C279.72 502.04 284.412 511.078 291.744 516.975C299.494 517.426 312.825 515.918 325.757 503.615H325.756Z" fill="#FDD41F"/>
<path d="M312.878 505.505L321.437 467.839L313.896 466.129C313.423 468.209 312.271 469.825 310.44 470.978C308.618 472.091 306.685 472.416 304.643 471.953L302.932 479.486C305.68 480.11 308.341 480.033 310.914 479.254L305.337 503.795L300.909 502.791L299.197 510.325L303.625 511.329L311.165 513.038L315.679 514.061L317.39 506.528L312.877 505.505H312.878Z" fill="#EE8F21"/>
<path d="M284.738 488.495C285.114 488.188 285.192 487.569 284.817 486.781C284.445 485.991 283.339 485.59 283.337 485.592C283.328 485.585 282.969 487.063 283.396 487.865C283.814 488.663 284.365 488.795 284.738 488.495ZM285.389 488.621C285.636 489.035 286.194 489.058 286.857 488.586C287.513 488.114 287.86 486.97 287.868 486.969C287.87 486.973 286.728 486.647 286.025 487.108C285.323 487.572 285.143 488.212 285.389 488.621ZM285.335 486.01C285.742 485.748 285.885 485.14 285.598 484.313C285.312 483.486 284.258 482.961 284.255 482.964C284.247 482.956 283.729 484.386 284.071 485.234C284.4 486.076 284.934 486.268 285.335 486.011V486.01ZM285.97 486.209C286.172 486.649 286.723 486.735 287.433 486.34C288.133 485.944 288.602 484.843 288.611 484.844C288.611 484.848 287.512 484.395 286.763 484.774C286.016 485.157 285.77 485.774 285.971 486.209H285.97ZM286.196 483.604C286.63 483.39 286.838 482.799 286.643 481.944C286.45 481.086 285.461 480.446 285.458 480.448C285.449 480.44 284.777 481.807 285.024 482.688C285.262 483.563 285.77 483.816 286.197 483.604H286.196ZM286.806 483.873C286.958 484.335 287.497 484.481 288.245 484.169C288.984 483.854 289.573 482.811 289.582 482.812C289.582 482.815 288.537 482.241 287.751 482.534C286.966 482.831 286.653 483.417 286.806 483.873ZM287.319 481.305C287.773 481.139 288.048 480.576 287.951 479.702C287.858 478.827 286.944 478.077 286.941 478.08C286.933 478.07 286.106 479.356 286.253 480.262C286.391 481.159 286.869 481.467 287.319 481.306V481.305ZM287.895 481.641C287.996 482.117 288.515 482.324 289.295 482.097C290.066 481.865 290.773 480.893 290.781 480.894C290.781 480.899 289.805 480.209 288.987 480.413C288.171 480.621 287.793 481.17 287.894 481.641H287.895ZM288.698 479.142C289.171 479.028 289.51 478.498 289.518 477.616C289.528 476.734 288.706 475.886 288.702 475.887C288.694 475.876 287.713 477.062 287.756 477.981C287.79 478.891 288.231 479.251 288.698 479.142ZM289.234 479.54C289.279 480.026 289.773 480.292 290.578 480.152C291.374 480.01 292.197 479.12 292.205 479.124C292.205 479.128 291.313 478.332 290.469 478.442C289.628 478.556 289.187 479.06 289.234 479.54ZM290.332 477.142C290.82 477.082 291.224 476.593 291.342 475.716C291.463 474.84 290.744 473.902 290.739 473.903C290.733 473.893 289.6 474.962 289.531 475.883C289.454 476.791 289.852 477.2 290.332 477.143V477.142ZM290.82 477.6C290.808 478.088 291.268 478.409 292.091 478.359C292.905 478.306 293.842 477.514 293.852 477.519C293.852 477.522 293.054 476.628 292.194 476.644C291.335 476.663 290.832 477.115 290.82 477.599V477.6ZM292.219 475.335C292.716 475.33 293.185 474.889 293.418 474.03C293.655 473.172 293.053 472.157 293.047 472.157C293.041 472.146 291.756 473.083 291.573 473.99C291.38 474.885 291.73 475.338 292.219 475.334V475.335ZM292.652 475.847C292.576 476.332 293.001 476.702 293.835 476.747C294.659 476.786 295.709 476.104 295.719 476.11C295.719 476.114 295.028 475.135 294.159 475.053C293.29 474.975 292.726 475.368 292.653 475.848L292.652 475.847ZM294.355 473.751C294.86 473.803 295.395 473.417 295.748 472.59C296.105 471.763 295.632 470.686 295.628 470.685C295.621 470.672 294.187 471.458 293.881 472.34C293.567 473.21 293.86 473.701 294.355 473.751ZM294.726 474.309C294.586 474.783 294.966 475.199 295.804 475.339C296.631 475.47 297.794 474.913 297.804 474.918C297.802 474.922 297.234 473.87 296.361 473.689C295.487 473.513 294.863 473.84 294.727 474.309H294.726ZM296.74 472.418C297.246 472.527 297.846 472.204 298.325 471.421C298.809 470.64 298.478 469.514 298.472 469.513C298.467 469.5 296.883 470.117 296.45 470.96C296.009 471.789 296.242 472.309 296.74 472.418ZM297.04 473.015C296.832 473.471 297.16 473.928 297.995 474.162C298.82 474.387 300.092 473.964 300.104 473.972C300.101 473.976 299.668 472.863 298.797 472.585C297.926 472.31 297.243 472.565 297.04 473.015ZM301.498 471.117C301.615 471.552 302.237 471.761 303.283 471.593C304.313 471.421 305.472 470.534 305.487 470.536C305.499 470.533 304.154 469.813 303.006 470.003C301.869 470.188 301.387 470.69 301.498 471.118V471.117ZM299.367 471.365C299.872 471.531 300.536 471.278 301.148 470.556C301.765 469.836 301.588 468.68 301.582 468.678C301.576 468.664 299.845 469.095 299.28 469.883C298.706 470.657 298.872 471.201 299.367 471.365ZM299.591 471.992C299.312 472.421 299.583 472.914 300.41 473.242C301.225 473.56 302.605 473.286 302.617 473.296C302.615 473.299 302.327 472.145 301.467 471.767C300.606 471.393 299.866 471.568 299.592 471.992H299.591ZM285.067 491.079C285.356 491.463 285.913 491.423 286.523 490.88C287.125 490.338 287.351 489.162 287.358 489.159C287.36 489.164 286.189 488.969 285.539 489.505C284.891 490.044 284.779 490.7 285.067 491.079ZM285.003 493.559C285.332 493.907 285.882 493.805 286.431 493.197C286.973 492.589 287.074 491.397 287.082 491.393C287.084 491.397 285.899 491.335 285.309 491.942C284.72 492.55 284.678 493.215 285.003 493.559ZM285.204 496.031C285.567 496.342 286.103 496.177 286.585 495.51C287.06 494.846 287.033 493.649 287.041 493.646C287.043 493.649 285.859 493.721 285.334 494.39C284.813 495.061 284.841 495.727 285.203 496.031H285.204ZM285.668 498.469C286.064 498.737 286.579 498.513 286.987 497.794C287.385 497.079 287.233 495.892 287.239 495.888C287.242 495.89 286.071 496.096 285.622 496.82C285.175 497.547 285.275 498.206 285.668 498.469ZM286.401 500.843C286.826 501.064 287.313 500.784 287.637 500.022C287.955 499.265 287.671 498.102 287.678 498.096C287.68 498.1 286.538 498.435 286.17 499.208C285.805 499.981 285.979 500.625 286.4 500.843H286.401ZM287.403 503.125C287.852 503.299 288.305 502.965 288.541 502.168C288.767 501.378 288.354 500.251 288.36 500.246C288.363 500.248 287.263 500.712 286.986 501.521C286.711 502.332 286.958 502.955 287.403 503.124V503.125ZM288.68 505.288C289.151 505.41 289.562 505.026 289.699 504.207C289.828 503.394 289.281 502.316 289.288 502.31C289.291 502.312 288.248 502.896 288.067 503.736C287.889 504.575 288.213 505.169 288.68 505.287V505.288ZM290.23 507.304C290.719 507.374 291.083 506.944 291.114 506.111C291.14 505.285 290.458 504.271 290.464 504.264C290.468 504.266 289.497 504.966 289.42 505.823C289.347 506.68 289.747 507.237 290.23 507.303V507.304ZM292.059 509.145C292.563 509.161 292.869 508.691 292.789 507.855C292.701 507.027 291.883 506.092 291.889 506.083C291.893 506.083 291.008 506.892 291.044 507.756C291.084 508.621 291.562 509.131 292.059 509.144V509.145ZM294.168 510.783C294.682 510.744 294.927 510.24 294.724 509.414C294.516 508.595 293.561 507.75 293.565 507.743C293.57 507.743 292.787 508.648 292.942 509.507C293.101 510.366 293.661 510.825 294.167 510.783H294.168ZM284.406 491.028C284.748 490.682 284.761 490.057 284.304 489.317C283.85 488.576 282.71 488.3 282.707 488.303C282.697 488.298 282.496 489.806 283.006 490.554C283.507 491.298 284.067 491.368 284.406 491.027V491.028ZM284.34 493.583C284.645 493.201 284.591 492.579 284.06 491.894C283.53 491.209 282.366 491.064 282.364 491.068C282.354 491.063 282.311 492.584 282.898 493.269C283.473 493.953 284.039 493.958 284.34 493.582V493.583ZM284.546 496.131C284.808 495.716 284.689 495.104 284.087 494.484C283.489 493.863 282.317 493.85 282.313 493.854C282.304 493.85 282.422 495.366 283.079 495.982C283.723 496.597 284.286 496.539 284.546 496.131ZM285.024 498.642C285.239 498.2 285.055 497.603 284.391 497.054C283.728 496.504 282.559 496.624 282.558 496.627C282.546 496.625 282.827 498.119 283.547 498.659C284.255 499.199 284.809 499.076 285.023 498.642H285.024ZM285.779 501.087C285.943 500.622 285.694 500.051 284.972 499.58C284.252 499.106 283.103 499.357 283.102 499.361C283.09 499.361 283.533 500.815 284.312 501.272C285.078 501.729 285.616 501.546 285.78 501.088L285.779 501.087ZM286.812 503.439C286.922 502.957 286.605 502.415 285.833 502.027C285.06 501.637 283.946 502.015 283.945 502.021C283.933 502.021 284.538 503.42 285.369 503.787C286.186 504.156 286.702 503.913 286.812 503.439ZM288.127 505.668C288.177 505.175 287.794 504.67 286.977 504.37C286.161 504.068 285.094 504.57 285.094 504.575C285.081 504.576 285.852 505.904 286.728 506.177C287.59 506.455 288.076 506.155 288.127 505.669V505.668ZM289.724 507.744C289.712 507.248 289.263 506.786 288.407 506.578C287.552 506.367 286.547 506.988 286.547 506.992C286.535 506.995 287.471 508.232 288.385 508.408C289.286 508.589 289.737 508.236 289.723 507.744H289.724ZM291.609 509.641C291.528 509.147 291.013 508.734 290.125 508.623C289.237 508.506 288.311 509.24 288.311 509.243C288.297 509.247 289.401 510.379 290.348 510.452C291.282 510.533 291.689 510.131 291.609 509.641ZM293.781 511.33C293.628 510.843 293.047 510.488 292.134 510.475C291.221 510.457 290.385 511.291 290.386 511.295C290.372 511.301 291.645 512.309 292.617 512.279C293.577 512.257 293.933 511.809 293.781 511.329V511.33ZM295.415 511.617C295.614 511.733 295.815 511.846 296.021 511.955C296.454 512.187 296.364 512.464 296.364 512.465C296.364 512.465 296.178 512.702 295.731 512.463C295.521 512.35 295.314 512.234 295.11 512.115C294.866 511.972 294.472 512.052 294.097 512.171C293.335 512.402 292.777 513.113 292.778 513.115C292.764 513.123 294.205 513.991 295.199 513.855C295.366 513.834 295.513 513.801 295.642 513.76C296.545 513.564 297.403 513.306 298.565 513.756C299.297 514.034 299.756 514.208 300.548 514.427C301.089 514.575 301.218 514.302 301.217 514.303C301.218 514.303 301.232 514.01 300.706 513.866C299.935 513.653 299.495 513.485 298.782 513.215C297.637 512.772 297.319 511.93 297.053 511.151C297.024 511.029 296.984 510.9 296.928 510.76C296.591 509.964 295.496 509.225 295.501 509.216C295.505 509.216 294.999 509.974 295.058 510.728C295.084 511.1 295.179 511.476 295.418 511.617H295.415Z" fill="#FAB91B"/>
<path d="M340.759 500.677C341.512 500.167 341.883 498.693 341.872 498.694C341.87 498.689 340.706 498.531 340.008 499.056C339.308 499.577 339.088 500.163 339.278 500.609C339.467 501.049 340.015 501.188 340.757 500.677H340.759ZM338.788 498.782C338.38 498.047 337.218 497.804 337.221 497.8C337.228 497.806 337.002 498.979 337.36 499.702C337.727 500.428 338.231 500.668 338.643 500.417C339.051 500.17 339.191 499.519 338.788 498.782ZM341.391 498.034C342.088 497.444 342.297 495.938 342.287 495.94C342.285 495.937 341.108 495.909 340.469 496.508C339.828 497.105 339.671 497.711 339.909 498.133C340.144 498.547 340.707 498.625 341.391 498.034ZM339.223 496.373C338.739 495.689 337.554 495.577 337.556 495.574C337.565 495.578 337.465 496.77 337.9 497.447C338.343 498.126 338.871 498.307 339.254 498.011C339.636 497.721 339.707 497.06 339.223 496.373ZM341.737 495.339C342.366 494.673 342.409 493.152 342.399 493.155C342.396 493.15 341.221 493.257 340.651 493.926C340.08 494.591 339.989 495.21 340.272 495.602C340.551 495.988 341.119 496.002 341.738 495.339H341.737ZM339.395 493.931C338.836 493.306 337.644 493.326 337.647 493.323C337.657 493.327 337.689 494.523 338.196 495.147C338.712 495.772 339.256 495.894 339.608 495.556C339.954 495.224 339.952 494.559 339.395 493.931ZM341.782 492.618C342.336 491.886 342.204 490.363 342.192 490.368C342.19 490.365 341.033 490.604 340.541 491.332C340.048 492.061 340.028 492.688 340.353 493.045C340.674 493.397 341.241 493.348 341.782 492.618ZM339.291 491.48C338.664 490.919 337.478 491.074 337.481 491.07C337.49 491.073 337.661 492.261 338.235 492.826C338.818 493.39 339.375 493.448 339.686 493.075C339.995 492.704 339.917 492.043 339.291 491.48ZM341.517 489.902C341.983 489.109 341.669 487.603 341.659 487.609C341.655 487.606 340.531 487.973 340.129 488.759C339.725 489.542 339.777 490.169 340.143 490.491C340.505 490.806 341.064 490.692 341.517 489.903V489.902ZM338.902 489.046C338.21 488.555 337.047 488.843 337.051 488.84C337.059 488.842 337.372 490.012 338.009 490.509C338.655 491.007 339.217 491.003 339.483 490.594C339.748 490.191 339.594 489.541 338.902 489.047V489.046ZM340.928 487.218C341.297 486.373 340.794 484.898 340.783 484.905C340.78 484.902 339.707 485.397 339.403 486.229C339.097 487.059 339.228 487.68 339.63 487.961C340.028 488.235 340.572 488.06 340.927 487.219L340.928 487.218ZM338.216 486.654C337.465 486.24 336.341 486.658 336.341 486.654C336.352 486.654 336.811 487.792 337.506 488.217C338.211 488.643 338.77 488.576 338.986 488.137C339.201 487.703 338.966 487.07 338.216 486.653V486.654ZM340.005 484.594C340.266 483.706 339.566 482.279 339.556 482.286C339.551 482.283 338.545 482.901 338.353 483.77C338.158 484.639 338.368 485.247 338.805 485.484C339.238 485.715 339.758 485.477 340.005 484.595V484.594ZM337.223 484.33C336.415 483.997 335.348 484.542 335.349 484.537C335.361 484.537 335.972 485.63 336.719 485.979C337.476 486.328 338.024 486.198 338.185 485.734C338.345 485.276 338.03 484.666 337.223 484.33ZM338.735 482.06C338.876 481.137 337.973 479.774 337.961 479.782C337.957 479.78 337.036 480.513 336.965 481.411C336.891 482.308 337.184 482.898 337.654 483.088C338.117 483.273 338.606 482.977 338.734 482.061L338.735 482.06ZM335.911 482.099C335.054 481.851 334.061 482.518 334.061 482.514C334.073 482.514 334.84 483.548 335.635 483.817C336.441 484.085 336.97 483.893 337.068 483.409C337.166 482.93 336.767 482.35 335.912 482.099H335.911ZM337.105 479.644C337.115 478.697 336.003 477.413 335.991 477.422C335.986 477.421 335.168 478.262 335.231 479.179C335.29 480.094 335.67 480.659 336.169 480.8C336.66 480.935 337.109 480.582 337.105 479.645V479.644ZM334.271 479.988C333.372 479.829 332.469 480.611 332.469 480.606C332.481 480.605 333.41 481.571 334.245 481.755C335.092 481.938 335.597 481.687 335.626 481.187C335.655 480.692 335.171 480.15 334.272 479.988H334.271ZM331.753 475.742C330.826 475.039 329.299 475.049 329.309 475.057C329.323 475.063 329.934 476.387 330.764 477.019C331.61 477.656 332.259 477.76 332.565 477.429C332.863 477.103 332.671 476.434 331.753 475.742ZM335.105 477.372C334.972 476.412 333.641 475.224 333.631 475.233C333.626 475.233 332.928 476.173 333.138 477.097C333.342 478.021 333.811 478.554 334.335 478.642C334.85 478.727 335.25 478.323 335.105 477.371V477.372ZM332.291 478.021C331.354 477.954 330.56 478.842 330.559 478.838C330.574 478.835 331.666 479.721 332.536 479.819C333.421 479.914 333.891 479.605 333.844 479.094C333.8 478.591 333.227 478.091 332.291 478.021ZM338.098 501.133C337.774 500.356 336.648 499.982 336.651 499.98C336.657 499.986 336.306 501.13 336.587 501.89C336.873 502.655 337.348 502.95 337.783 502.746C338.213 502.545 338.421 501.913 338.098 501.133ZM337.165 503.396C336.925 502.585 335.848 502.087 335.854 502.085C335.858 502.093 335.39 503.193 335.587 503.983C335.789 504.777 336.227 505.124 336.682 504.969C337.13 504.816 337.403 504.209 337.166 503.396H337.165ZM335.999 505.55C335.848 504.713 334.835 504.098 334.837 504.096C334.843 504.103 334.262 505.149 334.37 505.958C334.485 506.772 334.884 507.168 335.348 507.063C335.811 506.962 336.146 506.387 335.998 505.55H335.999ZM334.612 507.566C334.552 506.716 333.611 505.988 333.616 505.987C333.62 505.995 332.93 506.974 332.949 507.791C332.974 508.617 333.327 509.054 333.801 509.002C334.271 508.953 334.669 508.416 334.612 507.565V507.566ZM333.011 509.421C333.045 508.567 332.192 507.737 332.197 507.736C332.2 507.744 331.406 508.642 331.334 509.458C331.265 510.283 331.567 510.759 332.044 510.76C332.518 510.764 332.974 510.274 333.011 509.421ZM331.21 511.089C331.342 510.243 330.586 509.32 330.59 509.32C330.593 509.328 329.7 510.132 329.531 510.937C329.368 511.75 329.614 512.257 330.092 512.313C330.565 512.371 331.075 511.934 331.21 511.089ZM329.218 512.544C329.451 511.717 328.801 510.714 328.805 510.714C328.808 510.723 327.821 511.422 327.556 512.201C327.295 512.989 327.48 513.522 327.955 513.632C328.422 513.744 328.985 513.37 329.218 512.545V512.544ZM327.049 513.761C327.381 512.967 326.848 511.895 326.852 511.895C326.855 511.905 325.778 512.485 325.415 513.226C325.056 513.978 325.175 514.528 325.641 514.694C326.099 514.86 326.713 514.554 327.05 513.762L327.049 513.761ZM324.71 514.714C325.146 513.967 324.739 512.839 324.743 512.84C324.743 512.85 323.584 513.297 323.12 513.988C322.659 514.69 322.711 515.248 323.164 515.469C323.61 515.689 324.273 515.46 324.71 514.713V514.714ZM322.212 515.378C322.752 514.689 322.48 513.525 322.485 513.527C322.485 513.535 321.246 513.839 320.679 514.465C320.115 515.103 320.096 515.66 320.532 515.936C320.961 516.209 321.67 516.063 322.212 515.378ZM339.851 503.241C340.652 502.817 341.176 501.389 341.167 501.39C341.165 501.386 340.028 501.099 339.281 501.542C338.53 501.984 338.25 502.543 338.391 503.009C338.532 503.468 339.062 503.667 339.852 503.242L339.851 503.241ZM338.678 505.693C339.517 505.36 340.189 503.995 340.179 503.995C340.179 503.99 339.082 503.577 338.292 503.936C337.503 504.293 337.165 504.819 337.256 505.299C337.348 505.772 337.851 506.032 338.678 505.694V505.693ZM337.253 508.008C338.121 507.77 338.933 506.483 338.922 506.482C338.922 506.478 337.879 505.942 337.058 506.213C336.237 506.481 335.846 506.967 335.884 507.455C335.924 507.938 336.394 508.252 337.252 508.008H337.253ZM335.587 510.157C336.476 510.016 337.421 508.825 337.409 508.821C337.409 508.817 336.433 508.167 335.59 508.346C334.747 508.522 334.305 508.963 334.288 509.454C334.274 509.938 334.708 510.304 335.585 510.157H335.587ZM333.693 512.113C334.595 512.072 335.665 510.992 335.654 510.986C335.654 510.982 334.756 510.225 333.897 510.309C333.039 510.389 332.551 510.779 332.48 511.267C332.411 511.748 332.802 512.16 333.693 512.114V512.113ZM331.581 513.844C332.487 513.906 333.677 512.95 333.666 512.945C333.667 512.941 332.859 512.086 331.993 512.072C331.129 512.055 330.596 512.387 330.468 512.865C330.344 513.335 330.685 513.791 331.581 513.844ZM329.266 515.325C330.168 515.492 331.47 514.677 331.459 514.669C331.461 514.665 330.751 513.723 329.888 513.61C329.024 513.494 328.452 513.764 328.265 514.223C328.083 514.677 328.373 515.168 329.266 515.325ZM326.757 516.526C327.648 516.797 329.053 516.139 329.044 516.13C329.046 516.126 328.447 515.108 327.592 514.897C326.737 514.682 326.126 514.882 325.882 515.315C325.642 515.744 325.875 516.266 326.757 516.525V516.526ZM324.066 517.421C324.94 517.796 326.444 517.31 326.434 517.299C326.436 517.296 325.958 516.215 325.118 515.905C324.281 515.591 323.634 515.715 323.331 516.115C323.032 516.511 323.203 517.056 324.066 517.421ZM321.207 517.979C322.054 518.457 323.649 518.159 323.639 518.147C323.643 518.144 323.293 517.017 322.477 516.606C321.663 516.194 320.983 516.237 320.62 516.596C320.261 516.949 320.368 517.511 321.207 517.979ZM319.774 515.471C320.179 514.832 320.084 513.927 320.087 513.928C320.087 513.937 318.773 514.082 318.105 514.629C317.99 514.725 317.894 514.822 317.813 514.916C317.213 515.482 316.54 516.078 315.319 515.937C314.562 515.843 314.094 515.788 313.313 515.617C312.782 515.499 312.657 515.764 312.657 515.765C312.657 515.764 312.643 516.064 313.191 516.187C313.993 516.362 314.48 516.421 315.259 516.516C316.496 516.66 317.135 517.287 317.841 517.882C317.936 517.979 318.051 518.076 318.189 518.173C319.005 518.756 320.685 518.659 320.677 518.646C320.677 518.645 320.514 517.756 319.948 517.197C319.673 516.918 319.361 516.662 319.08 516.675C318.844 516.685 318.607 516.691 318.368 516.693C317.859 516.695 317.806 516.398 317.807 516.399C317.807 516.398 317.856 516.111 318.348 516.108C318.58 516.106 318.812 516.1 319.041 516.09C319.319 516.078 319.578 515.788 319.775 515.471H319.774Z" fill="#FAB91B"/>
<path d="M389.886 201.715V246.229L394.158 246.236C397.348 243.374 399.025 236.785 397.77 224.249C392.857 175.172 424.439 170.264 424.439 170.264C423.737 184.286 432.861 196.906 442.686 204.618C452.511 212.331 456.722 193.4 465.847 215.836C470.462 227.185 476.334 232.076 481.011 234.137C481.167 232.934 480.947 231.693 480.339 230.6L476.925 223.26L459.819 186.476C452.719 181.072 444.265 172.054 442.686 159.047C440.582 141.712 442.813 96.4346 444.064 74.8168H405.31C406.703 98.4363 409.175 170.735 389.885 201.716L389.886 201.715Z" fill="#EF9C77"/>
<path d="M393 176.83C391.062 179.02 389.886 181.899 389.886 185.054V201.715C409.176 170.734 406.704 98.4352 405.311 74.8158H388.88C388.88 74.8158 387.636 83.5808 392.872 120.635C398.108 157.69 395.926 168.588 393.464 174.76C393.205 175.409 393.057 176.105 392.999 176.83H393Z" fill="#EA8D69"/>
<path d="M442.686 159.046C444.265 172.052 452.718 181.07 459.819 186.474L454.371 174.76C451.909 168.588 449.727 157.689 454.963 120.635C460.199 83.5806 458.955 74.8156 458.955 74.8156H444.064C442.813 96.4334 440.582 141.712 442.686 159.046Z" fill="#EA8D69"/>
<path d="M458.095 222.414C458.641 222.249 459.247 222.302 459.776 222.525C460.186 222.698 460.551 222.969 460.798 223.339C462.1 225.036 463.107 226.726 463.971 228.338C465.69 231.548 466.843 234.437 468.628 236.418C470.149 238.104 472.126 239.137 475.304 239.137C477.343 239.137 479.237 238.06 480.274 236.307C480.667 235.628 480.912 234.889 481.01 234.135C476.333 232.073 470.461 227.183 465.846 215.834C456.722 193.399 452.511 212.328 442.685 204.616C432.86 196.903 423.735 184.284 424.438 170.261C424.438 170.261 392.856 175.17 397.769 224.247C399.023 236.783 397.347 243.371 394.157 246.234L457.801 246.341C457.898 246.3 457.996 222.441 458.094 222.412L458.095 222.414Z" fill="#EFA47D"/>
<path d="M458.569 257.904C458.569 257.904 450.52 242.733 450.292 238.333C450.064 233.933 455.532 233.099 455.532 233.099L463.809 247.132L464.264 256.691L458.568 257.904H458.569Z" fill="#C32126"/>
<path d="M457.242 259.552C457.242 259.552 459.595 253.678 465.475 255.088C471.356 256.498 470.179 262.137 470.179 262.137L467.499 261.138C467.499 261.138 468.711 259.152 464.548 258.189C460.383 257.227 460.074 259.896 460.074 259.896L457.059 259.927L457.242 259.553V259.552Z" fill="#FAB91B"/>
<path d="M455.617 221.368C455.617 221.368 474.905 234.526 466.673 260.373L460.087 258.963C460.087 258.963 463.146 241.575 452.326 237.11C452.326 237.11 450.443 224.422 455.618 221.366L455.617 221.368Z" fill="#EE4444"/>
<path d="M389.615 243.766C389.615 243.766 379.38 315.544 363.619 324.291L363.182 328.665L367.121 334.787L371.937 333.913L379.958 319.354L386.822 299.801L396.453 248.196L388.135 242.51" fill="#C32126"/>
<path d="M379.64 319.551C389.173 300.519 393.44 268.967 395.176 252.324C392.805 268.674 386.607 299.854 379.64 319.551Z" fill="#EE4444"/>
<path d="M368.612 333.179C356.354 340.613 376.054 243.087 393.128 241.339L393.565 226.47C393.565 226.47 364.017 241.229 358.306 281.635L358.229 280.892C358.229 280.892 351.118 336.159 361.382 337.209C366.837 337.767 369.015 337.43 369.784 336.906C373.031 335.311 376.416 328.66 379.638 319.551C376.547 325.722 372.902 330.576 368.61 333.179H368.612Z" fill="#EE4444"/>
<path d="M395.175 252.324C395.787 248.11 396.143 244.881 396.192 243.087C396.322 238.435 396.139 243.081 395.175 252.324Z" fill="#EE4444"/>
<path d="M457.938 248.868C458.481 247.795 458.788 246.59 458.788 245.323V223.577C458.788 219.091 454.976 215.417 450.307 215.417C445.637 215.417 441.824 219.091 441.824 223.577V225.674C444.035 224.009 447.889 223.901 451.892 223.901C456.315 223.901 457.577 239.858 457.938 248.869V248.868Z" fill="#F9B38C"/>
<path d="M450.307 253.484C453.645 253.484 456.557 251.593 457.938 248.869C457.578 239.858 456.316 223.901 451.892 223.901C447.889 223.901 444.035 224.009 441.824 225.674V245.323C441.824 249.809 445.636 253.484 450.307 253.484Z" fill="#F6BC95"/>
<path d="M433.332 223.589C428.084 223.589 425.584 227.247 424.498 229.617V245.323C424.498 249.808 428.309 253.484 432.981 253.484C436.468 253.484 439.491 251.419 440.788 248.497C440.543 241.335 439.332 223.589 433.331 223.589H433.332Z" fill="#F6BC95"/>
<path d="M433.332 223.589C439.333 223.589 440.544 241.334 440.789 248.497C441.222 247.519 441.462 246.447 441.462 245.323V223.577C441.462 219.091 437.65 215.417 432.981 215.417C428.312 215.417 424.498 219.091 424.498 223.577V229.617C425.584 227.247 428.084 223.589 433.332 223.589Z" fill="#F9B38C"/>
<path d="M423.135 248.873C423.681 247.798 423.987 246.592 423.987 245.323V223.577C423.987 219.091 420.175 215.417 415.506 215.417C410.837 215.417 407.023 219.091 407.023 223.577V224.869C407.867 224.085 410.093 222.806 415.631 222.806C422.018 222.806 422.999 241.413 423.135 248.872V248.873Z" fill="#F9B38C"/>
<path d="M415.506 253.485C418.842 253.485 421.753 251.595 423.135 248.873C422.999 241.413 422.019 222.807 415.631 222.807C410.094 222.807 407.868 224.086 407.023 224.87V245.324C407.023 249.81 410.836 253.486 415.506 253.486V253.485Z" fill="#F6BC95"/>
<path d="M405.337 249.445C406.082 248.232 406.513 246.823 406.513 245.323V223.577C406.513 219.091 402.7 215.416 398.031 215.416C393.362 215.416 389.549 219.091 389.549 223.577V224.539C391.038 223.172 393.899 221.398 398.714 221.398C405.468 221.398 405.466 243.39 405.337 249.445Z" fill="#F9B38C"/>
<path d="M398.031 253.484C401.128 253.484 403.856 251.856 405.337 249.445C405.466 243.391 405.468 221.398 398.714 221.398C393.899 221.398 391.038 223.172 389.548 224.539V245.322C389.548 249.808 393.36 253.483 398.031 253.483V253.484Z" fill="#F6BC95"/>
<path d="M422.162 157.635L394.765 157.783C391.881 157.799 389.531 155.471 389.515 152.585L389.402 131.731C389.385 128.845 391.711 126.492 394.596 126.477L421.993 126.328L422.032 133.447L422.163 157.636L422.162 157.635Z" fill="#C1E0DA"/>
<path d="M449.557 157.485L422.162 157.633L422.031 133.444L421.992 126.326L449.388 126.178C452.272 126.162 454.623 128.489 454.638 131.375L454.751 152.23C454.766 155.116 452.441 157.468 449.557 157.484V157.485Z" fill="#99D1D7"/>
<path d="M405.351 148.9C405.335 146.098 403.054 143.839 400.253 143.855C397.453 143.87 395.195 146.154 395.21 148.955C395.226 151.757 397.508 154.015 400.308 154C403.108 153.986 405.365 151.702 405.35 148.9H405.351Z" fill="#D05727"/>
<path d="M391.485 142.951L422.648 142.887L422.755 0.000259399H386.334L386.286 139.645C386.36 141.576 388.687 143.057 391.486 142.951H391.485Z" fill="#D05727"/>
<path d="M454.315 142.951C457.113 143.057 459.44 141.576 459.514 139.645L459.467 0.000259399H422.755L422.648 142.887V142.942L454.315 142.952V142.951Z" fill="#AA4724"/>
<path d="M460.065 318.861C476.379 318.861 489.605 305.649 489.605 289.352C489.605 273.055 476.379 259.844 460.065 259.844C443.751 259.844 430.526 273.055 430.526 289.352C430.526 305.649 443.751 318.861 460.065 318.861Z" fill="#803D17"/>
<path d="M479.236 275.176C479.791 281.345 478.613 290.129 470.314 298.024C460.736 307.137 450.861 308.255 445.121 307.92C449.21 311.209 454.407 313.178 460.066 313.178C473.239 313.178 483.918 302.511 483.918 289.351C483.918 284.04 482.178 279.136 479.238 275.175L479.236 275.176Z" fill="#673316"/>
<path d="M470.314 298.024C478.613 290.129 479.791 281.344 479.237 275.176C474.891 269.32 467.922 265.525 460.065 265.525C446.892 265.525 436.214 276.192 436.214 289.352C436.214 296.859 439.69 303.552 445.121 307.92C450.861 308.254 460.736 307.137 470.314 298.024Z" fill="#D2600D"/>
<path d="M439.931 286.926C440.209 286.699 440.268 286.241 439.989 285.656C439.713 285.071 438.895 284.774 438.893 284.776C438.886 284.772 438.62 285.865 438.937 286.46C439.247 287.051 439.655 287.149 439.931 286.926ZM440.414 287.019C440.596 287.326 441.01 287.343 441.501 286.993C441.986 286.644 442.243 285.796 442.25 285.795C442.251 285.798 441.405 285.556 440.884 285.898C440.364 286.242 440.231 286.715 440.414 287.018V287.019ZM440.374 285.086C440.675 284.892 440.781 284.441 440.567 283.829C440.356 283.216 439.576 282.827 439.573 282.829C439.566 282.824 439.184 283.884 439.435 284.511C439.68 285.134 440.074 285.277 440.372 285.087L440.374 285.086ZM440.844 285.232C440.993 285.558 441.402 285.623 441.927 285.331C442.446 285.036 442.794 284.222 442.8 284.222C442.8 284.225 441.986 283.889 441.432 284.17C440.878 284.453 440.696 284.911 440.845 285.232H440.844ZM441.011 283.302C441.332 283.144 441.487 282.707 441.342 282.073C441.2 281.438 440.466 280.963 440.463 280.965C440.457 280.959 439.959 281.972 440.142 282.624C440.318 283.272 440.694 283.46 441.01 283.302H441.011ZM441.462 283.502C441.576 283.845 441.975 283.953 442.529 283.721C443.076 283.487 443.512 282.715 443.519 282.716C443.519 282.718 442.745 282.293 442.163 282.512C441.581 282.731 441.35 283.165 441.462 283.503V283.502ZM441.842 281.6C442.179 281.477 442.382 281.06 442.311 280.413C442.241 279.765 441.565 279.211 441.562 279.211C441.557 279.203 440.944 280.155 441.053 280.826C441.156 281.491 441.51 281.719 441.842 281.599V281.6ZM442.269 281.849C442.342 282.201 442.728 282.355 443.306 282.187C443.877 282.015 444.4 281.296 444.407 281.297C444.407 281.3 443.684 280.789 443.078 280.94C442.473 281.094 442.194 281.5 442.269 281.849ZM442.863 279.997C443.214 279.913 443.465 279.521 443.47 278.868C443.478 278.215 442.868 277.586 442.866 277.587C442.861 277.58 442.134 278.459 442.165 279.139C442.191 279.812 442.516 280.08 442.862 279.997H442.863ZM443.26 280.293C443.294 280.653 443.66 280.849 444.255 280.745C444.845 280.64 445.454 279.981 445.461 279.984C445.461 279.987 444.799 279.397 444.175 279.479C443.552 279.564 443.226 279.937 443.26 280.293ZM444.074 278.517C444.436 278.471 444.735 278.11 444.821 277.461C444.911 276.811 444.379 276.117 444.375 276.117C444.369 276.109 443.53 276.902 443.48 277.583C443.423 278.256 443.718 278.559 444.073 278.517H444.074ZM444.436 278.856C444.426 279.218 444.768 279.455 445.377 279.419C445.98 279.38 446.673 278.794 446.681 278.797C446.681 278.8 446.089 278.138 445.453 278.15C444.817 278.163 444.444 278.498 444.436 278.856ZM445.472 277.179C445.841 277.175 446.188 276.849 446.36 276.212C446.535 275.576 446.089 274.825 446.085 274.825C446.081 274.817 445.128 275.511 444.993 276.184C444.85 276.847 445.109 277.182 445.472 277.18V277.179ZM445.792 277.558C445.736 277.918 446.05 278.192 446.668 278.224C447.278 278.253 448.056 277.749 448.064 277.752C448.064 277.755 447.551 277.03 446.908 276.969C446.264 276.911 445.847 277.203 445.793 277.558H445.792ZM447.054 276.006C447.427 276.043 447.823 275.758 448.086 275.145C448.35 274.532 448 273.734 447.996 273.734C447.992 273.724 446.928 274.307 446.703 274.959C446.47 275.604 446.687 275.966 447.054 276.004V276.006ZM447.329 276.419C447.225 276.77 447.506 277.078 448.127 277.181C448.74 277.279 449.6 276.866 449.609 276.87C449.608 276.873 449.186 276.093 448.54 275.96C447.893 275.829 447.431 276.072 447.33 276.419H447.329ZM448.82 275.018C449.196 275.099 449.639 274.86 449.994 274.28C450.353 273.702 450.107 272.868 450.103 272.867C450.099 272.857 448.926 273.315 448.605 273.938C448.279 274.552 448.451 274.937 448.82 275.018ZM449.043 275.46C448.889 275.798 449.131 276.136 449.75 276.309C450.361 276.476 451.304 276.164 451.312 276.169C451.31 276.172 450.988 275.348 450.344 275.142C449.699 274.938 449.194 275.127 449.044 275.46H449.043ZM452.345 274.053C452.431 274.376 452.892 274.531 453.667 274.406C454.43 274.278 455.289 273.621 455.299 273.623C455.309 273.621 454.313 273.088 453.461 273.229C452.62 273.366 452.263 273.737 452.345 274.054V274.053ZM450.766 274.237C451.14 274.36 451.632 274.173 452.086 273.638C452.542 273.104 452.411 272.248 452.407 272.247C452.403 272.236 451.12 272.556 450.702 273.139C450.277 273.712 450.399 274.116 450.767 274.237H450.766ZM450.931 274.702C450.725 275.021 450.926 275.384 451.538 275.628C452.141 275.864 453.164 275.661 453.172 275.668C453.17 275.67 452.957 274.816 452.321 274.535C451.683 274.259 451.135 274.388 450.931 274.703V274.702ZM440.173 288.839C440.387 289.123 440.8 289.093 441.253 288.692C441.698 288.29 441.865 287.419 441.871 287.418C441.872 287.421 441.006 287.276 440.524 287.674C440.044 288.074 439.961 288.559 440.174 288.839H440.173ZM440.126 290.676C440.369 290.935 440.777 290.859 441.184 290.409C441.586 289.958 441.659 289.076 441.666 289.073C441.667 289.077 440.79 289.03 440.352 289.479C439.916 289.931 439.884 290.422 440.126 290.678V290.676ZM440.274 292.507C440.544 292.737 440.941 292.616 441.298 292.121C441.649 291.629 441.63 290.743 441.635 290.74C441.637 290.742 440.76 290.796 440.371 291.291C439.985 291.788 440.006 292.281 440.273 292.506L440.274 292.507ZM440.619 294.313C440.912 294.511 441.294 294.346 441.596 293.813C441.891 293.284 441.779 292.405 441.783 292.402C441.785 292.403 440.917 292.556 440.585 293.093C440.254 293.63 440.329 294.119 440.62 294.313H440.619ZM441.162 296.071C441.476 296.234 441.838 296.027 442.078 295.463C442.313 294.902 442.103 294.041 442.108 294.036C442.109 294.039 441.264 294.288 440.991 294.859C440.721 295.432 440.85 295.91 441.162 296.07V296.071ZM441.904 297.761C442.237 297.89 442.572 297.642 442.746 297.053C442.915 296.467 442.608 295.633 442.612 295.629C442.614 295.631 441.8 295.974 441.594 296.574C441.391 297.175 441.574 297.637 441.904 297.761ZM442.849 299.363C443.198 299.454 443.503 299.169 443.605 298.563C443.701 297.961 443.296 297.162 443.301 297.158C443.303 297.159 442.53 297.593 442.396 298.214C442.264 298.835 442.504 299.275 442.849 299.363ZM443.998 300.857C444.361 300.908 444.63 300.59 444.653 299.973C444.671 299.361 444.166 298.61 444.171 298.605C444.174 298.606 443.454 299.125 443.397 299.76C443.344 300.395 443.64 300.807 443.998 300.857ZM445.353 302.219C445.726 302.231 445.952 301.883 445.893 301.264C445.828 300.65 445.222 299.957 445.226 299.952C445.229 299.952 444.574 300.551 444.6 301.191C444.63 301.831 444.984 302.209 445.353 302.219ZM446.915 303.432C447.295 303.403 447.476 303.03 447.327 302.418C447.172 301.811 446.465 301.186 446.468 301.181C446.472 301.181 445.891 301.85 446.006 302.487C446.124 303.123 446.538 303.463 446.914 303.432H446.915ZM439.683 288.8C439.937 288.544 439.947 288.081 439.608 287.533C439.272 286.984 438.427 286.78 438.425 286.782C438.417 286.777 438.269 287.894 438.646 288.449C439.017 289.001 439.432 289.052 439.683 288.8ZM439.635 290.692C439.86 290.409 439.821 289.948 439.427 289.441C439.034 288.934 438.173 288.827 438.171 288.83C438.163 288.826 438.132 289.952 438.567 290.46C438.993 290.966 439.411 290.971 439.635 290.691V290.692ZM439.788 292.579C439.981 292.272 439.894 291.819 439.447 291.36C439.003 290.899 438.135 290.891 438.133 290.893C438.125 290.891 438.213 292.013 438.7 292.469C439.177 292.925 439.594 292.882 439.786 292.579H439.788ZM440.143 294.439C440.302 294.111 440.166 293.671 439.674 293.264C439.183 292.856 438.317 292.945 438.316 292.948C438.308 292.947 438.515 294.052 439.049 294.452C439.574 294.852 439.985 294.761 440.143 294.439ZM440.701 296.25C440.824 295.905 440.638 295.482 440.103 295.133C439.569 294.782 438.719 294.968 438.718 294.971C438.709 294.971 439.037 296.048 439.614 296.386C440.182 296.725 440.58 296.589 440.701 296.25ZM441.467 297.992C441.548 297.635 441.314 297.234 440.741 296.946C440.169 296.657 439.344 296.938 439.344 296.941C439.335 296.941 439.783 297.978 440.398 298.25C441.003 298.523 441.385 298.343 441.467 297.991V297.992ZM442.44 299.643C442.477 299.278 442.194 298.904 441.589 298.682C440.984 298.458 440.194 298.83 440.193 298.833C440.184 298.833 440.755 299.817 441.403 300.019C442.042 300.225 442.402 300.004 442.44 299.643ZM443.623 301.181C443.614 300.812 443.282 300.471 442.647 300.317C442.014 300.161 441.269 300.621 441.269 300.624C441.26 300.626 441.953 301.542 442.63 301.672C443.298 301.806 443.631 301.544 443.622 301.181H443.623ZM445.019 302.585C444.958 302.218 444.577 301.914 443.919 301.831C443.262 301.745 442.575 302.288 442.575 302.291C442.565 302.294 443.383 303.133 444.085 303.188C444.776 303.247 445.078 302.949 445.019 302.586V302.585ZM446.628 303.836C446.514 303.475 446.084 303.213 445.409 303.202C444.732 303.19 444.113 303.807 444.114 303.811C444.104 303.815 445.046 304.562 445.767 304.54C446.477 304.523 446.741 304.192 446.628 303.836ZM447.838 304.049C447.986 304.135 448.135 304.219 448.287 304.3C448.607 304.472 448.542 304.677 448.541 304.678C448.541 304.678 448.403 304.853 448.071 304.677C447.916 304.592 447.762 304.507 447.611 304.419C447.43 304.314 447.139 304.374 446.861 304.462C446.296 304.632 445.883 305.159 445.884 305.161C445.873 305.166 446.941 305.809 447.677 305.708C447.801 305.692 447.91 305.668 448.006 305.637C448.674 305.492 449.309 305.302 450.17 305.634C450.712 305.84 451.053 305.97 451.639 306.132C452.04 306.241 452.135 306.039 452.134 306.04C452.135 306.04 452.145 305.823 451.756 305.717C451.185 305.559 450.859 305.434 450.331 305.234C449.482 304.906 449.247 304.282 449.05 303.704C449.029 303.615 448.999 303.519 448.958 303.415C448.709 302.826 447.897 302.277 447.901 302.271C447.904 302.271 447.53 302.832 447.573 303.39C447.592 303.665 447.662 303.945 447.84 304.048L447.838 304.049Z" fill="#FAB91B"/>
<path d="M481.454 295.761C482.011 295.383 482.287 294.291 482.278 294.292C482.277 294.289 481.415 294.172 480.897 294.561C480.378 294.947 480.216 295.38 480.356 295.712C480.497 296.037 480.903 296.141 481.453 295.762L481.454 295.761ZM479.994 294.357C479.692 293.813 478.831 293.632 478.833 293.63C478.839 293.634 478.671 294.503 478.937 295.038C479.209 295.576 479.582 295.754 479.887 295.567C480.19 295.385 480.293 294.903 479.994 294.356V294.357ZM481.923 293.804C482.438 293.366 482.594 292.251 482.587 292.252C482.586 292.249 481.714 292.23 481.24 292.673C480.764 293.116 480.648 293.563 480.825 293.877C480.999 294.183 481.417 294.241 481.924 293.804H481.923ZM480.316 292.573C479.958 292.066 479.08 291.983 479.082 291.98C479.088 291.983 479.015 292.866 479.337 293.368C479.665 293.871 480.056 294.005 480.341 293.787C480.623 293.572 480.675 293.082 480.316 292.573ZM482.178 291.806C482.644 291.314 482.676 290.186 482.668 290.188C482.666 290.185 481.796 290.264 481.373 290.759C480.951 291.252 480.883 291.711 481.092 292C481.299 292.286 481.719 292.297 482.178 291.805V291.806ZM480.443 290.763C480.029 290.299 479.146 290.315 479.148 290.313C479.156 290.315 479.179 291.201 479.555 291.663C479.937 292.126 480.341 292.215 480.601 291.966C480.858 291.72 480.856 291.227 480.443 290.762V290.763ZM482.21 289.791C482.621 289.249 482.523 288.12 482.514 288.125C482.512 288.122 481.655 288.299 481.291 288.839C480.926 289.379 480.911 289.843 481.151 290.107C481.389 290.368 481.81 290.331 482.209 289.791H482.21ZM480.366 288.948C479.901 288.533 479.023 288.648 479.024 288.645C479.031 288.647 479.158 289.527 479.583 289.945C480.015 290.364 480.427 290.406 480.658 290.129C480.887 289.855 480.83 289.366 480.366 288.948ZM482.014 287.78C482.359 287.192 482.127 286.076 482.119 286.082C482.117 286.08 481.284 286.352 480.986 286.933C480.686 287.513 480.725 287.978 480.995 288.215C481.263 288.448 481.677 288.364 482.013 287.781L482.014 287.78ZM480.077 287.146C479.564 286.783 478.704 286.996 478.705 286.993C478.711 286.994 478.943 287.861 479.414 288.228C479.893 288.597 480.309 288.594 480.507 288.291C480.703 287.993 480.589 287.511 480.077 287.145V287.146ZM481.577 285.792C481.85 285.166 481.478 284.074 481.469 284.078C481.467 284.076 480.673 284.442 480.448 285.058C480.221 285.673 480.318 286.132 480.617 286.34C480.912 286.544 481.314 286.413 481.578 285.791L481.577 285.792ZM479.568 285.374C479.011 285.067 478.179 285.377 478.18 285.374C478.188 285.374 478.528 286.217 479.042 286.532C479.564 286.848 479.978 286.797 480.138 286.473C480.297 286.152 480.123 285.682 479.568 285.374ZM480.893 283.849C481.086 283.191 480.568 282.134 480.561 282.14C480.557 282.137 479.811 282.595 479.67 283.238C479.526 283.882 479.681 284.333 480.005 284.508C480.326 284.679 480.711 284.503 480.894 283.849H480.893ZM478.832 283.653C478.234 283.406 477.443 283.81 477.444 283.807C477.453 283.807 477.906 284.616 478.458 284.874C479.02 285.133 479.425 285.037 479.544 284.693C479.662 284.353 479.429 283.901 478.832 283.653ZM479.952 281.972C480.056 281.288 479.388 280.278 479.379 280.284C479.376 280.284 478.694 280.826 478.642 281.491C478.587 282.155 478.804 282.593 479.152 282.732C479.494 282.869 479.857 282.649 479.952 281.972ZM477.86 282C477.226 281.817 476.49 282.31 476.49 282.307C476.499 282.307 477.068 283.074 477.655 283.273C478.253 283.472 478.645 283.329 478.716 282.971C478.789 282.616 478.493 282.186 477.859 282H477.86ZM478.745 280.181C478.752 279.48 477.928 278.529 477.92 278.535C477.916 278.535 477.31 279.157 477.357 279.836C477.401 280.514 477.681 280.933 478.051 281.036C478.414 281.137 478.747 280.876 478.745 280.181ZM476.645 280.435C475.979 280.318 475.31 280.897 475.31 280.893C475.319 280.893 476.007 281.608 476.625 281.744C477.253 281.879 477.626 281.693 477.648 281.323C477.669 280.957 477.31 280.556 476.645 280.434V280.435ZM474.781 277.29C474.093 276.77 472.964 276.778 472.97 276.783C472.98 276.787 473.434 277.768 474.048 278.236C474.674 278.708 475.155 278.786 475.381 278.54C475.603 278.299 475.461 277.803 474.78 277.289L474.781 277.29ZM477.263 278.498C477.165 277.787 476.178 276.906 476.171 276.914C476.167 276.914 475.65 277.61 475.805 278.294C475.956 278.979 476.303 279.374 476.693 279.439C477.073 279.502 477.37 279.202 477.263 278.498ZM475.179 278.978C474.485 278.928 473.897 279.586 473.896 279.583C473.907 279.581 474.716 280.237 475.36 280.31C476.016 280.38 476.364 280.152 476.329 279.773C476.296 279.4 475.872 279.031 475.178 278.978H475.179ZM479.48 296.097C479.24 295.521 478.406 295.244 478.409 295.242C478.414 295.246 478.153 296.094 478.361 296.657C478.573 297.223 478.925 297.441 479.248 297.289C479.567 297.141 479.72 296.672 479.48 296.095V296.097ZM478.789 297.773C478.612 297.172 477.813 296.804 477.817 296.802C477.82 296.807 477.474 297.623 477.619 298.208C477.769 298.796 478.094 299.054 478.43 298.939C478.762 298.826 478.964 298.376 478.789 297.773ZM477.925 299.368C477.813 298.749 477.063 298.292 477.065 298.291C477.069 298.296 476.638 299.071 476.719 299.671C476.803 300.274 477.1 300.567 477.444 300.489C477.787 300.414 478.035 299.988 477.925 299.368ZM476.897 300.861C476.853 300.232 476.156 299.693 476.159 299.692C476.162 299.698 475.652 300.422 475.666 301.028C475.684 301.64 475.945 301.963 476.296 301.924C476.644 301.889 476.938 301.491 476.897 300.86V300.861ZM475.711 302.236C475.738 301.603 475.104 300.988 475.108 300.988C475.111 300.994 474.524 301.659 474.469 302.264C474.418 302.875 474.641 303.227 474.996 303.228C475.347 303.231 475.684 302.868 475.711 302.237V302.236ZM474.378 303.47C474.476 302.844 473.915 302.161 473.919 302.161C473.921 302.167 473.26 302.763 473.134 303.358C473.014 303.96 473.195 304.336 473.55 304.377C473.9 304.42 474.278 304.097 474.378 303.47ZM472.902 304.548C473.075 303.936 472.594 303.193 472.597 303.193C472.599 303.199 471.867 303.717 471.671 304.294C471.477 304.878 471.614 305.272 471.967 305.354C472.313 305.437 472.73 305.16 472.902 304.548ZM471.296 305.45C471.542 304.862 471.147 304.068 471.15 304.067C471.152 304.075 470.354 304.504 470.085 305.053C469.818 305.61 469.907 306.017 470.252 306.141C470.592 306.263 471.046 306.037 471.295 305.45H471.296ZM469.563 306.157C469.886 305.603 469.584 304.768 469.588 304.769C469.588 304.776 468.73 305.107 468.385 305.619C468.044 306.139 468.083 306.552 468.418 306.716C468.749 306.879 469.239 306.709 469.563 306.157ZM467.714 306.648C468.113 306.139 467.912 305.275 467.916 305.277C467.916 305.283 466.998 305.508 466.578 305.971C466.161 306.443 466.147 306.857 466.47 307.06C466.788 307.263 467.312 307.155 467.714 306.647V306.648ZM480.779 297.658C481.372 297.344 481.76 296.287 481.754 296.287C481.752 296.284 480.91 296.071 480.356 296.4C479.8 296.727 479.593 297.142 479.698 297.487C479.802 297.826 480.194 297.974 480.779 297.658ZM479.909 299.476C480.531 299.229 481.029 298.218 481.02 298.218C481.02 298.214 480.208 297.908 479.624 298.174C479.039 298.438 478.789 298.828 478.857 299.183C478.924 299.535 479.296 299.725 479.909 299.476ZM478.854 301.19C479.498 301.013 480.099 300.061 480.092 300.06C480.092 300.057 479.319 299.66 478.711 299.86C478.103 300.059 477.813 300.419 477.842 300.781C477.871 301.139 478.219 301.371 478.854 301.19ZM477.62 302.782C478.279 302.676 478.979 301.796 478.97 301.793C478.97 301.789 478.247 301.308 477.622 301.44C476.997 301.57 476.671 301.897 476.659 302.262C476.648 302.62 476.97 302.891 477.62 302.783V302.782ZM476.217 304.23C476.886 304.199 477.678 303.399 477.671 303.396C477.671 303.392 477.006 302.831 476.369 302.894C475.734 302.953 475.372 303.242 475.319 303.603C475.269 303.96 475.558 304.266 476.217 304.231V304.23ZM474.654 305.512C475.326 305.558 476.206 304.85 476.198 304.846C476.198 304.843 475.6 304.21 474.96 304.199C474.32 304.187 473.924 304.432 473.83 304.787C473.738 305.135 473.991 305.472 474.654 305.512ZM472.939 306.609C473.608 306.732 474.572 306.128 474.564 306.123C474.565 306.12 474.04 305.423 473.4 305.339C472.761 305.254 472.336 305.453 472.198 305.793C472.063 306.129 472.279 306.493 472.939 306.609ZM471.081 307.499C471.741 307.7 472.782 307.212 472.775 307.206C472.776 307.203 472.332 306.45 471.7 306.293C471.066 306.133 470.614 306.282 470.433 306.602C470.255 306.92 470.428 307.306 471.081 307.499ZM469.088 308.161C469.735 308.44 470.849 308.079 470.842 308.072C470.843 308.07 470.49 307.269 469.868 307.039C469.248 306.806 468.769 306.899 468.544 307.194C468.323 307.488 468.45 307.891 469.089 308.161H469.088ZM466.971 308.575C467.598 308.929 468.779 308.709 468.773 308.699C468.775 308.697 468.516 307.862 467.912 307.558C467.309 307.252 466.805 307.285 466.536 307.551C466.272 307.812 466.35 308.229 466.971 308.575ZM465.91 306.717C466.21 306.243 466.14 305.572 466.142 305.573C466.142 305.58 465.168 305.687 464.674 306.092C464.589 306.164 464.518 306.235 464.458 306.304C464.013 306.723 463.514 307.165 462.61 307.06C462.049 306.991 461.704 306.951 461.125 306.823C460.732 306.736 460.639 306.932 460.639 306.933C460.639 306.933 460.63 307.155 461.035 307.245C461.63 307.375 461.99 307.419 462.567 307.49C463.484 307.596 463.957 308.061 464.48 308.501C464.551 308.573 464.635 308.644 464.738 308.716C465.342 309.149 466.587 309.077 466.581 309.067C466.581 309.067 466.46 308.408 466.041 307.994C465.836 307.787 465.606 307.597 465.397 307.607C465.222 307.614 465.046 307.618 464.87 307.62C464.494 307.621 464.454 307.401 464.454 307.402C464.454 307.402 464.49 307.189 464.855 307.187C465.027 307.186 465.199 307.181 465.367 307.174C465.573 307.166 465.766 306.952 465.911 306.717H465.91Z" fill="#FAB91B"/>
<path d="M59.5868 249.136V295.858L64.0705 295.865C67.4201 292.861 69.1792 285.946 67.8617 272.788C62.7056 221.276 95.8539 216.125 95.8539 216.125C95.1171 230.842 104.694 244.089 115.006 252.184C125.319 260.278 129.739 240.41 139.316 263.958C144.16 275.87 150.322 281.002 155.232 283.167C155.396 281.903 155.166 280.601 154.528 279.454L150.944 271.75L132.989 233.14C125.537 227.469 116.664 218.003 115.007 204.351C112.799 186.157 115.14 138.633 116.453 115.943H75.7773C77.2392 140.734 79.8341 216.62 59.5868 249.137V249.136Z" fill="#EF9C77"/>
<path d="M62.8551 223.016C60.8209 225.315 59.5856 228.337 59.5856 231.648V249.136C79.833 216.618 77.2381 140.733 75.7762 115.942H58.5306C58.5306 115.942 57.2236 125.142 62.7203 164.035C68.2169 202.927 65.9265 214.366 63.3421 220.845C63.0702 221.526 62.9152 222.257 62.8551 223.017V223.016Z" fill="#EA8D69"/>
<path d="M115.006 204.35C116.663 218.002 125.535 227.468 132.988 233.139L127.27 220.844C124.686 214.365 122.396 202.926 127.892 164.034C133.389 125.141 132.082 115.941 132.082 115.941H116.452C115.139 138.631 112.798 186.155 115.006 204.349V204.35Z" fill="#EA8D69"/>
<path d="M131.178 270.861C131.752 270.688 132.387 270.744 132.943 270.977C133.373 271.16 133.755 271.444 134.016 271.833C135.382 273.614 136.439 275.388 137.345 277.079C139.149 280.449 140.36 283.481 142.234 285.561C143.829 287.329 145.904 288.415 149.242 288.415C151.381 288.415 153.369 287.284 154.458 285.444C154.87 284.732 155.127 283.956 155.229 283.165C150.321 281.001 144.157 275.868 139.313 263.956C129.736 240.407 125.317 260.276 115.004 252.182C104.69 244.088 95.1146 230.841 95.8513 216.123C95.8513 216.123 62.703 221.274 67.8592 272.786C69.1756 285.944 67.4165 292.859 64.068 295.863L130.868 295.976C130.971 295.934 131.073 270.891 131.176 270.86L131.178 270.861Z" fill="#EFA47D"/>
<path d="M131.707 304.358C131.707 304.358 123.258 288.435 123.019 283.816C122.78 279.198 128.519 278.323 128.519 278.323L137.206 293.053L137.684 303.085L131.706 304.359L131.707 304.358Z" fill="#C32126"/>
<path d="M130.444 306.024C130.444 306.024 132.912 299.858 139.085 301.338C145.257 302.818 144.023 308.737 144.023 308.737L141.209 307.688C141.209 307.688 142.482 305.603 138.112 304.593C133.741 303.582 133.415 306.385 133.415 306.385L130.251 306.417L130.443 306.025L130.444 306.024Z" fill="#FAB91B"/>
<path d="M128.563 265.977C128.563 265.977 148.807 279.789 140.166 306.918L133.254 305.438C133.254 305.438 136.465 287.188 125.108 282.501C125.108 282.501 123.132 269.183 128.564 265.977H128.563Z" fill="#EE4444"/>
<path d="M59.7679 290.293C59.7679 290.293 49.0244 365.631 32.483 374.812L32.0234 379.403L36.1593 385.829L41.2143 384.91L49.6337 369.629L56.8378 349.105L66.9467 294.94L58.2164 288.973" fill="#C32126"/>
<path d="M49.2314 369.875C59.2381 349.9 63.7166 316.782 65.5379 299.313C63.0504 316.474 56.5441 349.201 49.2314 369.875Z" fill="#EE4444"/>
<path d="M37.6565 384.179C24.7904 391.982 45.4677 289.619 63.3889 287.783L63.8484 272.176C63.8484 272.176 32.8355 287.667 26.8404 330.078L26.7592 329.297C26.7592 329.297 19.2959 387.306 30.0698 388.408C35.7952 388.994 38.0823 388.64 38.8887 388.091C42.2973 386.417 45.8503 379.435 49.2326 369.874C45.9884 376.351 42.1624 381.447 37.6576 384.178L37.6565 384.179Z" fill="#EE4444"/>
<path d="M65.5371 299.313C66.1779 294.89 66.5532 291.502 66.6048 289.619C66.7408 284.736 66.5489 289.612 65.5371 299.313Z" fill="#EE4444"/>
<path d="M131.014 298.629C131.585 297.501 131.907 296.238 131.907 294.907V272.084C131.907 267.374 127.906 263.518 123.005 263.518C118.104 263.518 114.102 267.375 114.102 272.084V274.284C116.422 272.536 120.468 272.423 124.669 272.423C129.313 272.423 130.637 289.172 131.014 298.63V298.629Z" fill="#F9B38C"/>
<path d="M123.005 303.474C126.508 303.474 129.565 301.489 131.014 298.63C130.637 289.171 129.313 272.423 124.669 272.423C120.468 272.423 116.423 272.536 114.102 274.284V294.907C114.102 299.616 118.103 303.474 123.005 303.474Z" fill="#F6BC95"/>
<path d="M105.187 272.095C99.679 272.095 97.0545 275.935 95.9162 278.423V294.907C95.9162 299.615 99.9172 303.474 104.819 303.474C108.48 303.474 111.653 301.306 113.014 298.239C112.758 290.722 111.486 272.096 105.187 272.096V272.095Z" fill="#F6BC95"/>
<path d="M105.187 272.095C111.486 272.095 112.757 290.721 113.014 298.239C113.469 297.212 113.721 296.086 113.721 294.907V272.083C113.721 267.374 109.72 263.517 104.819 263.517C99.918 263.517 95.916 267.374 95.916 272.083V278.422C97.0554 275.934 99.6798 272.094 105.187 272.094V272.095Z" fill="#F9B38C"/>
<path d="M94.4846 298.633C95.0569 297.504 95.3794 296.24 95.3794 294.907V272.084C95.3794 267.374 91.3784 263.518 86.4773 263.518C81.5762 263.518 77.5742 267.375 77.5742 272.084V273.439C78.4606 272.616 80.7963 271.274 86.6091 271.274C93.3136 271.274 94.3412 290.803 94.4846 298.632V298.633Z" fill="#F9B38C"/>
<path d="M86.4771 303.474C89.9785 303.474 93.0341 301.491 94.4844 298.633C94.341 290.804 93.3134 271.275 86.6089 271.275C80.7961 271.275 78.4604 272.616 77.574 273.44V294.908C77.574 299.617 81.575 303.475 86.4771 303.475V303.474Z" fill="#F6BC95"/>
<path d="M75.8044 299.234C76.5865 297.961 77.0376 296.482 77.0376 294.907V272.084C77.0376 267.374 73.0366 263.518 68.1355 263.518C63.2344 263.518 59.2324 267.375 59.2324 272.084V273.093C60.7965 271.657 63.7983 269.796 68.8523 269.796C75.9415 269.796 75.9394 292.88 75.8044 299.234Z" fill="#F9B38C"/>
<path d="M68.1357 303.474C71.3852 303.474 74.25 301.764 75.8046 299.235C75.9395 292.88 75.9417 269.797 68.8525 269.797C63.7985 269.797 60.7957 271.66 59.2326 273.094V294.908C59.2326 299.617 63.2336 303.475 68.1357 303.475V303.474Z" fill="#F6BC95"/>
<path d="M93.4634 202.868L64.7071 203.024C61.6811 203.041 59.2126 200.599 59.1957 197.569L59.0777 175.68C59.0608 172.651 61.5019 170.182 64.529 170.165L93.2842 170.009L93.3242 177.481L93.4623 202.87L93.4634 202.868Z" fill="#C1E0DA"/>
<path d="M122.217 202.712L93.4633 202.868L93.3252 177.479L93.2851 170.007L122.04 169.852C125.069 169.835 127.535 172.278 127.552 175.307L127.671 197.196C127.687 200.224 125.246 202.694 122.218 202.711L122.217 202.712Z" fill="#99D1D7"/>
<path d="M75.8183 193.702C75.8025 190.761 73.4078 188.389 70.4682 188.405C67.5285 188.421 65.1592 190.819 65.175 193.758C65.1908 196.699 67.5865 199.07 70.5262 199.054C73.4647 199.038 75.8341 196.642 75.8183 193.7V193.702Z" fill="#455727"/>
<path d="M61.2644 187.457L93.9732 187.39L94.085 0.000106812H55.8574L55.8069 183.986C55.8838 186.013 58.3269 187.569 61.2644 187.457Z" fill="#668239"/>
<path d="M127.211 187.457C130.149 187.569 132.592 186.013 132.669 183.986L132.618 0.000106812H94.0852L93.9735 187.39V187.448L127.211 187.457Z" fill="#455727"/>
<path d="M133.717 368.309C150.84 368.309 164.721 354.442 164.721 337.336C164.721 320.231 150.84 306.364 133.717 306.364C116.594 306.364 102.712 320.231 102.712 337.336C102.712 354.442 116.594 368.309 133.717 368.309Z" fill="#929292"/>
<path d="M153.839 322.457C154.421 328.932 153.184 338.152 144.474 346.439C134.42 356.004 124.055 357.177 118.03 356.826C122.322 360.278 127.778 362.346 133.717 362.346C147.542 362.346 158.752 351.149 158.752 337.336C158.752 331.762 156.925 326.615 153.839 322.457Z" fill="#777777"/>
<path d="M144.474 346.439C153.184 338.152 154.42 328.932 153.839 322.457C149.277 316.311 141.963 312.328 133.717 312.328C119.89 312.328 108.682 323.525 108.682 337.337C108.682 345.216 112.331 352.242 118.03 356.827C124.055 357.178 134.42 356.005 144.474 346.44V346.439Z" fill="#B8B8B8"/>
<path d="M112.581 334.923C112.874 334.685 112.934 334.203 112.643 333.591C112.353 332.978 111.494 332.664 111.493 332.667C111.485 332.661 111.206 333.81 111.539 334.434C111.865 335.054 112.292 335.156 112.582 334.923H112.581ZM113.088 335.02C113.28 335.343 113.714 335.36 114.23 334.993C114.739 334.627 115.009 333.737 115.015 333.736C115.016 333.739 114.129 333.486 113.582 333.845C113.037 334.205 112.897 334.703 113.087 335.02H113.088ZM113.046 332.991C113.362 332.788 113.474 332.315 113.251 331.672C113.028 331.029 112.209 330.621 112.207 330.623C112.201 330.617 111.798 331.729 112.064 332.388C112.321 333.042 112.735 333.192 113.047 332.992L113.046 332.991ZM113.539 333.145C113.696 333.488 114.125 333.555 114.677 333.248C115.222 332.94 115.585 332.083 115.593 332.084C115.593 332.088 114.738 331.735 114.156 332.031C113.575 332.328 113.383 332.808 113.539 333.145ZM113.716 331.12C114.052 330.954 114.215 330.495 114.062 329.831C113.913 329.164 113.143 328.666 113.14 328.667C113.134 328.661 112.611 329.723 112.803 330.409C112.987 331.089 113.382 331.285 113.714 331.12H113.716ZM114.189 331.329C114.308 331.689 114.726 331.803 115.308 331.559C115.883 331.313 116.34 330.502 116.347 330.505C116.347 330.508 115.536 330.061 114.924 330.289C114.314 330.519 114.071 330.976 114.189 331.329ZM114.587 329.333C114.941 329.204 115.154 328.765 115.079 328.086C115.006 327.406 114.296 326.824 114.294 326.825C114.288 326.818 113.645 327.816 113.76 328.521C113.867 329.218 114.239 329.458 114.588 329.333H114.587ZM115.035 329.594C115.113 329.965 115.517 330.126 116.124 329.949C116.723 329.768 117.273 329.013 117.279 329.014C117.279 329.018 116.52 328.482 115.885 328.64C115.25 328.801 114.956 329.227 115.035 329.594ZM115.659 327.651C116.027 327.562 116.291 327.15 116.297 326.464C116.305 325.779 115.665 325.12 115.662 325.121C115.657 325.112 114.894 326.034 114.928 326.749C114.954 327.456 115.297 327.736 115.659 327.651ZM116.076 327.961C116.111 328.338 116.496 328.545 117.121 328.436C117.74 328.326 118.379 327.635 118.386 327.637C118.386 327.64 117.691 327.021 117.037 327.108C116.383 327.196 116.04 327.588 116.076 327.961ZM116.93 326.096C117.31 326.049 117.624 325.669 117.714 324.988C117.808 324.306 117.25 323.577 117.245 323.578C117.24 323.569 116.359 324.401 116.306 325.116C116.246 325.823 116.556 326.14 116.929 326.096H116.93ZM117.31 326.453C117.3 326.832 117.658 327.081 118.297 327.043C118.93 327.002 119.658 326.386 119.665 326.389C119.665 326.393 119.046 325.698 118.376 325.71C117.709 325.725 117.317 326.076 117.309 326.453H117.31ZM118.397 324.692C118.784 324.688 119.149 324.345 119.33 323.678C119.514 323.011 119.046 322.223 119.041 322.221C119.037 322.213 118.037 322.942 117.895 323.646C117.745 324.342 118.016 324.695 118.396 324.692H118.397ZM118.734 325.09C118.675 325.467 119.004 325.754 119.653 325.789C120.293 325.82 121.109 325.29 121.118 325.294C121.118 325.297 120.58 324.535 119.905 324.472C119.229 324.411 118.789 324.717 118.734 325.09ZM120.057 323.461C120.45 323.501 120.865 323.201 121.14 322.558C121.418 321.915 121.05 321.077 121.046 321.077C121.041 321.068 119.926 321.678 119.689 322.364C119.444 323.04 119.673 323.421 120.057 323.462V323.461ZM120.345 323.895C120.236 324.263 120.531 324.587 121.182 324.695C121.826 324.797 122.729 324.363 122.737 324.368C122.736 324.371 122.293 323.552 121.614 323.413C120.935 323.276 120.451 323.53 120.344 323.895H120.345ZM121.91 322.425C122.304 322.509 122.77 322.258 123.144 321.65C123.52 321.043 123.263 320.168 123.258 320.166C123.254 320.157 122.023 320.636 121.686 321.291C121.343 321.936 121.524 322.34 121.911 322.425H121.91ZM122.143 322.889C121.982 323.243 122.237 323.599 122.885 323.78C123.527 323.955 124.516 323.627 124.525 323.633C124.522 323.636 124.186 322.771 123.509 322.555C122.833 322.341 122.301 322.539 122.143 322.889ZM125.61 321.413C125.701 321.751 126.184 321.914 126.997 321.782C127.798 321.648 128.699 320.959 128.711 320.96C128.72 320.958 127.675 320.398 126.782 320.546C125.899 320.689 125.523 321.079 125.611 321.413H125.61ZM123.953 321.606C124.345 321.735 124.862 321.538 125.338 320.977C125.818 320.417 125.679 319.518 125.675 319.516C125.671 319.506 124.325 319.841 123.886 320.453C123.44 321.054 123.568 321.478 123.954 321.606H123.953ZM124.127 322.094C123.911 322.428 124.121 322.811 124.764 323.065C125.397 323.313 126.471 323.1 126.479 323.107C126.477 323.109 126.254 322.212 125.586 321.919C124.916 321.629 124.341 321.765 124.128 322.095L124.127 322.094ZM112.835 336.932C113.06 337.231 113.493 337.199 113.968 336.777C114.437 336.356 114.611 335.442 114.618 335.44C114.619 335.443 113.709 335.291 113.203 335.709C112.699 336.129 112.612 336.638 112.836 336.932H112.835ZM112.786 338.861C113.042 339.132 113.47 339.052 113.897 338.58C114.318 338.107 114.396 337.18 114.403 337.178C114.405 337.181 113.484 337.133 113.024 337.604C112.566 338.078 112.533 338.595 112.786 338.861ZM112.942 340.783C113.225 341.024 113.641 340.897 114.016 340.378C114.385 339.861 114.364 338.931 114.37 338.928C114.372 338.93 113.452 338.987 113.044 339.507C112.638 340.029 112.66 340.546 112.942 340.782V340.783ZM113.303 342.678C113.611 342.886 114.012 342.713 114.329 342.154C114.639 341.598 114.52 340.676 114.525 340.673C114.528 340.674 113.617 340.835 113.268 341.398C112.921 341.963 112.999 342.476 113.303 342.679V342.678ZM113.874 344.524C114.204 344.696 114.583 344.477 114.835 343.886C115.081 343.297 114.861 342.392 114.866 342.388C114.869 342.39 113.98 342.651 113.694 343.252C113.411 343.853 113.546 344.354 113.874 344.523V344.524ZM114.652 346.298C115.001 346.433 115.354 346.173 115.537 345.554C115.713 344.94 115.391 344.064 115.397 344.06C115.399 344.062 114.544 344.422 114.328 345.051C114.114 345.682 114.307 346.167 114.652 346.298ZM115.644 347.979C116.01 348.075 116.33 347.775 116.437 347.138C116.538 346.506 116.112 345.668 116.118 345.664C116.121 345.665 115.309 346.119 115.169 346.772C115.031 347.425 115.282 347.886 115.644 347.979ZM116.849 349.547C117.23 349.601 117.512 349.266 117.536 348.619C117.555 347.978 117.026 347.189 117.03 347.183C117.033 347.185 116.279 347.729 116.218 348.395C116.161 349.062 116.473 349.494 116.848 349.547H116.849ZM118.271 350.978C118.662 350.991 118.901 350.625 118.838 349.975C118.769 349.331 118.134 348.604 118.138 348.598C118.141 348.598 117.453 349.226 117.481 349.898C117.512 350.57 117.885 350.966 118.271 350.977V350.978ZM119.911 352.251C120.31 352.22 120.501 351.829 120.344 351.187C120.182 350.551 119.439 349.894 119.443 349.889C119.447 349.889 118.838 350.592 118.958 351.261C119.081 351.928 119.517 352.285 119.911 352.252V352.251ZM112.321 336.893C112.588 336.625 112.597 336.138 112.242 335.564C111.889 334.988 111.003 334.774 110.999 334.776C110.992 334.772 110.835 335.943 111.232 336.525C111.621 337.104 112.058 337.158 112.321 336.893ZM112.27 338.879C112.508 338.582 112.465 338.098 112.052 337.567C111.64 337.035 110.736 336.922 110.734 336.925C110.725 336.921 110.694 338.103 111.149 338.637C111.596 339.168 112.035 339.172 112.269 338.879H112.27ZM112.431 340.86C112.634 340.537 112.542 340.062 112.074 339.58C111.61 339.097 110.698 339.087 110.695 339.089C110.687 339.087 110.779 340.265 111.29 340.744C111.791 341.223 112.228 341.177 112.431 340.86ZM112.803 342.812C112.97 342.468 112.827 342.004 112.311 341.578C111.794 341.15 110.887 341.244 110.886 341.246C110.877 341.245 111.094 342.405 111.654 342.825C112.205 343.244 112.636 343.15 112.802 342.811L112.803 342.812ZM113.39 344.712C113.517 344.351 113.323 343.906 112.762 343.541C112.202 343.172 111.309 343.367 111.308 343.37C111.3 343.37 111.643 344.5 112.248 344.855C112.844 345.21 113.262 345.068 113.39 344.711V344.712ZM114.193 346.541C114.278 346.167 114.032 345.745 113.432 345.443C112.832 345.141 111.965 345.435 111.965 345.438C111.955 345.438 112.426 346.526 113.071 346.812C113.707 347.099 114.109 346.91 114.193 346.541ZM115.215 348.273C115.254 347.89 114.956 347.497 114.322 347.264C113.687 347.028 112.858 347.419 112.856 347.423C112.847 347.423 113.446 348.455 114.127 348.668C114.797 348.885 115.175 348.652 115.215 348.273ZM116.457 349.888C116.446 349.502 116.099 349.142 115.432 348.981C114.767 348.817 113.987 349.299 113.987 349.303C113.977 349.305 114.705 350.267 115.416 350.403C116.117 350.544 116.466 350.27 116.457 349.888ZM117.922 351.362C117.859 350.977 117.458 350.657 116.769 350.57C116.08 350.479 115.359 351.05 115.359 351.052C115.348 351.055 116.206 351.936 116.943 351.993C117.669 352.055 117.984 351.742 117.923 351.362H117.922ZM119.611 352.675C119.491 352.296 119.039 352.021 118.33 352.009C117.621 351.996 116.97 352.644 116.971 352.647C116.961 352.652 117.949 353.435 118.706 353.413C119.451 353.395 119.729 353.047 119.611 352.675ZM120.881 352.899C121.036 352.988 121.193 353.077 121.352 353.162C121.688 353.343 121.619 353.558 121.618 353.558C121.618 353.558 121.473 353.742 121.125 353.557C120.962 353.469 120.8 353.378 120.642 353.287C120.452 353.176 120.147 353.238 119.855 353.331C119.263 353.51 118.828 354.063 118.83 354.065C118.819 354.07 119.939 354.745 120.712 354.64C120.842 354.624 120.956 354.597 121.057 354.566C121.758 354.413 122.426 354.214 123.329 354.563C123.898 354.779 124.255 354.915 124.87 355.085C125.292 355.199 125.392 354.988 125.391 354.988C125.392 354.988 125.402 354.76 124.993 354.648C124.395 354.483 124.052 354.351 123.498 354.142C122.607 353.798 122.36 353.143 122.153 352.537C122.131 352.443 122.1 352.342 122.057 352.234C121.794 351.615 120.943 351.04 120.947 351.034C120.95 351.034 120.557 351.622 120.602 352.209C120.621 352.498 120.695 352.791 120.882 352.9L120.881 352.899Z" fill="#FAB91B"/>
<path d="M156.201 343.947C156.787 343.55 157.076 342.404 157.066 342.405C157.065 342.402 156.16 342.278 155.617 342.687C155.073 343.093 154.902 343.547 155.049 343.894C155.196 344.236 155.622 344.344 156.2 343.947H156.201ZM154.668 342.474C154.351 341.902 153.449 341.712 153.451 341.71C153.456 341.714 153.28 342.627 153.558 343.189C153.843 343.754 154.235 343.94 154.556 343.744C154.873 343.552 154.981 343.046 154.667 342.474H154.668ZM156.692 341.892C157.233 341.433 157.397 340.262 157.389 340.264C157.388 340.261 156.473 340.241 155.975 340.706C155.477 341.17 155.356 341.64 155.54 341.968C155.722 342.29 156.16 342.351 156.692 341.892ZM155.007 340.602C154.63 340.069 153.709 339.983 153.711 339.98C153.718 339.984 153.641 340.911 153.979 341.437C154.324 341.964 154.734 342.106 155.032 341.876C155.328 341.65 155.383 341.136 155.007 340.602ZM156.961 339.797C157.45 339.28 157.484 338.096 157.475 338.099C157.473 338.096 156.56 338.178 156.117 338.698C155.673 339.216 155.602 339.697 155.821 340.002C156.039 340.302 156.48 340.312 156.961 339.797ZM155.139 338.702C154.705 338.216 153.779 338.232 153.781 338.23C153.788 338.232 153.814 339.162 154.208 339.647C154.608 340.133 155.032 340.227 155.305 339.966C155.575 339.707 155.573 339.192 155.139 338.702ZM156.996 337.681C157.427 337.112 157.323 335.929 157.314 335.932C157.312 335.93 156.413 336.114 156.03 336.682C155.646 337.248 155.631 337.735 155.884 338.014C156.133 338.288 156.575 338.249 156.995 337.681H156.996ZM155.059 336.797C154.571 336.36 153.65 336.481 153.651 336.478C153.659 336.48 153.791 337.405 154.238 337.843C154.692 338.281 155.125 338.327 155.366 338.036C155.606 337.749 155.546 337.234 155.059 336.797ZM156.79 335.57C157.152 334.953 156.908 333.782 156.9 333.788C156.898 333.786 156.023 334.071 155.711 334.681C155.396 335.289 155.438 335.778 155.721 336.027C156.003 336.271 156.437 336.183 156.79 335.57ZM154.757 334.905C154.218 334.523 153.315 334.747 153.317 334.744C153.323 334.745 153.567 335.654 154.062 336.041C154.565 336.428 155.001 336.425 155.209 336.108C155.415 335.795 155.294 335.288 154.758 334.906L154.757 334.905ZM156.332 333.484C156.618 332.827 156.227 331.681 156.219 331.686C156.217 331.684 155.382 332.068 155.146 332.714C154.908 333.358 155.01 333.842 155.323 334.06C155.633 334.273 156.055 334.137 156.332 333.483V333.484ZM154.224 333.045C153.639 332.722 152.766 333.048 152.766 333.045C152.774 333.045 153.132 333.93 153.671 334.26C154.219 334.591 154.654 334.539 154.822 334.198C154.99 333.861 154.807 333.368 154.224 333.044V333.045ZM155.614 331.444C155.816 330.755 155.272 329.644 155.265 329.649C155.261 329.647 154.479 330.127 154.33 330.802C154.178 331.478 154.342 331.95 154.682 332.135C155.018 332.314 155.422 332.13 155.615 331.444H155.614ZM153.451 331.239C152.822 330.98 151.993 331.403 151.994 331.4C152.003 331.4 152.479 332.25 153.059 332.521C153.648 332.792 154.074 332.692 154.198 332.33C154.323 331.974 154.078 331.499 153.451 331.239ZM154.626 329.474C154.736 328.757 154.034 327.697 154.025 327.702C154.021 327.702 153.305 328.271 153.252 328.969C153.194 329.666 153.422 330.125 153.787 330.273C154.147 330.416 154.527 330.186 154.626 329.474ZM152.431 329.505C151.765 329.313 150.992 329.83 150.993 329.828C151.003 329.828 151.599 330.632 152.216 330.841C152.843 331.05 153.254 330.9 153.33 330.524C153.406 330.151 153.096 329.701 152.431 329.505ZM153.359 327.596C153.367 326.86 152.502 325.861 152.493 325.868C152.489 325.868 151.853 326.522 151.902 327.234C151.948 327.946 152.243 328.386 152.631 328.495C153.011 328.6 153.361 328.326 153.359 327.597V327.596ZM151.155 327.863C150.457 327.739 149.755 328.347 149.754 328.344C149.763 328.344 150.485 329.095 151.134 329.237C151.793 329.379 152.185 329.183 152.208 328.795C152.23 328.411 151.854 327.988 151.155 327.863ZM149.198 324.562C148.477 324.015 147.291 324.024 147.298 324.029C147.308 324.033 147.784 325.063 148.43 325.554C149.087 326.049 149.591 326.131 149.829 325.874C150.061 325.62 149.912 325.1 149.198 324.562ZM151.804 325.829C151.7 325.083 150.665 324.16 150.658 324.167C150.654 324.167 150.112 324.897 150.274 325.616C150.432 326.335 150.797 326.749 151.205 326.818C151.604 326.884 151.916 326.57 151.804 325.829ZM149.615 326.334C148.886 326.282 148.271 326.972 148.269 326.968C148.281 326.966 149.131 327.654 149.806 327.731C150.493 327.805 150.859 327.564 150.823 327.168C150.79 326.777 150.344 326.388 149.615 326.334ZM154.131 344.301C153.879 343.697 153.004 343.407 153.006 343.405C153.011 343.409 152.738 344.299 152.957 344.89C153.179 345.485 153.548 345.713 153.886 345.554C154.221 345.398 154.382 344.907 154.131 344.301ZM153.406 346.061C153.219 345.431 152.381 345.044 152.386 345.043C152.39 345.048 152.026 345.904 152.178 346.518C152.335 347.135 152.676 347.405 153.029 347.285C153.378 347.166 153.59 346.694 153.406 346.062V346.061ZM152.498 347.736C152.381 347.085 151.594 346.608 151.596 346.606C151.6 346.611 151.148 347.424 151.233 348.054C151.322 348.686 151.633 348.994 151.994 348.912C152.354 348.834 152.615 348.386 152.499 347.736H152.498ZM151.42 349.303C151.372 348.642 150.642 348.077 150.645 348.076C150.648 348.082 150.113 348.842 150.127 349.478C150.146 350.121 150.42 350.46 150.789 350.42C151.154 350.382 151.463 349.966 151.419 349.303H151.42ZM150.175 350.746C150.203 350.082 149.539 349.436 149.542 349.436C149.544 349.443 148.927 350.14 148.87 350.776C148.818 351.417 149.05 351.786 149.423 351.787C149.791 351.79 150.145 351.409 150.174 350.746H150.175ZM148.775 352.042C148.878 351.385 148.29 350.667 148.293 350.667C148.295 350.673 147.601 351.299 147.471 351.924C147.344 352.557 147.535 352.951 147.906 352.995C148.274 353.039 148.671 352.7 148.775 352.043V352.042ZM147.227 353.174C147.408 352.532 146.902 351.751 146.906 351.751C146.908 351.757 146.14 352.301 145.935 352.907C145.731 353.52 145.876 353.933 146.245 354.02C146.608 354.107 147.046 353.816 147.228 353.174H147.227ZM145.541 354.12C145.799 353.503 145.384 352.67 145.387 352.669C145.389 352.676 144.552 353.126 144.27 353.703C143.99 354.288 144.082 354.715 144.445 354.844C144.802 354.973 145.278 354.736 145.541 354.12ZM143.723 354.861C144.061 354.28 143.745 353.404 143.748 353.405C143.748 353.412 142.847 353.759 142.485 354.297C142.127 354.842 142.167 355.277 142.52 355.449C142.867 355.62 143.382 355.442 143.723 354.862V354.861ZM141.781 355.377C142.201 354.842 141.989 353.936 141.993 353.938C141.993 353.945 141.03 354.181 140.589 354.667C140.151 355.163 140.136 355.597 140.475 355.81C140.809 356.022 141.359 355.91 141.781 355.377ZM155.495 345.941C156.118 345.612 156.524 344.502 156.518 344.502C156.516 344.498 155.632 344.275 155.051 344.62C154.467 344.964 154.25 345.398 154.36 345.76C154.469 346.116 154.88 346.271 155.495 345.94V345.941ZM154.582 347.848C155.234 347.589 155.757 346.528 155.749 346.528C155.749 346.523 154.896 346.202 154.283 346.481C153.669 346.759 153.407 347.168 153.477 347.541C153.549 347.909 153.939 348.111 154.583 347.848H154.582ZM153.474 349.648C154.15 349.463 154.78 348.463 154.773 348.462C154.773 348.459 153.962 348.042 153.323 348.253C152.686 348.462 152.381 348.839 152.411 349.219C152.441 349.594 152.807 349.838 153.474 349.648ZM152.179 351.319C152.87 351.209 153.605 350.283 153.595 350.28C153.595 350.277 152.836 349.772 152.181 349.91C151.525 350.046 151.182 350.39 151.169 350.771C151.159 351.148 151.496 351.433 152.178 351.318L152.179 351.319ZM150.706 352.838C151.407 352.806 152.24 351.966 152.232 351.963C152.232 351.96 151.534 351.371 150.866 351.436C150.198 351.498 149.819 351.801 149.764 352.18C149.71 352.554 150.014 352.875 150.706 352.838ZM149.065 354.185C149.769 354.233 150.695 353.49 150.686 353.486C150.686 353.482 150.058 352.818 149.387 352.807C148.715 352.793 148.3 353.052 148.201 353.424C148.104 353.789 148.37 354.143 149.066 354.185H149.065ZM147.265 355.337C147.966 355.467 148.979 354.833 148.97 354.826C148.971 354.823 148.42 354.091 147.749 354.004C147.077 353.914 146.633 354.123 146.488 354.481C146.346 354.833 146.573 355.216 147.266 355.337H147.265ZM145.315 356.271C146.008 356.482 147.101 355.971 147.093 355.963C147.094 355.96 146.629 355.169 145.964 355.005C145.299 354.838 144.825 354.993 144.635 355.33C144.449 355.664 144.63 356.069 145.316 356.271H145.315ZM143.223 356.966C143.902 357.258 145.072 356.88 145.063 356.872C145.064 356.87 144.693 356.03 144.041 355.788C143.391 355.544 142.887 355.641 142.652 355.952C142.42 356.26 142.553 356.684 143.223 356.966ZM141 357.401C141.659 357.773 142.898 357.541 142.891 357.532C142.893 357.528 142.621 356.653 141.988 356.334C141.355 356.013 140.826 356.047 140.544 356.325C140.265 356.6 140.348 357.037 141 357.4V357.401ZM139.887 355.451C140.201 354.954 140.127 354.251 140.131 354.251C140.131 354.258 139.109 354.37 138.59 354.796C138.5 354.871 138.425 354.946 138.362 355.018C137.895 355.458 137.372 355.922 136.423 355.811C135.834 355.739 135.471 355.695 134.864 355.563C134.45 355.471 134.354 355.676 134.354 355.678C134.354 355.678 134.343 355.911 134.769 356.006C135.393 356.142 135.771 356.188 136.376 356.262C137.338 356.374 137.835 356.862 138.384 357.324C138.458 357.399 138.546 357.475 138.655 357.55C139.288 358.003 140.595 357.928 140.589 357.918C140.589 357.918 140.463 357.226 140.023 356.791C139.809 356.574 139.567 356.376 139.347 356.385C139.164 356.393 138.98 356.398 138.794 356.399C138.399 356.4 138.357 356.169 138.358 356.17C138.358 356.17 138.397 355.946 138.779 355.944C138.959 355.942 139.14 355.938 139.318 355.931C139.534 355.921 139.736 355.697 139.889 355.45L139.887 355.451Z" fill="#FAB91B"/>
<path d="M122.768 349.874L123.441 346.601L127.435 344.193C135.381 339.37 139.22 336.612 140.035 332.868C140.554 330.337 139.66 327.833 135.953 327.07C133.466 326.559 131.07 327.385 129.406 328.18L128.616 324.061C131.006 322.823 134.362 322.195 137.938 322.931C144.218 324.223 146.456 328.821 145.505 333.448C144.483 338.422 140.082 341.701 134.213 345.27L131.288 346.897L131.27 346.985L142.914 349.38L142 353.832L122.766 349.876L122.768 349.874Z" fill="#DEDEDE"/>
<path d="M452.267 297.358C453.15 298.169 455.399 299.682 457.896 300.196C461.682 300.974 463.651 299.154 464.033 297.09C464.67 293.987 462.044 292.06 459.023 291.439L456.727 290.967L457.473 287.34L459.688 287.795C461.984 288.268 465.098 287.817 465.637 285.197C466.002 283.424 464.978 281.66 462.119 281.071C459.984 280.632 457.659 281.12 456.423 281.622L456.032 277.803C457.737 277.061 460.836 276.691 463.977 277.337C469.373 278.446 471.54 282 470.836 285.426C470.273 288.166 468.199 290.091 464.745 290.557L464.728 290.638C467.794 291.857 469.875 294.804 469.147 298.35C468.236 302.783 463.81 305.527 457.326 304.194C454.144 303.539 451.588 302.09 450.369 300.873L452.266 297.357L452.267 297.358Z" fill="#EE8F21"/>
</g>
<defs>
<clipPath id="clip0_497_2180">
<rect width="527" height="556" fill="white" transform="matrix(-1 0 0 -1 527 556)"/>
</clipPath>
</defs>
</svg>
